<svg xmlns="http://www.w3.org/2000/svg" xmlns:xlink="http://www.w3.org/1999/xlink" width="262" height="40" viewBox="0 0 262 40">
    <defs>
        <path id="a" d="M0 39.72h261.349V.075H0z"/>
    </defs>
    <g fill="none" fill-rule="evenodd">
        <path fill="#FFF" d="M176.921 14.44l-.682 1.667h1.365l-.683-1.667zm1.557 3.82l-.47-1.154h-2.174l-.47 1.153h-1.153l2.204-5.178h1.043l2.203 5.178h-1.183z"/>
        <g transform="translate(0 .205)">
            <path fill="#FFF" d="M183.954 17.904a3.111 3.111 0 0 1-1.253.239c-.401 0-.767-.066-1.097-.199a2.53 2.53 0 0 1-.852-.55 2.49 2.49 0 0 1-.555-.838 2.772 2.772 0 0 1-.198-1.058v-.014a2.64 2.64 0 0 1 1.616-2.45 2.73 2.73 0 0 1 1.08-.209c.23 0 .439.016.627.048.189.032.364.077.525.136.162.058.314.132.456.22.142.088.279.189.411.301l-.712.86a2.864 2.864 0 0 0-.294-.22 1.792 1.792 0 0 0-.646-.264 2.054 2.054 0 0 0-.404-.038c-.206 0-.398.043-.577.129a1.55 1.55 0 0 0-.786.854 1.692 1.692 0 0 0-.114.622v.014c0 .236.038.453.114.652.076.199.184.372.323.519.14.147.304.261.492.342.189.081.398.122.628.122.421 0 .777-.104 1.066-.31v-.74h-1.139v-.978h2.233v2.233a3.76 3.76 0 0 1-.944.577M186.132 18.054v-5.14h3.87v1.005h-2.754v1.043h2.424v1.007h-2.424v1.08h2.791v1.005zM194.813 18.054l-2.49-3.268v3.268h-1.116v-5.14h1.043l2.409 3.165v-3.166h1.116v5.141zM201.21 17.607a2.412 2.412 0 0 1-1.02.474 3.34 3.34 0 0 1-.676.062c-.377 0-.727-.07-1.05-.206a2.58 2.58 0 0 1-.838-.562 2.551 2.551 0 0 1-.55-.84 2.706 2.706 0 0 1-.2-1.036v-.015a2.68 2.68 0 0 1 .75-1.877c.235-.242.517-.433.845-.573.328-.14.69-.209 1.087-.209.24 0 .459.02.657.059.198.039.378.093.54.161.162.069.31.152.448.25.137.098.264.206.382.323l-.72.83a2.733 2.733 0 0 0-.613-.426 1.56 1.56 0 0 0-.702-.154 1.434 1.434 0 0 0-1.072.47 1.61 1.61 0 0 0-.308.51c-.074.194-.11.4-.11.621v.015c0 .22.036.428.11.624.073.196.175.367.304.514a1.417 1.417 0 0 0 1.076.477c.294 0 .543-.053.746-.161.203-.107.405-.255.606-.44l.72.726c-.132.143-.27.27-.412.383"/>
            <mask id="b" fill="#fff">
                <use xlink:href="#a"/>
            </mask>
            <path fill="#FFF" d="M202.577 18.054h1.13v-5.141h-1.13zM207.262 14.235l-.682 1.667h1.365l-.683-1.667zm1.557 3.82l-.47-1.154h-2.174l-.47 1.154h-1.153l2.203-5.179h1.044l2.203 5.179h-1.183zM216.62 15.484c0-.225-.039-.434-.114-.625a1.404 1.404 0 0 0-.804-.811 1.7 1.7 0 0 0-.632-.114h-.874v3.1h.874c.23 0 .44-.037.632-.11.19-.074.353-.18.488-.316.134-.137.24-.3.316-.485.075-.186.113-.394.113-.624v-.015zm.984 1.013a2.4 2.4 0 0 1-.562.816c-.243.23-.532.411-.867.543a2.987 2.987 0 0 1-1.105.198h-2.005v-5.14h2.005c.401 0 .77.064 1.105.194.335.13.624.31.867.54.242.23.43.5.562.811.132.311.198.648.198 1.01v.015c0 .362-.066.7-.198 1.013zM218.926 18.054h1.13v-5.141h-1.13zM225.135 17.904a3.109 3.109 0 0 1-1.252.239c-.401 0-.767-.066-1.098-.199a2.533 2.533 0 0 1-.852-.55 2.494 2.494 0 0 1-.554-.838 2.772 2.772 0 0 1-.199-1.058v-.014a2.634 2.634 0 0 1 1.616-2.45c.328-.14.688-.209 1.08-.209.23 0 .44.016.628.048s.363.077.525.136c.162.058.313.132.455.22.142.088.28.189.412.301l-.713.86a2.861 2.861 0 0 0-.293-.22 1.801 1.801 0 0 0-.646-.264 2.053 2.053 0 0 0-.405-.038c-.205 0-.398.043-.576.129a1.551 1.551 0 0 0-.786.854 1.693 1.693 0 0 0-.114.622v.014c0 .236.038.453.114.652.076.199.183.372.323.519.14.147.303.261.492.342.188.081.398.122.628.122.421 0 .776-.104 1.065-.31v-.74h-1.138v-.978h2.232v2.233a3.76 3.76 0 0 1-.944.577M227.35 18.054h1.131v-5.141h-1.131zM232.065 13.956v4.099h-1.13v-4.099h-1.565v-1.043h4.26v1.043zM236.208 14.235l-.683 1.667h1.366l-.683-1.667zm1.557 3.82l-.47-1.154h-2.174l-.47 1.154h-1.153l2.203-5.179h1.043l2.203 5.179h-1.182zM239.784 18.054v-5.14h1.132v4.12h2.563v1.02zM250.162 15.484c0-.225-.038-.434-.113-.625a1.404 1.404 0 0 0-.804-.811 1.7 1.7 0 0 0-.632-.114h-.874v3.1h.874c.23 0 .44-.037.631-.11.191-.074.354-.18.489-.316.134-.137.24-.3.316-.485.075-.186.113-.394.113-.624v-.015zm.985 1.013a2.4 2.4 0 0 1-.562.816c-.243.23-.532.411-.867.543a2.987 2.987 0 0 1-1.105.198h-2.005v-5.14h2.005c.401 0 .77.064 1.105.194.335.13.624.31.867.54.242.23.43.5.562.811.132.311.198.648.198 1.01v.015c0 .362-.066.7-.198 1.013zM252.432 18.054v-5.14h3.87v1.005h-2.754v1.043h2.424v1.007h-2.424v1.08h2.791v1.005zM174.703 26.868h1.131v-5.141h-1.13zM180.807 26.868l-2.49-3.268v3.268H177.2v-5.14h1.044l2.408 3.165v-3.166h1.117v5.141zM186.734 26.868l-2.49-3.268v3.268h-1.116v-5.14h1.043l2.409 3.165v-3.166h1.116v5.141zM193.08 24.298c0-.22-.038-.429-.114-.625a1.55 1.55 0 0 0-.819-.863 1.51 1.51 0 0 0-.624-.128c-.23 0-.44.042-.629.125-.188.083-.35.198-.484.345a1.63 1.63 0 0 0-.316.51c-.076.194-.114.4-.114.621v.015c0 .22.038.428.114.624a1.553 1.553 0 0 0 .815.863c.189.086.398.129.628.129.225 0 .434-.042.625-.125a1.43 1.43 0 0 0 .488-.346c.135-.146.24-.317.316-.51.076-.193.114-.4.114-.62v-.015zm.976 1.032c-.137.32-.326.602-.569.844a2.65 2.65 0 0 1-.866.573c-.336.14-.702.21-1.098.21-.397 0-.762-.07-1.095-.21a2.72 2.72 0 0 1-.863-.565 2.526 2.526 0 0 1-.565-.838 2.64 2.64 0 0 1-.202-1.031v-.015c0-.367.068-.711.206-1.032.136-.32.326-.602.568-.845.243-.242.532-.433.867-.573.336-.14.702-.21 1.098-.21.397 0 .762.07 1.094.21.334.14.621.328.863.566.243.237.431.516.566.837.135.32.202.665.202 1.032v.015c0 .367-.069.711-.206 1.032zM197.715 26.905h-.999l-2.079-5.178h1.249l1.344 3.62 1.344-3.62h1.22zM202.011 23.05l-.683 1.666h1.366l-.683-1.667zm1.557 3.818l-.47-1.153h-2.174l-.47 1.153h-1.153l2.203-5.178h1.043l2.204 5.178h-1.183zM209.422 26.42a2.403 2.403 0 0 1-1.021.474c-.2.042-.426.063-.676.063-.377 0-.727-.07-1.05-.206a2.582 2.582 0 0 1-.837-.562 2.555 2.555 0 0 1-.551-.841 2.706 2.706 0 0 1-.198-1.036v-.014a2.68 2.68 0 0 1 .749-1.877 2.55 2.55 0 0 1 .844-.573c.328-.14.69-.21 1.087-.21.24 0 .46.02.657.06.199.039.379.093.54.161.162.069.311.152.449.25.136.098.264.206.382.323l-.72.83a2.74 2.74 0 0 0-.614-.426 1.56 1.56 0 0 0-.701-.154 1.434 1.434 0 0 0-1.073.47 1.615 1.615 0 0 0-.308.51c-.073.194-.11.4-.11.621v.015c0 .22.037.428.11.624.074.196.175.367.305.514a1.423 1.423 0 0 0 1.076.478c.294 0 .542-.054.745-.162.204-.108.406-.255.606-.44l.72.726a3.73 3.73 0 0 1-.411.382M210.788 26.868h1.13v-5.141h-1.13zM215.364 21.323l.83-1.3.962.419-.94.881h-.852zm1.946 2.975c0-.22-.038-.429-.114-.625a1.566 1.566 0 0 0-.323-.514 1.56 1.56 0 0 0-.496-.349 1.51 1.51 0 0 0-.624-.128c-.23 0-.44.042-.628.125-.189.083-.35.198-.485.345a1.63 1.63 0 0 0-.316.51c-.076.194-.113.4-.113.621v.015c0 .22.037.428.113.624a1.557 1.557 0 0 0 .815.863c.189.086.398.129.628.129.226 0 .434-.042.625-.125a1.43 1.43 0 0 0 .488-.346c.135-.146.24-.316.316-.51.076-.193.114-.4.114-.62v-.015zm.977 1.032a2.651 2.651 0 0 1-1.436 1.418c-.336.139-.701.209-1.098.209a2.81 2.81 0 0 1-1.095-.21 2.72 2.72 0 0 1-.862-.565 2.527 2.527 0 0 1-.566-.838 2.64 2.64 0 0 1-.202-1.032v-.014a2.6 2.6 0 0 1 .206-1.032c.137-.32.326-.603.569-.845.242-.242.53-.433.867-.573.335-.14.7-.21 1.097-.21s.762.07 1.095.21c.333.14.62.328.863.566.242.237.43.517.566.837.134.321.202.665.202 1.032v.015a2.6 2.6 0 0 1-.206 1.032zM223.186 26.868l-2.49-3.268v3.268h-1.117v-5.14h1.044l2.408 3.165v-3.166h1.117v5.141zM230.582 23.527c0-.255-.082-.449-.246-.58-.164-.133-.388-.199-.672-.199h-.874v1.572h.896c.284 0 .504-.075.66-.224a.736.736 0 0 0 .236-.555v-.014zm.984.778a1.6 1.6 0 0 1-.444.566 1.923 1.923 0 0 1-.662.341 2.795 2.795 0 0 1-.811.114h-.86v1.542h-1.13v-5.14h2.1c.309 0 .584.042.827.127.242.086.448.207.617.364.168.157.298.344.389.562.09.218.136.46.136.723v.015c0 .299-.054.561-.162.786zM234.298 21.36l.83-1.3.962.418-.94.882h-.852zm2.59 4.289c-.106.29-.257.53-.452.724a1.847 1.847 0 0 1-.713.433c-.279.096-.59.143-.932.143-.691 0-1.235-.19-1.631-.573-.397-.382-.595-.952-.595-1.711v-2.938h1.131v2.909c0 .42.098.738.294.95.195.214.467.32.815.32.348 0 .62-.103.815-.308.196-.206.294-.514.294-.926v-2.945h1.131v2.901c0 .392-.053.732-.158 1.021zM241.592 25.304a.485.485 0 0 0-.199-.408c-.132-.1-.345-.15-.639-.15h-1.307v1.13h1.344c.25 0 .445-.044.588-.135.142-.09.213-.231.213-.422v-.015zm-.287-2.057a.452.452 0 0 0-.19-.393c-.128-.09-.312-.135-.552-.135h-1.116v1.087h1.043c.25 0 .448-.043.595-.129.147-.085.22-.224.22-.415v-.015zm1.267 2.828c-.09.176-.22.323-.388.441a1.829 1.829 0 0 1-.61.264c-.236.06-.499.088-.787.088h-2.442v-5.141h2.383c.528 0 .942.12 1.242.36.301.24.452.563.452.97v.014a1.205 1.205 0 0 1-.672 1.109c.297.113.531.266.702.46.17.193.256.46.256.804v.014c0 .235-.045.441-.136.617zM243.795 26.868v-5.14h1.131v4.12h2.563v1.02zM248.385 26.868h1.131v-5.141h-1.13zM254.966 26.42a2.412 2.412 0 0 1-1.02.474 3.34 3.34 0 0 1-.676.063c-.378 0-.728-.07-1.05-.206a2.58 2.58 0 0 1-.838-.562 2.551 2.551 0 0 1-.551-.841 2.706 2.706 0 0 1-.198-1.036v-.014a2.68 2.68 0 0 1 .749-1.877c.235-.242.516-.433.845-.573.328-.14.69-.21 1.087-.21.24 0 .459.02.657.06.198.039.378.093.54.161.161.069.31.152.448.25.137.098.264.206.382.323l-.72.83a2.733 2.733 0 0 0-.614-.426 1.56 1.56 0 0 0-.701-.154 1.434 1.434 0 0 0-1.072.47 1.61 1.61 0 0 0-.308.51c-.074.194-.111.4-.111.621v.015c0 .22.037.428.11.624.074.196.175.367.305.514a1.417 1.417 0 0 0 1.076.477c.294 0 .542-.053.746-.161.203-.108.405-.255.606-.44l.72.726c-.133.143-.27.27-.412.382M258.609 23.05l-.683 1.666h1.366l-.683-1.667zm1.557 3.818l-.47-1.153h-2.174l-.47 1.153H255.9l2.203-5.178h1.043l2.204 5.178h-1.183zM166.294 34.53h.432V5.256h-.432zM52.793 22.024c.208.317.495.46.9.47.551.014.903-.527.903-.527l9.131-11.699c.754-.786 1.498-.15 1.498-.15.721.753.183 1.443.183 1.443l-2.042 2.613v.014a1.001 1.001 0 0 0-.043 1.35v.004l2.054 2.604 6.472-8.232-2.586-3.296-.477-.621c-.42-.604-1.358-.744-1.358-.744h-3.875a2.118 2.118 0 0 0-1.588.711L51.112 19.891l1.681 2.133zM52.333 14.885l-2.596-3.33c-.529-.85.242-1.459.242-1.459.97-.566 1.532.307 1.532.307l2.148 2.758 2.543-3.275-2.932-3.771c-.7-1.002-1.766-.862-1.766-.862h-3.502c-1.12 0-1.602.697-1.602.697l-3.095 3.929 6.471 8.267 2.557-3.261z" mask="url(#b)"/>
            <path fill="#FFF" d="M62.34 17.723s-.299-.462-.875-.454c-.599.01-.84.408-.84.408L51.4 29.523c-.747.822-1.552.162-1.552.162-.722-.755-.13-1.455-.13-1.455l2.07-2.657v-.014a1 1 0 0 0 .042-1.35v-.004l-2.054-2.604-6.493 8.324 3.62 4.583 5.689.015 11.442-14.634-1.695-2.166zM62.816 24.861l2.618 3.37c.604.835-.157 1.454-.157 1.454-1.006.675-1.62-.334-1.62-.334l-2.191-2.783-2.543 3.275 3.667 4.694 5.646-.015 3.62-4.64-6.486-8.285-2.554 3.264zM71.808 21.298c-.762 0-1.38-.625-1.38-1.393s.618-1.393 1.38-1.393c.76 0 1.38.625 1.38 1.393s-.62 1.393-1.38 1.393m0-3.984c-1.448 0-2.626 1.162-2.626 2.591 0 1.429 1.178 2.591 2.626 2.591s2.625-1.162 2.625-2.59c0-1.43-1.177-2.592-2.625-2.592M57.56 1.273c.762 0 1.382.625 1.382 1.393 0 .769-.62 1.394-1.381 1.394a1.389 1.389 0 0 1-1.381-1.394c0-.768.62-1.393 1.38-1.393m0 3.985c1.449 0 2.626-1.163 2.626-2.592 0-1.428-1.177-2.591-2.625-2.591s-2.625 1.163-2.625 2.591c0 1.43 1.177 2.592 2.625 2.592M41.895 19.895c0-.768.62-1.393 1.381-1.393.762 0 1.38.625 1.38 1.393 0 .769-.618 1.393-1.38 1.393a1.389 1.389 0 0 1-1.38-1.393m4.006 0c0-1.428-1.179-2.591-2.626-2.591-1.447 0-2.625 1.163-2.625 2.59 0 1.43 1.178 2.592 2.625 2.592s2.626-1.163 2.626-2.591M57.564 38.522c-.761 0-1.38-.625-1.38-1.393 0-.769.619-1.393 1.38-1.393.761 0 1.381.624 1.381 1.393 0 .768-.62 1.393-1.38 1.393m0-3.984c-1.448 0-2.625 1.163-2.625 2.591 0 1.429 1.177 2.591 2.624 2.591 1.448 0 2.626-1.162 2.626-2.59 0-1.43-1.178-2.592-2.626-2.592M30.16 2.65H0v20.113C0 33.803 15.073 37.13 15.073 37.13h.014s15.074-3.327 15.074-14.366V2.65zm-.733.734v19.38c0 2.347-.74 4.515-2.196 6.443-1.186 1.57-2.851 2.993-4.948 4.228-3.211 1.89-6.472 2.76-7.203 2.94-.729-.178-3.964-1.04-7.172-2.922-2.105-1.236-3.777-2.66-4.968-4.232-1.464-1.93-2.207-4.103-2.207-6.458V3.384h28.694z" mask="url(#b)"/>
            <path fill="#FFF" d="M18.733 9.088V7.24h-1.9v1.724h-.742V7.241h-1.957v1.724h-.742V7.241h-1.93V9.09l.942 1.62c.032.057.05.121.05.186l.007 8.459h.914l-.009-3.038c0-.717.815-1.368 1.71-1.368.894 0 1.71.65 1.71 1.367l.01 3.039h.936l-.003-3.208a.465.465 0 0 1-.002-.045v-1.59V12.82l-.002-1.923c0-.066.018-.132.051-.19l.957-1.618zM11.72 19.55l-.003-2.802-.338.202a.37.37 0 0 1-.4-.011l-.407-.279c.001.012.002.024.001.036l-.013 1.08a.37.37 0 0 1-.143.287.368.368 0 0 1 .118.064c.494.395.53.962.424 1.423h.76z" mask="url(#b)"/>
            <path fill="#FFF" d="M15.076 15.69c-.57 0-.969.405-.969.625l.01 3.039h1.936l-.009-3.038c0-.22-.4-.627-.968-.627" mask="url(#b)"/>
            <path fill="#FFF" d="M3.77 19.55a3.366 3.366 0 0 1-.238-.852c-.093-.585-.074-1.123-.073-1.146a.371.371 0 0 1 .26-.34l.812-.251-.916-.648a.37.37 0 0 1-.156-.303v-1.027a.37.37 0 0 1 .199-.33l.357-.186v-.35l-.325-.131a.371.371 0 0 1-.232-.343l-.001-1.236a.37.37 0 0 1 .367-.371l1.145-.011c-.02-.303-.026-.717.047-1.06.1-.464.363-.966.489-1.19l-.06-.43a.37.37 0 0 1 .367-.422h.617c.07 0 .138.02.198.057l1.509.956h.693a.372.372 0 0 1 .371.388l-.053 1.189a.368.368 0 0 1-.12.257l.46.001c.102 0 .198.042.267.114l.21.218.16-.121.268-.565a.372.372 0 0 1 .336-.212h.984v-.21l-.942-1.619a.365.365 0 0 1-.05-.186V6.87a.37.37 0 0 1 .37-.37h8.013c.206 0 .372.165.372.37v2.32a.376.376 0 0 1-.052.189l-.956 1.618v.208h.976c.144 0 .274.083.336.212l.268.565.159.121.21-.218a.372.372 0 0 1 .266-.114h.462a.371.371 0 0 1-.121-.258l-.053-1.19a.374.374 0 0 1 .371-.387h.694l1.509-.956a.37.37 0 0 1 .198-.057h.618a.37.37 0 0 1 .366.423l-.06.428c.126.225.389.727.488 1.191.074.343.068.757.048 1.06l1.145.01a.371.371 0 0 1 .368.372l-.002 1.236a.37.37 0 0 1-.232.343l-.325.132v.35l.357.185c.122.064.2.191.2.33v1.027c0 .12-.059.233-.157.303l-.916.648.81.25c.152.047.256.183.262.34.001.024.02.562-.073 1.147a3.365 3.365 0 0 1-.238.852h1.35l.016.003V5.217H2.427V19.55H3.77z" mask="url(#b)"/>
            <path fill="#FFF" d="M19.636 18.126a.368.368 0 0 1 .118-.063.37.37 0 0 1-.143-.287l-.014-1.08c0-.012 0-.024.002-.036l-.408.279a.371.371 0 0 1-.4.012l-.319-.192.003 2.791h.736c-.105-.46-.069-1.027.425-1.424M24.563 27.216a.37.37 0 0 1-.372-.37V24.42c0-.18-.108-.403-.276-.569a1.023 1.023 0 0 0-.762-.297c-.57.01-.91.45-.958.885v2.405a.374.374 0 0 1-.108.263.373.373 0 0 1-.263.108H19.62a.37.37 0 0 1-.37-.37V24.42c0-.18-.11-.403-.277-.569a1.025 1.025 0 0 0-.762-.297.955.955 0 0 0-.644.255l1.813 9.245c2.55-1.131 5.571-2.975 7.202-5.839h-2.018zM18.668 33.285L16.12 20.293h-2.068L11.507 33.29c-.003.018-.008.034-.014.052 1.768.725 3.204 1.095 3.604 1.22.407-.127 1.833-.494 3.59-1.213a.478.478 0 0 1-.019-.064M12.61 23.798a.959.959 0 0 0-.63-.242h-.02c-.363 0-.603.161-.742.297-.168.166-.276.389-.276.57v2.424c0 .204-.167.37-.371.37H8.366a.37.37 0 0 1-.372-.37V24.44c-.047-.436-.388-.876-.957-.885h-.02c-.362 0-.603.161-.742.297-.168.166-.276.389-.276.57v2.424c0 .204-.166.37-.371.37H3.617c1.627 2.855 4.637 4.697 7.182 5.829l1.81-9.248z" mask="url(#b)"/>
            <path fill="#FFF" d="M27.751 20.293H16.876l.534 2.724a1.788 1.788 0 0 1 2.082.307c.313.306.499.717.499 1.097v2.053h1.463v-2.053-.034a1.725 1.725 0 0 1 1.687-1.574c.494-.009.952.173 1.294.51.312.307.499.718.499 1.098v2.053h2.026a8.994 8.994 0 0 0 .807-3.773v-2.41l-.016.002M5.257 26.475v-2.053c0-.38.186-.79.498-1.098a1.796 1.796 0 0 1 1.294-.51 1.725 1.725 0 0 1 1.688 1.608v2.053h1.462v-2.053c0-.38.186-.79.499-1.098a1.795 1.795 0 0 1 2.066-.314l.532-2.717H2.426V22.7a8.98 8.98 0 0 0 .81 3.774h2.02zM6.129 18.787h.601c.046.075.073.16.086.249 0 .05.004.1.008.15 0 .131-.024.26-.05.365H4.667c-.304-.208-.455-1.032-.469-1.71l.922-.285a.371.371 0 0 0 .262-.355v-.356a.37.37 0 0 0-.157-.302L4.2 15.818v-.61l.357-.186c.122-.065.2-.191.2-.33v-.824a.371.371 0 0 0-.232-.344l-.326-.132v-.617l.972-.01.462.758.003 1.055-.318 1.002a.371.371 0 0 0 .354.483h.281a.37.37 0 0 0 .366-.311c.027-.164.115-.637.198-.851.064-.166.328-.521.495-.72a.372.372 0 0 0-.004-.483l-1.277-1.464c-.024-.22-.07-.743.01-1.114.086-.4.365-.913.465-1.077a.375.375 0 0 0 .05-.246l-.018-.133h.082l1.51.957a.365.365 0 0 0 .197.057h.414l-.024.554-.487.176a.372.372 0 0 0-.245.35l.003.383a.371.371 0 0 0 .37.368l1.27.004.331.344a.37.37 0 0 0 .493.037s.578-.46.603-.513l.206-.434h.74v1.351s-1.353.464-1.465.52c-.088.043-.138.462-.122.563.015.101.01.141.155.25 0 0 .395.31.516.353l.393-.377.522.036-.001 1.25-.498.299-1.556-1.065a.37.37 0 0 0-.502.077l-.244.313a.371.371 0 0 0 .039.499l.89.834-.009.678-.893.397a.371.371 0 0 0-.22.34v.15c0 .206.166.372.37.372h1.075c.185.23.113.556.035.764H7.71c-.085-.088-.128-.244-.145-.419a1.904 1.904 0 0 0-.01-.143c-.006-.235.024-.479.056-.618l.577-.738a.38.38 0 0 0 .078-.21l.017-.355a.37.37 0 0 0-.511-.36l-.93.379a.372.372 0 0 0-.227.29l-.055.37-.54.163a.37.37 0 0 0-.263.355v.15c0 .206.165.372.37.372M24.042 18.787h-.601a.645.645 0 0 0-.085.249c-.002.05-.005.1-.01.15.002.131.025.26.05.365h2.108c.304-.208.455-1.032.469-1.71l-.922-.285a.371.371 0 0 1-.262-.355v-.356a.37.37 0 0 1 .157-.302l1.025-.725v-.61l-.358-.186a.372.372 0 0 1-.2-.33v-.824c0-.151.092-.288.232-.344l.326-.132v-.617l-.972-.01-.462.758-.003 1.055.318 1.002a.373.373 0 0 1-.354.483h-.28a.37.37 0 0 1-.367-.311c-.026-.164-.115-.637-.198-.851-.064-.166-.328-.521-.495-.72a.373.373 0 0 1 .005-.483l1.275-1.464c.025-.22.07-.743-.009-1.114-.086-.4-.365-.913-.465-1.077a.37.37 0 0 1-.051-.246l.02-.133h-.083l-1.508.957a.37.37 0 0 1-.2.057h-.413l.025.554.486.176a.372.372 0 0 1 .245.35l-.003.383a.371.371 0 0 1-.37.368l-1.27.004-.331.344a.37.37 0 0 1-.493.037s-.578-.46-.603-.513l-.206-.434h-.74v1.351s1.354.464 1.465.52c.09.043.138.462.122.563-.015.101-.01.141-.156.25 0 0-.395.31-.514.353l-.394-.377-.522.036.001 1.25.498.299 1.557-1.065a.37.37 0 0 1 .5.077l.245.313a.37.37 0 0 1-.04.499l-.89.834.01.678.893.397c.134.06.22.193.22.34v.15a.37.37 0 0 1-.37.372h-1.075c-.185.23-.113.556-.035.764h2.476c.085-.088.128-.244.145-.419.002-.047.004-.095.01-.143a2.702 2.702 0 0 0-.056-.618l-.576-.738a.377.377 0 0 1-.08-.21l-.016-.355a.37.37 0 0 1 .511-.36l.93.379c.121.05.208.16.227.29l.055.37.54.163a.37.37 0 0 1 .263.355v.15c0 .206-.166.372-.37.372M82.373 15.498v-.014c0-1.41 1.035-2.658 2.577-2.658.867 0 1.403.25 1.916.684l-.374.44c-.397-.346-.838-.588-1.564-.588-1.138 0-1.953.962-1.953 2.107v.015c0 1.226.785 2.136 2.033 2.136a2.42 2.42 0 0 0 1.484-.514V15.83h-1.564v-.522h2.122v2.049a3.115 3.115 0 0 1-2.064.786c-1.615 0-2.613-1.175-2.613-2.644M93.59 15.498v-.014c0-1.167-.852-2.122-2.026-2.122-1.175 0-2.013.94-2.013 2.107v.015c0 1.167.852 2.122 2.027 2.122 1.174 0 2.012-.94 2.012-2.108m-4.64 0v-.014c0-1.417 1.064-2.658 2.628-2.658 1.563 0 2.614 1.226 2.614 2.643v.015c0 1.417-1.065 2.658-2.628 2.658-1.565 0-2.615-1.227-2.615-2.644M98.464 15.719h-1.623v1.813h1.726c.778 0 1.263-.345 1.263-.917v-.016c0-.557-.47-.88-1.366-.88zm1.079-1.447c0-.506-.404-.837-1.138-.837h-1.564v1.77h1.52c.698 0 1.182-.316 1.182-.918v-.015zm-3.274-1.358h2.187c.587 0 1.05.17 1.344.455.213.221.33.492.33.823v.014c0 .668-.41 1.013-.814 1.19.61.184 1.1.536 1.1 1.24v.015c0 .881-.74 1.402-1.864 1.402h-2.283v-5.14zM102.49 18.053h.58v-5.139h-.58zM105.418 12.914h3.714v.529h-3.135v1.755h2.806v.529h-2.806v1.798h3.173v.528h-3.752zM113.252 15.535c.77 0 1.321-.396 1.321-1.057v-.015c0-.63-.484-1.013-1.314-1.013h-1.586v2.085h1.579zm-2.158-2.62h2.21c.63 0 1.137.19 1.46.513.25.25.397.61.397 1.014v.014c0 .851-.588 1.35-1.395 1.498l1.578 2.1h-.712l-1.49-1.998h-1.469v1.997h-.579v-5.139zM117.251 12.914h.543l3.238 4.119v-4.119h.565v5.14h-.462l-3.32-4.214v4.213h-.564zM128.313 15.498v-.014c0-1.167-.851-2.122-2.026-2.122-1.175 0-2.012.94-2.012 2.107v.015c0 1.167.851 2.122 2.027 2.122 1.174 0 2.011-.94 2.011-2.108m-4.64 0v-.014c0-1.417 1.065-2.658 2.629-2.658 1.563 0 2.613 1.226 2.613 2.643v.015c0 1.417-1.065 2.658-2.628 2.658-1.564 0-2.614-1.227-2.614-2.644M134.246 13.45v4.067h1.204c1.3 0 2.128-.88 2.128-2.019v-.014c0-1.138-.829-2.034-2.128-2.034h-1.204zm-.58-.536h1.784c1.615 0 2.73 1.109 2.73 2.555v.015c0 1.446-1.115 2.57-2.73 2.57h-1.784v-5.14zM140.023 12.914h3.715v.529h-3.135v1.755h2.805v.529h-2.805v1.798h3.172v.528h-3.752zM148.393 12.914h.58v4.604h2.893v.535h-3.473zM156.859 16.167l-1.169-2.614-1.174 2.614h2.343zm-1.432-3.29h.543l2.342 5.176h-.624l-.602-1.358h-2.797l-.61 1.358h-.594l2.342-5.175zM82.263 24.309v-.014c0-1.461 1.101-2.658 2.68-2.658.969 0 1.548.323 2.026.793l-.72.83c-.396-.36-.8-.58-1.313-.58-.868 0-1.49.72-1.49 1.6v.015c0 .88.608 1.615 1.49 1.615.586 0 .947-.235 1.35-.602l.72.727c-.53.565-1.116.917-2.108.917-1.512 0-2.635-1.167-2.635-2.643M87.938 26.864h1.131v-5.14h-1.13zM90.374 24.662v-2.937h1.13v2.907c0 .837.419 1.27 1.109 1.27s1.108-.418 1.108-1.232v-2.945h1.131v2.9c0 1.557-.873 2.32-2.254 2.32-1.38 0-2.224-.771-2.224-2.283M98.142 25.844c.926 0 1.55-.624 1.55-1.535v-.015c0-.91-.624-1.549-1.55-1.549h-.873v3.099h.873zm-2.004-4.119h2.004c1.615 0 2.731 1.109 2.731 2.555v.014c0 1.447-1.116 2.57-2.73 2.57h-2.005v-5.139zM104.568 24.713l-.683-1.666-.684 1.666h1.367zm-1.19-3.025h1.043l2.202 5.176h-1.182l-.47-1.152h-2.173l-.47 1.152h-1.153l2.203-5.176zM109.445 25.844c.926 0 1.55-.624 1.55-1.535v-.015c0-.91-.624-1.549-1.55-1.549h-.873v3.099h.873zm-2.004-4.119h2.004c1.615 0 2.732 1.109 2.732 2.555v.014c0 1.447-1.117 2.57-2.732 2.57h-2.004v-5.139zM117.463 25.844c.925 0 1.549-.624 1.549-1.535v-.015c0-.91-.624-1.549-1.55-1.549h-.873v3.099h.874zm-2.005-4.119h2.005c1.615 0 2.731 1.109 2.731 2.555v.014c0 1.447-1.116 2.57-2.731 2.57h-2.005v-5.139zM121.267 21.725h3.876v1.006h-2.753v1.043h2.422v1.005h-2.422v1.08h2.79v1.005h-3.913zM128.462 21.725h1.218l1.35 2.174 1.352-2.174h1.218v5.14h-1.122v-3.356l-1.447 2.195H131l-1.43-2.173v3.333h-1.11zM137.1 20.022l.961.419-.939.88h-.852l.83-1.3zm-2.152 1.703h3.877v1.006h-2.753v1.042h2.422v1.006h-2.422v1.08h2.79v1.005h-3.914v-5.139zM141.38 24.25l-1.717-2.525h1.32l1.079 1.667 1.088-1.667h1.284l-1.718 2.51 1.792 2.63h-1.321l-1.154-1.763-1.16 1.762h-1.285zM145.374 26.864h1.13v-5.14h-1.13zM147.599 24.309v-.014c0-1.461 1.101-2.658 2.68-2.658.968 0 1.549.323 2.026.793l-.72.83c-.397-.36-.8-.58-1.314-.58-.866 0-1.49.72-1.49 1.6v.015c0 .88.609 1.615 1.49 1.615.587 0 .947-.235 1.35-.602l.72.727c-.529.565-1.116.917-2.107.917-1.512 0-2.635-1.167-2.635-2.643M157.155 24.309v-.014c0-.882-.647-1.616-1.556-1.616-.91 0-1.542.72-1.542 1.601v.015c0 .88.646 1.615 1.556 1.615s1.542-.719 1.542-1.601m-4.28 0v-.014c0-1.461 1.152-2.658 2.738-2.658s2.724 1.182 2.724 2.643v.015c0 1.461-1.153 2.657-2.738 2.657-1.586 0-2.725-1.182-2.725-2.643" mask="url(#b)"/>
        </g>
    </g>
</svg>
