<svg xmlns="http://www.w3.org/2000/svg" width="176" height="40" viewBox="0 0 176 40">
    <g fill="none" fill-rule="evenodd">
        <rect width="176" height="40" fill="#0F4C42" rx="6"/>
        <text fill="#FFF" font-family="Gotham-Medium, Gotham" font-size="10" font-weight="400">
            <tspan x="37" y="11">Inicia con tu Cuenta Única</tspan>
        </text>
        <text fill="#FEFEFE" font-family="Gotham-Bold, Gotham" font-size="12.5" font-weight="bold">
            <tspan x="65" y="27">Llave CDMX</tspan>
        </text>
        <g fill="#FFF">
            <path d="M16.147 21.451c.157.237.374.344.678.352.415.01.68-.395.68-.395l6.879-8.769c.568-.588 1.128-.112 1.128-.112.544.565.138 1.082.138 1.082l-1.538 1.958v.01a.75.75 0 0 0-.033 1.012v.003l1.548 1.953 4.876-6.17-1.949-2.471-.36-.466c-.316-.452-1.022-.557-1.022-.557h-2.92c-.773 0-1.195.533-1.195.533l-8.176 10.438 1.266 1.6zM15.8 16.1l-1.955-2.495c-.398-.638.182-1.094.182-1.094.73-.424 1.154.23 1.154.23l1.619 2.067 1.915-2.454-2.208-2.827c-.528-.75-1.331-.646-1.331-.646h-2.637c-.845 0-1.207.522-1.207.522l-2.333 2.945 4.876 6.196 1.926-2.444z"/>
            <path d="M23.339 18.227s-.225-.346-.659-.34c-.451.007-.633.306-.633.306l-6.95 8.878c-.562.616-1.168.121-1.168.121-.543-.566-.098-1.09-.098-1.09l1.559-1.99V24.1a.751.751 0 0 0 .032-1.011v-.004l-1.547-1.952-4.892 6.24 2.727 3.434 4.286.01 8.619-10.967-1.276-1.624zM23.698 23.578l1.972 2.525c.455.626-.119 1.09-.119 1.09-.757.505-1.22-.25-1.22-.25l-1.651-2.087-1.915 2.456 2.763 3.517 4.253-.01 2.727-3.478-4.887-6.21-1.923 2.447zM30.471 17.92c-1.09 0-1.978.872-1.978 1.943 0 1.07.888 1.942 1.978 1.942 1.09 0 1.978-.872 1.978-1.942 0-1.071-.887-1.943-1.978-1.943m0 2.987c-.573 0-1.04-.468-1.04-1.044 0-.577.467-1.045 1.04-1.045.574 0 1.04.468 1.04 1.045 0 .576-.466 1.044-1.04 1.044M19.739 8.885c1.09 0 1.978-.872 1.978-1.943 0-1.07-.888-1.942-1.978-1.942-1.09 0-1.978.872-1.978 1.942 0 1.071.888 1.943 1.978 1.943m0-2.987c.574 0 1.04.468 1.04 1.044 0 .576-.466 1.045-1.04 1.045-.574 0-1.04-.469-1.04-1.045s.466-1.044 1.04-1.044M10.956 19.856c0-1.072-.888-1.943-1.977-1.943-1.092 0-1.979.871-1.979 1.943 0 1.07.887 1.941 1.979 1.941 1.09 0 1.977-.871 1.977-1.941m-3.018 0c0-.576.467-1.045 1.04-1.045a1.044 1.044 0 0 1 0 2.089c-.573 0-1.04-.469-1.04-1.044M19.742 30.83c-1.09 0-1.978.872-1.978 1.943 0 1.07.887 1.942 1.978 1.942 1.09 0 1.977-.872 1.977-1.942 0-1.071-.887-1.943-1.977-1.943m0 2.986a1.043 1.043 0 1 1 0-2.089 1.044 1.044 0 0 1 0 2.09"/>
        </g>
    </g>
</svg>
