<?xml version="1.0" encoding="UTF-8"?>
<svg width="183px" height="48px" viewBox="0 0 183 48" version="1.1" xmlns="http://www.w3.org/2000/svg" xmlns:xlink="http://www.w3.org/1999/xlink">
    <!-- Generator: Sketch 64 (93537) - https://sketch.com -->
    <title>Group 7</title>
    <desc>Created with Sketch.</desc>
    <defs>
        <rect id="path-1" x="0" y="0" width="175" height="40" rx="6"></rect>
        <filter x="-4.0%" y="-12.5%" width="108.0%" height="135.0%" filterUnits="objectBoundingBox" id="filter-2">
            <feOffset dx="0" dy="2" in="SourceAlpha" result="shadowOffsetOuter1"></feOffset>
            <feGaussianBlur stdDeviation="2" in="shadowOffsetOuter1" result="shadowBlurOuter1"></feGaussianBlur>
            <feColorMatrix values="0 0 0 0 0   0 0 0 0 0   0 0 0 0 0  0 0 0 0.3 0" type="matrix" in="shadowBlurOuter1"></feColorMatrix>
        </filter>
    </defs>
    <g id="Publico-nuevo" stroke="none" stroke-width="1" fill="none" fill-rule="evenodd">
        <g id="Group-7" transform="translate(4.000000, 2.000000)">
            <g id="Rectangle-Copy-2">
                <use fill="black" fill-opacity="1" filter="url(#filter-2)" xlink:href="#path-1"></use>
                <use fill="#00615B" fill-rule="evenodd" xlink:href="#path-1"></use>
            </g>
            <path d="M39.2,16 L39.2,9 L37.97,9 L37.97,16 L39.2,16 Z M42.14,16 L42.14,13.02 C42.14,12.6066667 42.25,12.285 42.47,12.055 C42.69,11.825 42.9766667,11.71 43.33,11.71 C43.69,11.71 43.9683333,11.8216667 44.165,12.045 C44.3616667,12.2683333 44.46,12.5866667 44.46,13 L44.46,16 L45.67,16 L45.67,12.64 C45.67,12.02 45.5066667,11.5266667 45.18,11.16 C44.8533333,10.7933333 44.39,10.61 43.79,10.61 C43.5833333,10.61 43.3983333,10.635 43.235,10.685 C43.0716667,10.735 42.9216667,10.8033333 42.785,10.89 C42.6483333,10.9766667 42.5283333,11.075 42.425,11.185 C42.3216667,11.295 42.2266667,11.4133333 42.14,11.54 L42.14,10.72 L40.93,10.72 L40.93,16 L42.14,16 Z M48.45,9.91 L48.45,8.76 L47.15,8.76 L47.15,9.91 L48.45,9.91 Z M48.41,16 L48.41,10.72 L47.2,10.72 L47.2,16 L48.41,16 Z M52.43,16.12 C52.9433333,16.12 53.3666667,16.0283333 53.7,15.845 C54.0333333,15.6616667 54.33,15.4233333 54.59,15.13 L53.86,14.41 C53.6666667,14.6033333 53.4616667,14.7616667 53.245,14.885 C53.0283333,15.0083333 52.7766667,15.07 52.49,15.07 C52.2566667,15.07 52.0433333,15.025 51.85,14.935 C51.6566667,14.845 51.49,14.7233333 51.35,14.57 C51.21,14.4166667 51.1016667,14.2366667 51.025,14.03 C50.9483333,13.8233333 50.91,13.6 50.91,13.36 C50.91,13.1266667 50.9483333,12.9083333 51.025,12.705 C51.1016667,12.5016667 51.2066667,12.3233333 51.34,12.17 C51.4733333,12.0166667 51.6333333,11.895 51.82,11.805 C52.0066667,11.715 52.21,11.67 52.43,11.67 C52.7366667,11.67 52.995,11.7316667 53.205,11.855 C53.415,11.9783333 53.6133333,12.1366667 53.8,12.33 L54.55,11.52 C54.3033333,11.2466667 54.015,11.0266667 53.685,10.86 C53.355,10.6933333 52.94,10.61 52.44,10.61 C52.0466667,10.61 51.6816667,10.6833333 51.345,10.83 C51.0083333,10.9766667 50.7183333,11.1766667 50.475,11.43 C50.2316667,11.6833333 50.0416667,11.9766667 49.905,12.31 C49.7683333,12.6433333 49.7,13 49.7,13.38 C49.7,13.76 49.7683333,14.115 49.905,14.445 C50.0416667,14.775 50.2316667,15.065 50.475,15.315 C50.7183333,15.565 51.0066667,15.7616667 51.34,15.905 C51.6733333,16.0483333 52.0366667,16.12 52.43,16.12 Z M57.02,9.91 L57.02,8.76 L55.72,8.76 L55.72,9.91 L57.02,9.91 Z M56.98,16 L56.98,10.72 L55.77,10.72 L55.77,16 L56.98,16 Z M60.08,16.11 C60.48,16.11 60.82,16.0366667 61.1,15.89 C61.38,15.7433333 61.61,15.5633333 61.79,15.35 L61.79,16 L62.99,16 L62.99,12.87 C62.99,12.1633333 62.8,11.615 62.42,11.225 C62.04,10.835 61.4566667,10.64 60.67,10.64 C60.2366667,10.64 59.8666667,10.68 59.56,10.76 C59.2533333,10.84 58.9533333,10.9466667 58.66,11.08 L58.99,12.05 C59.23,11.95 59.4666667,11.87 59.7,11.81 C59.9333333,11.75 60.2,11.72 60.5,11.72 C60.92,11.72 61.2416667,11.8166667 61.465,12.01 C61.6883333,12.2033333 61.8,12.4833333 61.8,12.85 L61.8,12.98 C61.5933333,12.9133333 61.3783333,12.86 61.155,12.82 C60.9316667,12.78 60.66,12.76 60.34,12.76 C60.0333333,12.76 59.7483333,12.795 59.485,12.865 C59.2216667,12.935 58.995,13.04 58.805,13.18 C58.615,13.32 58.4666667,13.4966667 58.36,13.71 C58.2533333,13.9233333 58.2,14.1733333 58.2,14.46 L58.2,14.48 C58.2,14.7466667 58.2516667,14.9816667 58.355,15.185 C58.4583333,15.3883333 58.595,15.5583333 58.765,15.695 C58.935,15.8316667 59.1333333,15.935 59.36,16.005 C59.5866667,16.075 59.8266667,16.11 60.08,16.11 Z M60.42,15.2 C60.1333333,15.2 59.8916667,15.1333333 59.695,15 C59.4983333,14.8666667 59.4,14.6733333 59.4,14.42 L59.4,14.4 C59.4,14.1266667 59.5066667,13.9166667 59.72,13.77 C59.9333333,13.6233333 60.23,13.55 60.61,13.55 C60.8433333,13.55 61.065,13.57 61.275,13.61 C61.485,13.65 61.6666667,13.7 61.82,13.76 L61.82,14.09 C61.82,14.2566667 61.785,14.4083333 61.715,14.545 C61.645,14.6816667 61.5466667,14.7983333 61.42,14.895 C61.2933333,14.9916667 61.145,15.0666667 60.975,15.12 C60.805,15.1733333 60.62,15.2 60.42,15.2 Z M69.87,16.12 C70.3833333,16.12 70.8066667,16.0283333 71.14,15.845 C71.4733333,15.6616667 71.77,15.4233333 72.03,15.13 L71.3,14.41 C71.1066667,14.6033333 70.9016667,14.7616667 70.685,14.885 C70.4683333,15.0083333 70.2166667,15.07 69.93,15.07 C69.6966667,15.07 69.4833333,15.025 69.29,14.935 C69.0966667,14.845 68.93,14.7233333 68.79,14.57 C68.65,14.4166667 68.5416667,14.2366667 68.465,14.03 C68.3883333,13.8233333 68.35,13.6 68.35,13.36 C68.35,13.1266667 68.3883333,12.9083333 68.465,12.705 C68.5416667,12.5016667 68.6466667,12.3233333 68.78,12.17 C68.9133333,12.0166667 69.0733333,11.895 69.26,11.805 C69.4466667,11.715 69.65,11.67 69.87,11.67 C70.1766667,11.67 70.435,11.7316667 70.645,11.855 C70.855,11.9783333 71.0533333,12.1366667 71.24,12.33 L71.99,11.52 C71.7433333,11.2466667 71.455,11.0266667 71.125,10.86 C70.795,10.6933333 70.38,10.61 69.88,10.61 C69.4866667,10.61 69.1216667,10.6833333 68.785,10.83 C68.4483333,10.9766667 68.1583333,11.1766667 67.915,11.43 C67.6716667,11.6833333 67.4816667,11.9766667 67.345,12.31 C67.2083333,12.6433333 67.14,13 67.14,13.38 C67.14,13.76 67.2083333,14.115 67.345,14.445 C67.4816667,14.775 67.6716667,15.065 67.915,15.315 C68.1583333,15.565 68.4466667,15.7616667 68.78,15.905 C69.1133333,16.0483333 69.4766667,16.12 69.87,16.12 Z M75.65,16.12 C76.0566667,16.12 76.4333333,16.0466667 76.78,15.9 C77.1266667,15.7533333 77.425,15.555 77.675,15.305 C77.925,15.055 78.1216667,14.7633333 78.265,14.43 C78.4083333,14.0966667 78.48,13.74 78.48,13.36 C78.48,12.98 78.41,12.6233333 78.27,12.29 C78.13,11.9566667 77.935,11.665 77.685,11.415 C77.435,11.165 77.1383333,10.9683333 76.795,10.825 C76.4516667,10.6816667 76.0766667,10.61 75.67,10.61 C75.2633333,10.61 74.8883333,10.6833333 74.545,10.83 C74.2016667,10.9766667 73.905,11.175 73.655,11.425 C73.405,11.675 73.2083333,11.9683333 73.065,12.305 C72.9216667,12.6416667 72.85,13 72.85,13.38 C72.85,13.76 72.92,14.115 73.06,14.445 C73.2,14.775 73.395,15.065 73.645,15.315 C73.895,15.565 74.1916667,15.7616667 74.535,15.905 C74.8783333,16.0483333 75.25,16.12 75.65,16.12 Z M75.67,15.07 C75.4366667,15.07 75.2216667,15.025 75.025,14.935 C74.8283333,14.845 74.6583333,14.7233333 74.515,14.57 C74.3716667,14.4166667 74.26,14.235 74.18,14.025 C74.1,13.815 74.06,13.5933333 74.06,13.36 C74.06,13.1266667 74.0966667,12.9083333 74.17,12.705 C74.2433333,12.5016667 74.35,12.3233333 74.49,12.17 C74.63,12.0166667 74.7983333,11.895 74.995,11.805 C75.1916667,11.715 75.41,11.67 75.65,11.67 C75.89,11.67 76.1083333,11.715 76.305,11.805 C76.5016667,11.895 76.6716667,12.0183333 76.815,12.175 C76.9583333,12.3316667 77.07,12.5133333 77.15,12.72 C77.23,12.9266667 77.27,13.1466667 77.27,13.38 C77.27,13.6133333 77.2333333,13.8316667 77.16,14.035 C77.0866667,14.2383333 76.98,14.4166667 76.84,14.57 C76.7,14.7233333 76.5316667,14.845 76.335,14.935 C76.1383333,15.025 75.9166667,15.07 75.67,15.07 Z M80.92,16 L80.92,13.02 C80.92,12.6066667 81.03,12.285 81.25,12.055 C81.47,11.825 81.7566667,11.71 82.11,11.71 C82.47,11.71 82.7483333,11.8216667 82.945,12.045 C83.1416667,12.2683333 83.24,12.5866667 83.24,13 L83.24,16 L84.45,16 L84.45,12.64 C84.45,12.02 84.2866667,11.5266667 83.96,11.16 C83.6333333,10.7933333 83.17,10.61 82.57,10.61 C82.3633333,10.61 82.1783333,10.635 82.015,10.685 C81.8516667,10.735 81.7016667,10.8033333 81.565,10.89 C81.4283333,10.9766667 81.3083333,11.075 81.205,11.185 C81.1016667,11.295 81.0066667,11.4133333 80.92,11.54 L80.92,10.72 L79.71,10.72 L79.71,16 L80.92,16 Z M90.68,16.09 C90.9066667,16.09 91.1066667,16.0666667 91.28,16.02 C91.4533333,15.9733333 91.6166667,15.9066667 91.77,15.82 L91.77,14.83 C91.53,14.95 91.28,15.01 91.02,15.01 C90.8133333,15.01 90.6533333,14.9583333 90.54,14.855 C90.4266667,14.7516667 90.37,14.5833333 90.37,14.35 L90.37,11.76 L91.79,11.76 L91.79,10.72 L90.37,10.72 L90.37,9.27 L89.16,9.27 L89.16,10.72 L88.49,10.72 L88.49,11.76 L89.16,11.76 L89.16,14.54 C89.16,14.8333333 89.1966667,15.0783333 89.27,15.275 C89.3433333,15.4716667 89.4483333,15.63 89.585,15.75 C89.7216667,15.87 89.8833333,15.9566667 90.07,16.01 C90.2566667,16.0633333 90.46,16.09 90.68,16.09 Z M94.83,16.11 C95.2366667,16.11 95.57,16.0183333 95.83,15.835 C96.09,15.6516667 96.3066667,15.4333333 96.48,15.18 L96.48,16 L97.69,16 L97.69,10.72 L96.48,10.72 L96.48,13.7 C96.48,14.1133333 96.37,14.435 96.15,14.665 C95.93,14.895 95.6433333,15.01 95.29,15.01 C94.93,15.01 94.6516667,14.8983333 94.455,14.675 C94.2583333,14.4516667 94.16,14.1333333 94.16,13.72 L94.16,10.72 L92.95,10.72 L92.95,14.08 C92.95,14.7 93.1133333,15.1933333 93.44,15.56 C93.7666667,15.9266667 94.23,16.11 94.83,16.11 Z M105.6,16.12 C105.926667,16.12 106.225,16.0916667 106.495,16.035 C106.765,15.9783333 107.013333,15.895 107.24,15.785 C107.466667,15.675 107.678333,15.545 107.875,15.395 C108.071667,15.245 108.26,15.0733333 108.44,14.88 L107.65,14.08 C107.35,14.36 107.046667,14.5816667 106.74,14.745 C106.433333,14.9083333 106.066667,14.99 105.64,14.99 C105.306667,14.99 104.998333,14.925 104.715,14.795 C104.431667,14.665 104.186667,14.4866667 103.98,14.26 C103.773333,14.0333333 103.613333,13.7683333 103.5,13.465 C103.386667,13.1616667 103.33,12.8366667 103.33,12.49 C103.33,12.1433333 103.386667,11.82 103.5,11.52 C103.613333,11.22 103.773333,10.9583333 103.98,10.735 C104.186667,10.5116667 104.431667,10.335 104.715,10.205 C104.998333,10.075 105.306667,10.01 105.64,10.01 C106.04,10.01 106.396667,10.09 106.71,10.25 C107.023333,10.41 107.32,10.62 107.6,10.88 L108.39,9.97 C108.223333,9.81 108.046667,9.66333333 107.86,9.53 C107.673333,9.39666667 107.47,9.28166667 107.25,9.185 C107.03,9.08833333 106.788333,9.01333333 106.525,8.96 C106.261667,8.90666667 105.97,8.88 105.65,8.88 C105.116667,8.88 104.63,8.975 104.19,9.165 C103.75,9.355 103.37,9.615 103.05,9.945 C102.73,10.275 102.481667,10.66 102.305,11.1 C102.128333,11.54 102.04,12.01 102.04,12.51 C102.04,13.0166667 102.13,13.49 102.31,13.93 C102.49,14.37 102.738333,14.7516667 103.055,15.075 C103.371667,15.3983333 103.746667,15.6533333 104.18,15.84 C104.613333,16.0266667 105.086667,16.12 105.6,16.12 Z M111.41,16.11 C111.816667,16.11 112.15,16.0183333 112.41,15.835 C112.67,15.6516667 112.886667,15.4333333 113.06,15.18 L113.06,16 L114.27,16 L114.27,10.72 L113.06,10.72 L113.06,13.7 C113.06,14.1133333 112.95,14.435 112.73,14.665 C112.51,14.895 112.223333,15.01 111.87,15.01 C111.51,15.01 111.231667,14.8983333 111.035,14.675 C110.838333,14.4516667 110.74,14.1333333 110.74,13.72 L110.74,10.72 L109.53,10.72 L109.53,14.08 C109.53,14.7 109.693333,15.1933333 110.02,15.56 C110.346667,15.9266667 110.81,16.11 111.41,16.11 Z M118.21,16.12 C118.696667,16.12 119.115,16.03 119.465,15.85 C119.815,15.67 120.116667,15.43 120.37,15.13 L119.66,14.5 C119.446667,14.7066667 119.23,14.8633333 119.01,14.97 C118.79,15.0766667 118.53,15.13 118.23,15.13 C117.836667,15.13 117.503333,15.015 117.23,14.785 C116.956667,14.555 116.783333,14.2233333 116.71,13.79 L120.59,13.79 C120.596667,13.73 120.601667,13.6733333 120.605,13.62 C120.608333,13.5666667 120.61,13.5133333 120.61,13.46 C120.61,13.08 120.556667,12.7166667 120.45,12.37 C120.343333,12.0233333 120.185,11.72 119.975,11.46 C119.765,11.2 119.501667,10.9933333 119.185,10.84 C118.868333,10.6866667 118.5,10.61 118.08,10.61 C117.7,10.61 117.353333,10.6833333 117.04,10.83 C116.726667,10.9766667 116.455,11.175 116.225,11.425 C115.995,11.675 115.816667,11.9666667 115.69,12.3 C115.563333,12.6333333 115.5,12.99 115.5,13.37 C115.5,13.7833333 115.57,14.1583333 115.71,14.495 C115.85,14.8316667 116.041667,15.12 116.285,15.36 C116.528333,15.6 116.815,15.7866667 117.145,15.92 C117.475,16.0533333 117.83,16.12 118.21,16.12 Z M119.41,12.99 L116.7,12.99 C116.753333,12.5766667 116.901667,12.2416667 117.145,11.985 C117.388333,11.7283333 117.696667,11.6 118.07,11.6 C118.27,11.6 118.448333,11.6366667 118.605,11.71 C118.761667,11.7833333 118.896667,11.8816667 119.01,12.005 C119.123333,12.1283333 119.213333,12.275 119.28,12.445 C119.346667,12.615 119.39,12.7966667 119.41,12.99 Z M123.04,16 L123.04,13.02 C123.04,12.6066667 123.15,12.285 123.37,12.055 C123.59,11.825 123.876667,11.71 124.23,11.71 C124.59,11.71 124.868333,11.8216667 125.065,12.045 C125.261667,12.2683333 125.36,12.5866667 125.36,13 L125.36,16 L126.57,16 L126.57,12.64 C126.57,12.02 126.406667,11.5266667 126.08,11.16 C125.753333,10.7933333 125.29,10.61 124.69,10.61 C124.483333,10.61 124.298333,10.635 124.135,10.685 C123.971667,10.735 123.821667,10.8033333 123.685,10.89 C123.548333,10.9766667 123.428333,11.075 123.325,11.185 C123.221667,11.295 123.126667,11.4133333 123.04,11.54 L123.04,10.72 L121.83,10.72 L121.83,16 L123.04,16 Z M129.8,16.09 C130.026667,16.09 130.226667,16.0666667 130.4,16.02 C130.573333,15.9733333 130.736667,15.9066667 130.89,15.82 L130.89,14.83 C130.65,14.95 130.4,15.01 130.14,15.01 C129.933333,15.01 129.773333,14.9583333 129.66,14.855 C129.546667,14.7516667 129.49,14.5833333 129.49,14.35 L129.49,11.76 L130.91,11.76 L130.91,10.72 L129.49,10.72 L129.49,9.27 L128.28,9.27 L128.28,10.72 L127.61,10.72 L127.61,11.76 L128.28,11.76 L128.28,14.54 C128.28,14.8333333 128.316667,15.0783333 128.39,15.275 C128.463333,15.4716667 128.568333,15.63 128.705,15.75 C128.841667,15.87 129.003333,15.9566667 129.19,16.01 C129.376667,16.0633333 129.58,16.09 129.8,16.09 Z M133.65,16.11 C134.05,16.11 134.39,16.0366667 134.67,15.89 C134.95,15.7433333 135.18,15.5633333 135.36,15.35 L135.36,16 L136.56,16 L136.56,12.87 C136.56,12.1633333 136.37,11.615 135.99,11.225 C135.61,10.835 135.026667,10.64 134.24,10.64 C133.806667,10.64 133.436667,10.68 133.13,10.76 C132.823333,10.84 132.523333,10.9466667 132.23,11.08 L132.56,12.05 C132.8,11.95 133.036667,11.87 133.27,11.81 C133.503333,11.75 133.77,11.72 134.07,11.72 C134.49,11.72 134.811667,11.8166667 135.035,12.01 C135.258333,12.2033333 135.37,12.4833333 135.37,12.85 L135.37,12.98 C135.163333,12.9133333 134.948333,12.86 134.725,12.82 C134.501667,12.78 134.23,12.76 133.91,12.76 C133.603333,12.76 133.318333,12.795 133.055,12.865 C132.791667,12.935 132.565,13.04 132.375,13.18 C132.185,13.32 132.036667,13.4966667 131.93,13.71 C131.823333,13.9233333 131.77,14.1733333 131.77,14.46 L131.77,14.48 C131.77,14.7466667 131.821667,14.9816667 131.925,15.185 C132.028333,15.3883333 132.165,15.5583333 132.335,15.695 C132.505,15.8316667 132.703333,15.935 132.93,16.005 C133.156667,16.075 133.396667,16.11 133.65,16.11 Z M133.99,15.2 C133.703333,15.2 133.461667,15.1333333 133.265,15 C133.068333,14.8666667 132.97,14.6733333 132.97,14.42 L132.97,14.4 C132.97,14.1266667 133.076667,13.9166667 133.29,13.77 C133.503333,13.6233333 133.8,13.55 134.18,13.55 C134.413333,13.55 134.635,13.57 134.845,13.61 C135.055,13.65 135.236667,13.7 135.39,13.76 L135.39,14.09 C135.39,14.2566667 135.355,14.4083333 135.285,14.545 C135.215,14.6816667 135.116667,14.7983333 134.99,14.895 C134.863333,14.9916667 134.715,15.0666667 134.545,15.12 C134.375,15.1733333 134.19,15.2 133.99,15.2 Z M144.4,8.47 L145.62,7.32 L144.52,6.83 L143.46,8.47 L144.4,8.47 Z M144.01,16.11 C144.47,16.11 144.885,16.045 145.255,15.915 C145.625,15.785 145.94,15.5883333 146.2,15.325 C146.46,15.0616667 146.661667,14.7333333 146.805,14.34 C146.948333,13.9466667 147.02,13.49 147.02,12.97 L147.02,9 L145.79,9 L145.79,13.03 C145.79,13.6766667 145.633333,14.1633333 145.32,14.49 C145.006667,14.8166667 144.576667,14.98 144.03,14.98 C143.476667,14.98 143.043333,14.81 142.73,14.47 C142.416667,14.13 142.26,13.6333333 142.26,12.98 L142.26,9 L141.03,9 L141.03,13.03 C141.03,13.5366667 141.1,13.9816667 141.24,14.365 C141.38,14.7483333 141.58,15.07 141.84,15.33 C142.1,15.59 142.413333,15.785 142.78,15.915 C143.146667,16.045 143.556667,16.11 144.01,16.11 Z M149.78,16 L149.78,13.02 C149.78,12.6066667 149.89,12.285 150.11,12.055 C150.33,11.825 150.616667,11.71 150.97,11.71 C151.33,11.71 151.608333,11.8216667 151.805,12.045 C152.001667,12.2683333 152.1,12.5866667 152.1,13 L152.1,16 L153.31,16 L153.31,12.64 C153.31,12.02 153.146667,11.5266667 152.82,11.16 C152.493333,10.7933333 152.03,10.61 151.43,10.61 C151.223333,10.61 151.038333,10.635 150.875,10.685 C150.711667,10.735 150.561667,10.8033333 150.425,10.89 C150.288333,10.9766667 150.168333,11.075 150.065,11.185 C149.961667,11.295 149.866667,11.4133333 149.78,11.54 L149.78,10.72 L148.57,10.72 L148.57,16 L149.78,16 Z M156.09,9.91 L156.09,8.76 L154.79,8.76 L154.79,9.91 L156.09,9.91 Z M156.05,16 L156.05,10.72 L154.84,10.72 L154.84,16 L156.05,16 Z M160.07,16.12 C160.583333,16.12 161.006667,16.0283333 161.34,15.845 C161.673333,15.6616667 161.97,15.4233333 162.23,15.13 L161.5,14.41 C161.306667,14.6033333 161.101667,14.7616667 160.885,14.885 C160.668333,15.0083333 160.416667,15.07 160.13,15.07 C159.896667,15.07 159.683333,15.025 159.49,14.935 C159.296667,14.845 159.13,14.7233333 158.99,14.57 C158.85,14.4166667 158.741667,14.2366667 158.665,14.03 C158.588333,13.8233333 158.55,13.6 158.55,13.36 C158.55,13.1266667 158.588333,12.9083333 158.665,12.705 C158.741667,12.5016667 158.846667,12.3233333 158.98,12.17 C159.113333,12.0166667 159.273333,11.895 159.46,11.805 C159.646667,11.715 159.85,11.67 160.07,11.67 C160.376667,11.67 160.635,11.7316667 160.845,11.855 C161.055,11.9783333 161.253333,12.1366667 161.44,12.33 L162.19,11.52 C161.943333,11.2466667 161.655,11.0266667 161.325,10.86 C160.995,10.6933333 160.58,10.61 160.08,10.61 C159.686667,10.61 159.321667,10.6833333 158.985,10.83 C158.648333,10.9766667 158.358333,11.1766667 158.115,11.43 C157.871667,11.6833333 157.681667,11.9766667 157.545,12.31 C157.408333,12.6433333 157.34,13 157.34,13.38 C157.34,13.76 157.408333,14.115 157.545,14.445 C157.681667,14.775 157.871667,15.065 158.115,15.315 C158.358333,15.565 158.646667,15.7616667 158.98,15.905 C159.313333,16.0483333 159.676667,16.12 160.07,16.12 Z M164.86,16.11 C165.26,16.11 165.6,16.0366667 165.88,15.89 C166.16,15.7433333 166.39,15.5633333 166.57,15.35 L166.57,16 L167.77,16 L167.77,12.87 C167.77,12.1633333 167.58,11.615 167.2,11.225 C166.82,10.835 166.236667,10.64 165.45,10.64 C165.016667,10.64 164.646667,10.68 164.34,10.76 C164.033333,10.84 163.733333,10.9466667 163.44,11.08 L163.77,12.05 C164.01,11.95 164.246667,11.87 164.48,11.81 C164.713333,11.75 164.98,11.72 165.28,11.72 C165.7,11.72 166.021667,11.8166667 166.245,12.01 C166.468333,12.2033333 166.58,12.4833333 166.58,12.85 L166.58,12.98 C166.373333,12.9133333 166.158333,12.86 165.935,12.82 C165.711667,12.78 165.44,12.76 165.12,12.76 C164.813333,12.76 164.528333,12.795 164.265,12.865 C164.001667,12.935 163.775,13.04 163.585,13.18 C163.395,13.32 163.246667,13.4966667 163.14,13.71 C163.033333,13.9233333 162.98,14.1733333 162.98,14.46 L162.98,14.48 C162.98,14.7466667 163.031667,14.9816667 163.135,15.185 C163.238333,15.3883333 163.375,15.5583333 163.545,15.695 C163.715,15.8316667 163.913333,15.935 164.14,16.005 C164.366667,16.075 164.606667,16.11 164.86,16.11 Z M165.2,15.2 C164.913333,15.2 164.671667,15.1333333 164.475,15 C164.278333,14.8666667 164.18,14.6733333 164.18,14.42 L164.18,14.4 C164.18,14.1266667 164.286667,13.9166667 164.5,13.77 C164.713333,13.6233333 165.01,13.55 165.39,13.55 C165.623333,13.55 165.845,13.57 166.055,13.61 C166.265,13.65 166.446667,13.7 166.6,13.76 L166.6,14.09 C166.6,14.2566667 166.565,14.4083333 166.495,14.545 C166.425,14.6816667 166.326667,14.7983333 166.2,14.895 C166.073333,14.9916667 165.925,15.0666667 165.755,15.12 C165.585,15.1733333 165.4,15.2 165.2,15.2 Z" id="IniciacontuCuentaÚnica" fill="#FFFFFF" fill-rule="nonzero"></path>
            <path d="M71.3375,31 L71.3375,29.25 L66.975,29.25 L66.975,22.25 L65.05,22.25 L65.05,31 L71.3375,31 Z M74.575,31 L74.575,21.875 L72.675,21.875 L72.675,31 L74.575,31 Z M78.2625,31.125 C78.7291667,31.125 79.125,31.0479167 79.45,30.89375 C79.775,30.7395833 80.0541667,30.5333333 80.2875,30.275 L80.2875,31 L82.125,31 L82.125,27.1125 C82.125,26.2041667 81.8875,25.4958333 81.4125,24.9875 C80.9375,24.4791667 80.1791667,24.225 79.1375,24.225 C78.5708333,24.225 78.0875,24.275 77.6875,24.375 C77.2875,24.475 76.9041667,24.6041667 76.5375,24.7625 L77.0125,26.2125 C77.3208333,26.0958333 77.6145833,26.00625 77.89375,25.94375 C78.1729167,25.88125 78.4958333,25.85 78.8625,25.85 C79.3375,25.85 79.6958333,25.9541667 79.9375,26.1625 C80.1791667,26.3708333 80.3,26.675 80.3,27.075 L80.3,27.1875 C80.0583333,27.1041667 79.8104167,27.0375 79.55625,26.9875 C79.3020833,26.9375 79.0041667,26.9125 78.6625,26.9125 C78.2625,26.9125 77.8979167,26.95625 77.56875,27.04375 C77.2395833,27.13125 76.95625,27.2625 76.71875,27.4375 C76.48125,27.6125 76.2958333,27.8333333 76.1625,28.1 C76.0291667,28.3666667 75.9625,28.6833333 75.9625,29.05 L75.9625,29.075 C75.9625,29.4083333 76.0229167,29.7020833 76.14375,29.95625 C76.2645833,30.2104167 76.4291667,30.425 76.6375,30.6 C76.8458333,30.775 77.0895833,30.90625 77.36875,30.99375 C77.6479167,31.08125 77.9458333,31.125 78.2625,31.125 Z M78.8375,29.8125 C78.5291667,29.8125 78.2791667,29.7416667 78.0875,29.6 C77.8958333,29.4583333 77.8,29.2583333 77.8,29 L77.8,28.975 C77.8,28.675 77.9166667,28.4458333 78.15,28.2875 C78.3833333,28.1291667 78.7041667,28.05 79.1125,28.05 C79.3458333,28.05 79.5645833,28.0729167 79.76875,28.11875 C79.9729167,28.1645833 80.1583333,28.225 80.325,28.3 L80.325,28.6375 C80.325,28.9875 80.1895833,29.2708333 79.91875,29.4875 C79.6479167,29.7041667 79.2875,29.8125 78.8375,29.8125 Z M87.525,31.05 L90.1625,24.3 L88.1875,24.3 L86.675,28.7875 L85.175,24.3 L83.1625,24.3 L85.8,31.05 L87.525,31.05 Z M94.4375,31.15 C95.0458333,31.15 95.575,31.0395833 96.025,30.81875 C96.475,30.5979167 96.8583333,30.2916667 97.175,29.9 L96.0875,28.9375 C95.8208333,29.1791667 95.5625,29.3541667 95.3125,29.4625 C95.0625,29.5708333 94.7791667,29.625 94.4625,29.625 C94.0375,29.625 93.68125,29.5145833 93.39375,29.29375 C93.10625,29.0729167 92.9166667,28.7458333 92.825,28.3125 L97.4875,28.3125 C97.4958333,28.2208333 97.5020833,28.1416667 97.50625,28.075 C97.5104167,28.0083333 97.5125,27.9291667 97.5125,27.8375 L97.5125,27.8125 C97.5125,27.3375 97.4479167,26.88125 97.31875,26.44375 C97.1895833,26.00625 96.9895833,25.61875 96.71875,25.28125 C96.4479167,24.94375 96.1083333,24.675 95.7,24.475 C95.2916667,24.275 94.8083333,24.175 94.25,24.175 C93.7583333,24.175 93.3104167,24.2666667 92.90625,24.45 C92.5020833,24.6333333 92.1541667,24.8833333 91.8625,25.2 C91.5708333,25.5166667 91.34375,25.8875 91.18125,26.3125 C91.01875,26.7375 90.9375,27.1875 90.9375,27.6625 L90.9375,27.6875 C90.9375,28.2041667 91.025,28.6729167 91.2,29.09375 C91.375,29.5145833 91.61875,29.8791667 91.93125,30.1875 C92.24375,30.4958333 92.6145833,30.7333333 93.04375,30.9 C93.4729167,31.0666667 93.9375,31.15 94.4375,31.15 Z M95.6625,27.125 L92.8,27.125 C92.875,26.6916667 93.0354167,26.3458333 93.28125,26.0875 C93.5270833,25.8291667 93.85,25.7 94.25,25.7 C94.65,25.7 94.9708333,25.83125 95.2125,26.09375 C95.4541667,26.35625 95.6041667,26.7 95.6625,27.125 Z M106.975,31.15 C107.4,31.15 107.783333,31.1145833 108.125,31.04375 C108.466667,30.9729167 108.78125,30.86875 109.06875,30.73125 C109.35625,30.59375 109.620833,30.4291667 109.8625,30.2375 C110.104167,30.0458333 110.3375,29.8291667 110.5625,29.5875 L109.3375,28.35 C108.995833,28.6666667 108.652083,28.9166667 108.30625,29.1 C107.960417,29.2833333 107.5375,29.375 107.0375,29.375 C106.6625,29.375 106.31875,29.3020833 106.00625,29.15625 C105.69375,29.0104167 105.427083,28.8125 105.20625,28.5625 C104.985417,28.3125 104.8125,28.0208333 104.6875,27.6875 C104.5625,27.3541667 104.5,27 104.5,26.625 L104.5,26.6 C104.5,26.225 104.5625,25.8729167 104.6875,25.54375 C104.8125,25.2145833 104.9875,24.925 105.2125,24.675 C105.4375,24.425 105.70625,24.2291667 106.01875,24.0875 C106.33125,23.9458333 106.670833,23.875 107.0375,23.875 C107.479167,23.875 107.877083,23.9625 108.23125,24.1375 C108.585417,24.3125 108.933333,24.5541667 109.275,24.8625 L110.5,23.45 C110.3,23.25 110.083333,23.0666667 109.85,22.9 C109.616667,22.7333333 109.3625,22.5916667 109.0875,22.475 C108.8125,22.3583333 108.50625,22.2666667 108.16875,22.2 C107.83125,22.1333333 107.458333,22.1 107.05,22.1 C106.375,22.1 105.758333,22.21875 105.2,22.45625 C104.641667,22.69375 104.1625,23.01875 103.7625,23.43125 C103.3625,23.84375 103.05,24.3229167 102.825,24.86875 C102.6,25.4145833 102.4875,26 102.4875,26.625 L102.4875,26.65 C102.4875,27.275 102.6,27.8625 102.825,28.4125 C103.05,28.9625 103.3625,29.4395833 103.7625,29.84375 C104.1625,30.2479167 104.6375,30.5666667 105.1875,30.8 C105.7375,31.0333333 106.333333,31.15 106.975,31.15 Z M115.5125,31 C116.195833,31 116.822917,30.8875 117.39375,30.6625 C117.964583,30.4375 118.45625,30.1291667 118.86875,29.7375 C119.28125,29.3458333 119.6,28.8833333 119.825,28.35 C120.05,27.8166667 120.1625,27.2416667 120.1625,26.625 L120.1625,26.6 C120.1625,25.9833333 120.05,25.4104167 119.825,24.88125 C119.6,24.3520833 119.28125,23.8916667 118.86875,23.5 C118.45625,23.1083333 117.964583,22.8020833 117.39375,22.58125 C116.822917,22.3604167 116.195833,22.25 115.5125,22.25 L112.1,22.25 L112.1,31 L115.5125,31 Z M115.5125,29.2625 L114.025,29.2625 L114.025,23.9875 L115.5125,23.9875 C115.904167,23.9875 116.2625,24.0520833 116.5875,24.18125 C116.9125,24.3104167 117.189583,24.4916667 117.41875,24.725 C117.647917,24.9583333 117.827083,25.2375 117.95625,25.5625 C118.085417,25.8875 118.15,26.2416667 118.15,26.625 L118.15,26.65 C118.15,27.0416667 118.085417,27.3958333 117.95625,27.7125 C117.827083,28.0291667 117.647917,28.3041667 117.41875,28.5375 C117.189583,28.7708333 116.9125,28.95 116.5875,29.075 C116.2625,29.2 115.904167,29.2625 115.5125,29.2625 Z M123.7625,31 L123.7625,25.325 L126.2,29.025 L126.25,29.025 L128.7125,25.2875 L128.7125,31 L130.625,31 L130.625,22.25 L128.55,22.25 L126.25,25.95 L123.95,22.25 L121.875,22.25 L121.875,31 L123.7625,31 Z M134.25,31 L136.225,28 L138.1875,31 L140.4375,31 L137.3875,26.525 L140.3125,22.25 L138.125,22.25 L136.275,25.0875 L134.4375,22.25 L132.1875,22.25 L135.1125,26.55 L132.0625,31 L134.25,31 Z" id="LlaveCDMX" fill="#FEFEFE" fill-rule="nonzero"></path>
            <g id="Group-Copy" transform="translate(7.000000, 5.000000)" fill="#FFFFFF">
                <path d="M9.14737372,16.4513514 C9.30384217,16.6881081 9.52061617,16.7951351 9.82540367,16.8032432 C10.240208,16.812973 10.5058784,16.4083784 10.5058784,16.4083784 L17.3839707,7.63945946 C17.9519837,7.05081081 18.5118474,7.52675676 18.5118474,7.52675676 C19.0562272,8.09189189 18.6503872,8.60918919 18.6503872,8.60918919 L17.1117808,10.5672973 L17.1117808,10.577027 C16.9797605,10.7132432 16.8982665,10.8972973 16.8982665,11.1008108 C16.8982665,11.2872973 16.9667215,11.4575676 17.0791832,11.5889189 L17.0791832,11.5921622 L18.6267539,13.5445946 L23.502539,7.37432432 L21.5540178,4.90378378 L21.1946294,4.43837838 C20.8784327,3.98594595 20.1718799,3.88135135 20.1718799,3.88135135 L17.2527654,3.88135135 C16.4785725,3.88135135 16.0572486,4.41405405 16.0572486,4.41405405 L7.88095721,14.8524324 L9.14737372,16.4513514 Z" id="Fill-32"></path>
                <path d="M8.80077981,11.1003243 L6.84492419,8.60464865 C6.44723355,7.96735135 7.02747072,7.51086486 7.02747072,7.51086486 C7.75765681,7.08681081 8.18142553,7.74032432 8.18142553,7.74032432 L9.79989605,9.80789189 L11.7150047,7.35356757 L9.50651771,4.52708108 C8.97925163,3.77627027 8.17572095,3.88086486 8.17572095,3.88086486 L5.53857563,3.88086486 C4.69429796,3.88086486 4.33164973,4.40302703 4.33164973,4.40302703 L1.99929191,7.34789189 L6.87507697,13.5441081 L8.80077981,11.1003243 Z" id="Fill-33"></path>
                <path d="M16.3385659,13.2271622 C16.3385659,13.2271622 16.1136425,12.8809459 15.6800945,12.8873424 C15.2286178,12.8939189 15.0468862,13.1931081 15.0468862,13.1931081 L8.0978942,22.0714865 C7.53477077,22.6868919 6.92927047,22.1922973 6.92927047,22.1922973 C6.38570559,21.6263514 6.83147769,21.1025676 6.83147769,21.1025676 L8.38964266,19.1112162 L8.3904576,19.1006757 C8.52166291,18.9652703 8.6031569,18.7804054 8.6031569,18.5768919 C8.6031569,18.3912162 8.53470195,18.2201351 8.42224025,18.0895946 L8.42224025,18.0855405 L6.8746695,16.1339189 L1.98340058,22.3731081 L4.71018928,25.8077027 L8.9959579,25.8182432 L17.6147616,14.8512162 L16.3385659,13.2271622 Z" id="Fill-34"></path>
                <path d="M16.6978728,18.5777838 L18.6700272,21.1026486 C19.1247637,21.7294054 18.551046,22.1923784 18.551046,22.1923784 C17.7939669,22.6983243 17.3310811,21.9426486 17.3310811,21.9426486 L15.680013,19.8564324 L13.7649043,22.3115676 L16.5275504,25.8288649 L20.7807214,25.8183243 L23.5075101,22.3407568 L18.6211308,16.1307568 L16.6978728,18.5777838 Z" id="Fill-35"></path>
                <path d="M23.4712453,12.9202703 C22.3808558,12.9202703 21.4933863,13.7918919 21.4933863,14.862973 C21.4933863,15.9332432 22.3808558,16.8048649 23.4712453,16.8048649 C24.5616348,16.8048649 25.4491043,15.9332432 25.4491043,14.862973 C25.4491043,13.7918919 24.5616348,12.9202703 23.4712453,12.9202703 M23.4712453,15.9072973 C22.8975277,15.9072973 22.4313821,15.4386486 22.4313821,14.862973 C22.4313821,14.2864865 22.8975277,13.8178378 23.4712453,13.8178378 C24.0449629,13.8178378 24.5111085,14.2864865 24.5111085,14.862973 C24.5111085,15.4386486 24.0449629,15.9072973 23.4712453,15.9072973" id="Fill-36"></path>
                <path d="M12.7389766,3.88459459 C13.8293661,3.88459459 14.7168356,3.01297297 14.7168356,1.94189189 C14.7168356,0.871621622 13.8293661,-3.99680289e-14 12.7389766,-3.99680289e-14 C11.6485871,-3.99680289e-14 10.7611176,0.871621622 10.7611176,1.94189189 C10.7611176,3.01297297 11.6485871,3.88459459 12.7389766,3.88459459 M12.7389766,0.898378378 C13.3126942,0.898378378 13.7788398,1.36621622 13.7788398,1.94189189 C13.7788398,2.51837838 13.3126942,2.98702703 12.7389766,2.98702703 C12.1652589,2.98702703 11.6991133,2.51837838 11.6991133,1.94189189 C11.6991133,1.36621622 12.1652589,0.898378378 12.7389766,0.898378378" id="Fill-37"></path>
                <path d="M3.95571798,14.8555135 C3.95571798,13.7844324 3.0682485,12.9128108 1.97867393,12.9128108 C0.887469485,12.9128108 -1.42108547e-14,13.7844324 -1.42108547e-14,14.8555135 C-1.42108547e-14,15.9257838 0.887469485,16.7974054 1.97867393,16.7974054 C3.0682485,16.7974054 3.95571798,15.9257838 3.95571798,14.8555135 M0.937995755,14.8555135 C0.937995755,14.2798378 1.40495628,13.8111892 1.97867393,13.8111892 C2.55157664,13.8111892 3.01853716,14.2798378 3.01853716,14.8555135 C3.01853716,15.4311892 2.55157664,15.8998378 1.97867393,15.8998378 C1.40495628,15.8998378 0.937995755,15.4311892 0.937995755,14.8555135" id="Fill-38"></path>
                <path d="M12.7417474,25.8299189 C11.6513579,25.8299189 10.7638884,26.7015405 10.7638884,27.7726216 C10.7638884,28.8428919 11.6513579,29.7145135 12.7417474,29.7145135 C13.8321369,29.7145135 14.7187914,28.8428919 14.7187914,27.7726216 C14.7187914,26.7015405 13.8321369,25.8299189 12.7417474,25.8299189 M12.7417474,28.8161351 C12.1680297,28.8161351 11.7018841,28.3482973 11.7018841,27.7726216 C11.7018841,27.1961351 12.1680297,26.7274865 12.7417474,26.7274865 C13.3146501,26.7274865 13.7816106,27.1961351 13.7816106,27.7726216 C13.7816106,28.3482973 13.3146501,28.8161351 12.7417474,28.8161351" id="Fill-39"></path>
            </g>
        </g>
    </g>
</svg>