
<svg xmlns="http://www.w3.org/2000/svg" width="135" height="136" viewBox="0 0 135 136">
    <defs>
        <linearGradient id="a" x1="50%" x2="50%" y1="0%" y2="100%">
            <stop offset="0%" stop-color="#00B140"/>
            <stop offset="100%" stop-color="#009288"/>
        </linearGradient>
    </defs>
    <path fill="url(#a)" fill-rule="evenodd" d="M1162.2 123.147l.077.086 2.723 3.429-7.277 9.338h-6.24l.056-.07h.091l.958-1.17 8.884-11.527s.343-.46.728-.086zm3.328 9.086l2.904 3.767h-6.169l-.263-.338 2.723-3.43c.415-.522.805 0 .805 0zm0-16.99l8.884 11.988.958 1.217h.091l5.753 7.552h-6.317l-5.244-7.02h-.033l-7.62-10.172 2.723-3.566c.415-.544.805 0 .805 0zm32.672 7.904l.077.086 2.723 3.429-7.276 9.338h-6.241l.056-.07h.092l.957-1.17 8.884-11.527s.342-.46.728-.086zm3.328 9.086l2.904 3.767h-6.169l-.263-.338 2.723-3.43c.415-.522.805 0 .805 0zm0-16.99l8.884 11.988.957 1.217h.092l5.753 7.552h-6.317l-5.244-7.02h-.033l-7.62-10.172 2.723-3.566c.415-.544.805 0 .805 0zm32.672 7.904l.077.086 2.723 3.429-7.277 9.338h-6.24l.055-.07h.092l.957-1.17 8.884-11.527s.343-.46.729-.086zm3.328 9.086l2.904 3.767h-6.169l-.263-.338 2.723-3.43c.415-.522.805 0 .805 0zm0-16.99l8.884 11.988.957 1.217h.092l5.753 7.552h-6.318l-5.243-7.02h-.033l-7.62-10.172 2.723-3.566c.415-.544.805 0 .805 0zm32.671 7.904l.078.086 2.723 3.429-7.277 9.338h-6.24l.055-.07h.092l.957-1.17 8.884-11.527s.343-.46.728-.086zm3.329 9.086l2.904 3.767h-6.169l-.263-.338 2.723-3.43c.415-.522.805 0 .805 0zm0-16.99l6.471 8.731v8.147l-2.346-3.142h-.033l-7.62-10.17 2.723-3.567c.415-.544.805 0 .805 0zm-3.329-9.096l.078.086 2.723 3.43-7.62 9.779h-.034l-8.83 11.368c-.308.398-.552.057-.585.006l-.004-.006-2.927-3.627 6.538-8.252h.092l.957-1.17 8.884-11.528s.343-.46.728-.086zm-72 0l.078.086 2.723 3.43-7.62 9.779h-.033l-8.83 11.368c-.308.398-.552.057-.586.006l-.004-.006-2.927-3.627 6.539-8.252h.092l.957-1.17 8.884-11.528s.342-.46.728-.086zm36 0l.078.086 2.723 3.43-7.62 9.779h-.034l-8.83 11.368c-.308.398-.552.057-.585.006l-.004-.006-2.927-3.627 6.538-8.252h.092l.957-1.17 8.884-11.528s.343-.46.729-.086zm-72 0l.078.086 2.723 3.43-7.62 9.779h-.033l-8.83 11.368c-.309.398-.552.057-.586.006l-.004-.006-2.927-3.627 6.539-8.252h.091l.958-1.17 8.884-11.528s.343-.46.728-.086zm39.33-8.914l8.883 11.528.957 1.17h.092l6.539 8.252-2.927 3.627s-.258.428-.59 0l-8.83-11.368h-.033l-7.62-9.78 2.723-3.429c.415-.523.805 0 .805 0zm-36 0l8.883 11.528.958 1.17h.091l6.539 8.252-2.927 3.627s-.258.428-.59 0l-8.83-11.368h-.033l-7.62-9.78 2.723-3.429c.415-.523.805 0 .805 0zm72 0l8.883 11.528.957 1.17h.092l6.539 8.252-2.928 3.627s-.257.428-.59 0l-8.829-11.368h-.033l-7.62-9.78 2.723-3.429c.415-.523.805 0 .805 0zm35.999 0l6.471 8.396v7.833l-2.346-3.02h-.033l-7.62-9.78 2.723-3.429c.415-.523.805 0 .805 0zM1162.2 88.147l.077.086 2.723 3.429-7.62 9.78h-.033l-8.83 11.368c-.309.398-.552.057-.586.006l-.004-.006-2.927-3.627 6.539-8.252h.091l.958-1.17 8.884-11.528s.343-.46.728-.086zm108 0l.077.086 2.723 3.429-7.62 9.78h-.034l-8.83 11.368c-.308.398-.552.057-.585.006l-.004-.006-2.927-3.627 6.538-8.252h.092l.957-1.17 8.884-11.528s.343-.46.728-.086zm-72 0l.077.086 2.723 3.429-7.62 9.78h-.033l-8.83 11.368c-.308.398-.552.057-.586.006l-.004-.006-2.927-3.627 6.539-8.252h.092l.957-1.17 8.884-11.528s.342-.46.728-.086zm36 0l.077.086 2.723 3.429-7.62 9.78h-.034l-8.83 11.368c-.308.398-.552.057-.585.006l-.004-.006-2.927-3.627 6.538-8.252h.092l.957-1.17 8.884-11.528s.343-.46.729-.086zm3.328-7.914l8.884 11.528.957 1.17h.092l6.539 8.252-2.928 3.627s-.257.428-.59 0l-8.829-11.368h-.033l-7.62-9.78 2.723-3.429c.415-.523.805 0 .805 0zm-72 0l8.884 11.528.958 1.17h.091l6.539 8.252-2.927 3.627s-.258.428-.59 0l-8.83-11.368h-.033l-7.62-9.78 2.723-3.429c.415-.523.805 0 .805 0zm36 0l8.884 11.528.957 1.17h.092l6.539 8.252-2.927 3.627s-.258.428-.59 0l-8.83-11.368h-.033l-7.62-9.78 2.723-3.429c.415-.523.805 0 .805 0zm32.672-8.086l.077.086 2.723 3.43-7.62 9.779h-.034l-8.83 11.368c-.308.398-.552.057-.585.006l-.004-.006-2.927-3.627 6.538-8.252h.092l.957-1.17 8.884-11.528s.343-.46.729-.086zm-36 0l.077.086 2.723 3.43-7.62 9.779h-.033l-8.83 11.368c-.308.398-.552.057-.586.006l-.004-.006-2.927-3.627 6.539-8.252h.092l.957-1.17 8.884-11.528s.342-.46.728-.086zm72 0l.077.086 2.723 3.43-7.62 9.779h-.034l-8.83 11.368c-.308.398-.552.057-.585.006l-.004-.006-2.927-3.627 6.538-8.252h.092l.957-1.17 8.884-11.528s.343-.46.728-.086zm-108 0l.077.086 2.723 3.43-7.62 9.779h-.033l-8.83 11.368c-.309.398-.552.057-.586.006l-.004-.006-2.927-3.627 6.539-8.252h.091l.958-1.17 8.884-11.528s.343-.46.728-.086zm111.328 8.086l6.471 8.396v7.833l-2.346-3.02h-.033l-7.62-9.78 2.723-3.429c.415-.523.805 0 .805 0zm-72-17.99l8.884 11.988.957 1.217h.092l6.539 8.583-2.927 3.772s-.258.445-.59 0l-8.83-11.823h-.033L1198 65.809l2.723-3.567c.415-.543.805 0 .805 0zm-36 0l8.884 11.988.958 1.217h.091l6.539 8.583-2.927 3.772s-.258.445-.59 0l-8.83-11.823h-.033L1162 65.809l2.723-3.567c.415-.543.805 0 .805 0zm72 0l8.884 11.988.957 1.217h.092l6.539 8.583-2.928 3.772-.013.02c-.056.083-.288.366-.576-.02l-8.83-11.823h-.033L1234 65.809l2.723-3.567c.415-.543.805 0 .805 0zm36 0l6.471 8.732v8.146l-2.346-3.141h-.033L1270 65.809l2.723-3.567c.415-.543.805 0 .805 0zm-3.329-9.096l.078.086 2.723 3.43-7.62 9.78h-.034l-8.83 11.367c-.308.398-.552.057-.585.006l-.004-.006-2.927-3.626 6.538-8.253h.092l.957-1.17 8.884-11.528s.343-.46.728-.086zm-36 0l.078.086 2.723 3.43-7.62 9.78h-.034l-8.83 11.367c-.308.398-.552.057-.585.006l-.004-.006-2.927-3.626 6.538-8.253h.092l.957-1.17 8.884-11.528s.343-.46.729-.086zm-72 0l.078.086 2.723 3.43-7.62 9.78h-.033l-8.83 11.367c-.309.398-.552.057-.586.006l-.004-.006-2.927-3.626 6.539-8.253h.091l.958-1.17 8.884-11.528s.343-.46.728-.086zm36 0l.078.086 2.723 3.43-7.62 9.78h-.033l-8.83 11.367c-.308.398-.552.057-.586.006l-.004-.006-2.927-3.626 6.539-8.253h.092l.957-1.17 8.884-11.528s.342-.46.728-.086zm-32.67-6.914l8.883 11.528.958 1.17h.091l6.539 8.253-2.927 3.626s-.258.428-.59 0l-8.83-11.368h-.033l-7.62-9.78 2.723-3.429c.415-.523.805 0 .805 0zm72 0l8.883 11.528.957 1.17h.092l6.539 8.253-2.928 3.626s-.257.428-.59 0l-8.829-11.368h-.033l-7.62-9.78 2.723-3.429c.415-.523.805 0 .805 0zm-36 0l8.883 11.528.957 1.17h.092l6.539 8.253-2.927 3.626s-.258.428-.59 0l-8.83-11.368h-.033l-7.62-9.78 2.723-3.429c.415-.523.805 0 .805 0zm71.999 0l6.471 8.396v7.834l-2.346-3.02h-.033l-7.62-9.78 2.723-3.43c.415-.523.805 0 .805 0zM1234.2 36.147l.077.086 2.723 3.43-7.62 9.78h-.034l-8.83 11.367c-.308.398-.552.057-.585.007l-.004-.007-2.927-3.626 6.538-8.253h.092l.957-1.17 8.884-11.528s.343-.46.729-.086zm-72 0l.077.086 2.723 3.43-7.62 9.78h-.033l-8.83 11.367c-.309.398-.552.057-.586.007l-.004-.007-2.927-3.626 6.539-8.253h.091l.958-1.17 8.884-11.528s.343-.46.728-.086zm108 0l.077.086 2.723 3.43-7.62 9.78h-.034l-8.83 11.367c-.308.398-.552.057-.585.007l-.004-.007-2.927-3.626 6.538-8.253h.092l.957-1.17 8.884-11.528s.343-.46.728-.086zm-72 0l.077.086 2.723 3.43-7.62 9.78h-.033l-8.83 11.367c-.308.398-.552.057-.586.007l-.004-.007-2.927-3.626 6.539-8.253h.092l.957-1.17 8.884-11.528s.342-.46.728-.086zm-32.672-7.914l8.884 11.528.958 1.17h.091l6.539 8.253-2.927 3.626s-.258.429-.59 0l-8.83-11.368h-.033l-7.62-9.78 2.723-3.429c.415-.523.805 0 .805 0zm72 0l8.884 11.528.957 1.17h.092l6.539 8.253-2.928 3.626s-.257.429-.59 0l-8.829-11.368h-.033l-7.62-9.78 2.723-3.429c.415-.523.805 0 .805 0zm-36 0l8.884 11.528.957 1.17h.092l6.539 8.253-2.927 3.626s-.258.429-.59 0l-8.83-11.368h-.033l-7.62-9.78 2.723-3.429c.415-.523.805 0 .805 0zm72 0l6.471 8.396v7.834l-2.346-3.02h-.033l-7.62-9.78 2.723-3.43c.415-.523.805 0 .805 0zm-3.329-9.086l.078.086 2.723 3.43-7.62 9.78h-.034l-8.83 11.368c-.308.397-.552.056-.585.006l-.004-.006-2.927-3.627 6.538-8.253h.092l.957-1.17 8.884-11.528s.343-.46.728-.086zm-36 0l.078.086 2.723 3.43-7.62 9.78h-.034l-8.83 11.368c-.308.397-.552.056-.585.006l-.004-.006-2.927-3.627 6.538-8.253h.092l.957-1.17 8.884-11.528s.343-.46.729-.086zm-72 0l.078.086 2.723 3.43-7.62 9.78h-.033l-8.83 11.368c-.309.397-.552.056-.586.006l-.004-.006-2.927-3.627 6.539-8.253h.091l.958-1.17 8.884-11.528s.343-.46.728-.086zm36 0l.078.086 2.723 3.43-7.62 9.78h-.033l-8.83 11.368c-.308.397-.552.056-.586.006l-.004-.006-2.927-3.627 6.539-8.253h.092l.957-1.17 8.884-11.528s.342-.46.728-.086zm39.33-7.914l8.883 11.528.957 1.17h.092l6.539 8.253-2.928 3.627s-.257.428-.59 0l-8.829-11.369h-.033l-7.62-9.78 2.723-3.429c.415-.523.805 0 .805 0zm-36 0l8.883 11.528.957 1.17h.092l6.539 8.253-2.927 3.627s-.258.428-.59 0l-8.83-11.369h-.033l-7.62-9.78 2.723-3.429c.415-.523.805 0 .805 0zm-36 0l8.883 11.528.958 1.17h.091l6.539 8.253-2.927 3.627s-.258.428-.59 0l-8.83-11.369h-.033l-7.62-9.78 2.723-3.429c.415-.523.805 0 .805 0zm107.999 0l6.471 8.397v7.833l-2.346-3.02h-.033l-7.62-9.78 2.723-3.43c.415-.523.805 0 .805 0zM1162.2 2.147l.077.086 2.723 3.43-7.62 9.78h-.033l-8.83 11.367c-.309.398-.552.057-.586.007l-.004-.007-2.927-3.626 6.539-8.253h.091l.958-1.17 8.884-11.528s.343-.46.728-.086zm108 0l.077.086 2.723 3.43-7.62 9.78h-.034l-8.83 11.367c-.308.398-.552.057-.585.007l-.004-.007-2.927-3.626 6.538-8.253h.092l.957-1.17 8.884-11.528s.343-.46.728-.086zm-36 0l.077.086 2.723 3.43-7.62 9.78h-.034l-8.83 11.367c-.308.398-.552.057-.585.007l-.004-.007-2.927-3.626 6.538-8.253h.092l.957-1.17 8.884-11.528s.343-.46.729-.086zm-36 0l.077.086 2.723 3.43-7.62 9.78h-.033l-8.83 11.367c-.308.398-.552.057-.586.007l-.004-.007-2.927-3.626 6.539-8.253h.092l.957-1.17 8.884-11.528s.342-.46.728-.086zM1170.743 0l3.67 4.761.957 1.17h.091l6.539 8.253-2.927 3.627s-.258.428-.59 0l-8.83-11.369h-.033L1164.6 0h6.143zm36 0l3.67 4.761.956 1.17h.092l6.539 8.253-2.927 3.627s-.258.428-.59 0l-8.83-11.369h-.033L1200.599 0h6.144zm36 0l3.67 4.761.956 1.17h.092l6.539 8.253-2.928 3.627s-.257.428-.59 0l-8.829-11.369h-.033L1236.599 0h6.144zm36 0l1.256 1.63v7.833l-2.346-3.02h-.033L1272.599 0h6.144zM1155.36 0l-6.843 8.81c-.309.398-.552.057-.586.007l-.004-.006L1145 5.184 1149.107 0h6.253zm72 0l-6.843 8.81c-.309.398-.553.057-.586.007l-.004-.006L1217 5.184 1221.107 0h6.253zm-36 0l-6.843 8.81c-.308.398-.552.057-.586.007l-.004-.006L1181 5.184 1185.107 0h6.253zm72 0l-6.843 8.81c-.309.398-.553.057-.586.007l-.004-.006L1253 5.184 1257.107 0h6.253zm-47.634 0l-.653.81s-.258.429-.59 0l-.629-.81h1.872zm36 0l-.654.81s-.257.429-.59 0l-.629-.81h1.873zm-72 0l-.653.81s-.258.429-.59 0l-.629-.81h1.872z" opacity=".541" transform="translate(-1145)"/>
</svg>
