<svg xmlns="http://www.w3.org/2000/svg" width="12" height="12" viewBox="0 0 12 12">
    <path fill="#1E67AD" fill-rule="nonzero" d="M11.184 2.985A5.968 5.968 0 0 0 9.002.804 5.863 5.863 0 0 0 5.994 0c-1.088 0-2.09.268-3.009.804A5.967 5.967 0 0 0 .804 2.985 5.863 5.863 0 0 0 0 5.994c0 1.087.268 2.09.804 3.008a5.968 5.968 0 0 0 2.181 2.181 5.863 5.863 0 0 0 3.009.804c1.087 0 2.09-.268 3.008-.804a5.967 5.967 0 0 0 2.181-2.18 5.864 5.864 0 0 0 .804-3.01c0-1.087-.268-2.09-.803-3.008zM6.993 9.74a.243.243 0 0 1-.07.18.242.242 0 0 1-.18.07H5.245a.243.243 0 0 1-.18-.07.243.243 0 0 1-.07-.18V8.24c0-.073.023-.133.07-.18a.244.244 0 0 1 .18-.07h1.498c.073 0 .133.024.18.07.046.047.07.107.07.18V9.74zm1.9-4.613c-.065.193-.138.35-.218.473-.081.122-.197.247-.348.374-.15.128-.27.219-.359.273-.088.055-.216.13-.382.223a1.314 1.314 0 0 0-.425.386c-.112.159-.168.287-.168.386a.243.243 0 0 1-.07.18.243.243 0 0 1-.18.07H5.245a.243.243 0 0 1-.18-.07.243.243 0 0 1-.07-.18v-.28c0-.35.137-.676.41-.98.273-.305.573-.53.901-.675.25-.115.427-.232.53-.351a.7.7 0 0 0 .157-.477c0-.171-.098-.325-.293-.46a1.143 1.143 0 0 0-.667-.203c-.27 0-.494.062-.671.187-.172.125-.396.365-.671.718a.23.23 0 0 1-.196.094.22.22 0 0 1-.148-.047l-1.03-.78c-.12-.094-.14-.203-.062-.328.666-1.108 1.63-1.662 2.895-1.662.453 0 .895.106 1.327.32.432.213.792.515 1.08.905a2.096 2.096 0 0 1 .336 1.904z"/>
</svg>
