<svg xmlns="http://www.w3.org/2000/svg" xmlns:xlink="http://www.w3.org/1999/xlink" width="15" height="20" viewBox="0 0 15 20">
    <defs>
        <path id="a" d="M.064.132h9.55V9.95H.064z"/>
        <path id="c" d="M0 .193h14.85v8.723H0z"/>
    </defs>
    <g fill="none" fill-rule="evenodd">
        <g transform="translate(2.578 .11)">
            <mask id="b" fill="#fff">
                <use xlink:href="#a"/>
            </mask>
            <path fill="#00B140" d="M4.839 2.3c1.47 0 2.666 1.23 2.666 2.741 0 1.512-1.196 2.74-2.666 2.74s-2.666-1.228-2.666-2.74c0-1.51 1.196-2.74 2.666-2.74m0 7.65c2.633 0 4.775-2.203 4.775-4.91 0-2.707-2.142-4.91-4.775-4.91C2.206.132.064 2.335.064 5.042c0 2.707 2.142 4.91 4.775 4.91" mask="url(#b)"/>
        </g>
        <g transform="translate(0 10.953)">
            <mask id="d" fill="#fff">
                <use xlink:href="#c"/>
            </mask>
            <path fill="#00B140" d="M12.74 6.747H2.11V2.37l.008-.008 2.349.002a4.668 4.668 0 0 0 2.95 1.056c1.11 0 2.131-.395 2.943-1.052l2.38.002v4.377zM12.733.193h-2.338A4.67 4.67 0 0 1 7.417 1.27 4.669 4.669 0 0 1 4.44.193H2.118C.95.193 0 1.17 0 2.37v6.546h14.85V2.37c0-1.2-.95-2.177-2.118-2.177z" mask="url(#d)"/>
        </g>
    </g>
</svg>
