<svg xmlns="http://www.w3.org/2000/svg" xmlns:xlink="http://www.w3.org/1999/xlink" width="18" height="12" viewBox="0 0 18 12">
    <defs>
        <path id="a" d="M0 .184h16.608V11.18H0z"/>
    </defs>
    <g fill="none" fill-rule="evenodd">
        <path fill="#00B140" d="M8.97 6.667a.815.815 0 1 1 .002-1.63.815.815 0 0 1-.001 1.63m0-3.457a2.646 2.646 0 0 0-2.643 2.643A2.646 2.646 0 0 0 8.97 8.496a2.646 2.646 0 0 0 2.643-2.643A2.646 2.646 0 0 0 8.97 3.21"/>
        <g transform="translate(.667 .186)">
            <mask id="b" fill="#fff">
                <use xlink:href="#a"/>
            </mask>
            <path fill="#00B140" d="M8.33 9.35c-2.46 0-4.861-1.431-6.242-3.683C3.471 3.4 5.822 2.013 8.331 2.013c2.383 0 4.755 1.42 6.17 3.654C13.08 7.92 10.707 9.35 8.332 9.35zm8.035-4.124C14.65 2.116 11.572.184 8.33.184 4.989.184 1.884 2.121.228 5.238L0 5.668l.228.428c1.666 3.136 4.77 5.083 8.103 5.083 3.232 0 6.31-1.943 8.034-5.07l.243-.442-.243-.441z" mask="url(#b)"/>
        </g>
    </g>
</svg>
