<?xml version="1.0" encoding="utf-8"?>
<!-- Generator: Adobe Illustrator 25.2.1, SVG Export Plug-In . SVG Version: 6.00 Build 0)  -->
<svg version="1.1" id="Layer_1" xmlns="http://www.w3.org/2000/svg" xmlns:xlink="http://www.w3.org/1999/xlink" x="0px" y="0px"
	 viewBox="0 0 1105 103.3" style="enable-background:new 0 0 1105 103.3;" xml:space="preserve">
<style type="text/css">
	.st0{fill:#898D8D;}
	.st1{fill:#00AE42;}
	.st2{fill:#5B5B5F;}
	.st3{fill:#666666;}
	.st4{fill:#96B737;}
	.st5{fill:#66A13C;}
</style>
<g>
	<g>
		<g>
			<rect x="433.1" y="13.5" class="st0" width="1.1" height="76.3"/>
			<g>
				<path class="st1" d="M137.5,57.2c0.5,0.8,1.3,1.2,2.4,1.2c1.4,0.1,2.4-1.4,2.4-1.4L166,26.5c2-2,3.9-0.4,3.9-0.4
					c1.9,2,0.5,3.7,0.5,3.7l-5.3,6.8v0.1c-0.5,0.5-0.7,1.1-0.7,1.8c0,0.6,0.2,1.2,0.6,1.7l0,0l5.3,6.8l16.8-21.4l-6.7-8.6l-1.2-1.6
					c-1.1-1.6-3.5-1.9-3.5-1.9h-10.1c-2.7,0-4.1,1.9-4.1,1.9l-28.3,36.3L137.5,57.2z"/>
				<path class="st1" d="M136.3,38.6l-6.7-8.7c-1.4-2.2,0.6-3.8,0.6-3.8c2.5-1.5,4,0.8,4,0.8l5.6,7.2l6.6-8.6l-7.6-9.8
					c-1.8-2.6-4.6-2.2-4.6-2.2h-9.1c-2.9,0-4.2,1.8-4.2,1.8l-8.1,10.2l16.8,21.6L136.3,38.6z"/>
				<path class="st1" d="M162.4,46c0,0-0.8-1.2-2.3-1.2c-1.6,0-2.2,1.1-2.2,1.1l-24,30.9c-1.9,2.1-4.1,0.4-4.1,0.4
					c-1.9-2-0.3-3.8-0.3-3.8l5.4-6.9v-0.1c0.5-0.5,0.7-1.1,0.7-1.8c0-0.6-0.2-1.2-0.6-1.7l0,0l-5.3-6.8l-16.9,21.7l9.4,11.9
					l14.8,0.1l29.8-38.1L162.4,46z"/>
				<path class="st1" d="M163.6,64.5l6.8,8.8c1.6,2.2-0.4,3.8-0.4,3.8c-2.6,1.8-4.2-0.9-4.2-0.9l-5.7-7.3l-6.6,8.6l9.6,12.2
					l14.7-0.1l9.4-12.1L170.3,56L163.6,64.5z"/>
				<path class="st1" d="M187,55.3c-2,0-3.6-1.6-3.6-3.6s1.6-3.6,3.6-3.6s3.6,1.6,3.6,3.6S189,55.3,187,55.3 M187,44.9
					c-3.8,0-6.8,3-6.8,6.7s3,6.7,6.8,6.7c3.8,0,6.8-3,6.8-6.7S190.8,44.9,187,44.9"/>
				<path class="st1" d="M149.9,3.1c2,0,3.6,1.6,3.6,3.6s-1.6,3.6-3.6,3.6s-3.6-1.6-3.6-3.6S148,3.1,149.9,3.1 M149.9,13.5
					c3.8,0,6.8-3,6.8-6.7S153.7,0,149.9,0c-3.8,0-6.8,3-6.8,6.7S146.1,13.5,149.9,13.5"/>
				<path class="st1" d="M109.1,51.6c0-2,1.6-3.6,3.6-3.6s3.6,1.6,3.6,3.6c0,2-1.6,3.6-3.6,3.6S109.1,53.6,109.1,51.6 M119.6,51.6
					c0-3.7-3-6.7-6.8-6.7s-6.8,3-6.8,6.7c0,3.7,3,6.7,6.8,6.7C116.5,58.4,119.6,55.3,119.6,51.6"/>
				<path class="st1" d="M149.9,100.2c-2,0-3.6-1.6-3.6-3.6c0-2,1.6-3.6,3.6-3.6s3.6,1.6,3.6,3.6
					C153.5,98.5,151.9,100.2,149.9,100.2 M149.9,89.8c-3.8,0-6.8,3-6.8,6.7s3,6.7,6.8,6.7c3.8,0,6.8-3,6.8-6.7
					S153.7,89.8,149.9,89.8"/>
				<path class="st0" d="M78.6,6.7H0v52.4c0,28.8,39.2,37.4,39.2,37.4h0.1c0,0,39.2-8.7,39.2-37.4V6.7z M76.6,8.6v50.5
					c0,6.1-1.9,11.8-5.7,16.8c-3.1,4.1-7.4,7.8-12.9,11c-8.3,4.9-16.8,7.2-18.8,7.6c-1.9-0.5-10.3-2.7-18.7-7.6
					c-5.5-3.2-9.8-6.9-12.9-11c-3.8-5-5.7-10.7-5.7-16.8V8.6H76.6z"/>
				<path class="st0" d="M48.8,23.5v-4.8h-4.9v4.5h-1.9v-4.5h-5.1v4.5h-1.9v-4.5h-5v4.8l2.5,4.2c0.1,0.2,0.1,0.3,0.1,0.5v22h2.4
					v-7.9c0-1.9,2.1-3.6,4.4-3.6c2.4,0,4.4,1.7,4.4,3.6v7.9h2.5v-8.3c0-0.1,0-0.1,0-0.1v-4.1v-0.1v-3l0,0v-1.3v-5
					c0-0.2,0.1-0.3,0.2-0.5L48.8,23.5z"/>
				<path class="st0" d="M30.5,50.7v-7.3L29.7,44c-0.3,0.2-0.7,0.2-1-0.1l-1.1-0.7c0,0.1,0,0.1,0,0.1l-0.1,2.8
					c0,0.3-0.2,0.6-0.4,0.7c0.1,0.1,0.2,0.1,0.3,0.2c1.3,1,1.4,2.5,1.1,3.7L30.5,50.7L30.5,50.7z"/>
				<path class="st0" d="M39.2,40.7c-1.5,0-2.5,1.1-2.5,1.6v7.9h5v-7.9C41.8,41.7,40.7,40.7,39.2,40.7"/>
				<path class="st0" d="M9.8,50.7c-0.3-0.6-0.5-1.3-0.6-2.2c-0.3-1.6-0.2-2.9-0.2-3c0-0.4,0.3-0.7,0.7-0.9l2.1-0.6l-2.4-1.7
					c-0.3-0.2-0.4-0.5-0.4-0.8v-2.7c0-0.4,0.2-0.7,0.5-0.9l0.9-0.5v-0.9l-0.7-0.3C9.3,36.1,9,35.8,9,35.3v-3.2c0-0.5,0.4-1,1-1
					l3-0.1c-0.1-0.8-0.1-1.9,0.1-2.8c0.3-1.2,1-2.5,1.3-3.1l-0.2-1.1c-0.1-0.3,0.1-0.5,0.2-0.7c0.2-0.2,0.4-0.3,0.7-0.3h1.6
					c0.2,0,0.4,0.1,0.5,0.2l3.9,2.5H23c0.3,0,0.5,0.1,0.7,0.3c0.2,0.2,0.3,0.4,0.3,0.7l-0.2,3.1c0,0.3-0.1,0.5-0.3,0.7h1.2
					c0.3,0,0.5,0.1,0.7,0.3l0.5,0.6l0.4-0.3l0.7-1.4c0.2-0.3,0.5-0.5,0.9-0.5h2.6v-0.5L28,24.4c-0.1-0.2-0.1-0.3-0.1-0.5v-6.2
					c0-0.5,0.4-1,1-1h6h1.9h5.1h2h5.9c0.5,0,1,0.4,1,1v6c0,0.2-0.1,0.3-0.2,0.5l-2.5,4.2V29h2.6c0.4,0,0.7,0.2,0.9,0.5l0.7,1.4
					l0.4,0.3l0.5-0.6c0.2-0.2,0.4-0.3,0.7-0.3h1.2c-0.2-0.2-0.3-0.4-0.3-0.7l-0.2-3.1c0-0.3,0.1-0.5,0.3-0.7
					c0.2-0.2,0.4-0.3,0.7-0.3h1.8l3.9-2.5c0.2-0.1,0.3-0.2,0.5-0.2h1.6c0.3,0,0.5,0.1,0.7,0.3c0.2,0.2,0.3,0.5,0.2,0.7l-0.2,1.1
					c0.3,0.6,1,1.9,1.3,3.1c0.2,0.9,0.2,2,0.1,2.8l3,0.1c0.5,0,1,0.4,1,1v3.2c0,0.4-0.2,0.7-0.6,0.9l-0.9,0.3v0.9l0.9,0.5
					c0.3,0.2,0.5,0.5,0.5,0.9v2.7c0,0.3-0.2,0.6-0.4,0.8l-2.4,1.7l2.1,0.6c0.4,0.1,0.6,0.5,0.7,0.9c0,0.1,0.1,1.4-0.2,3
					c-0.2,0.9-0.3,1.6-0.6,2.2h3.5h0.1V13.4h-66v37.3L9.8,50.7L9.8,50.7z"/>
				<path class="st0" d="M51.1,47c0.1-0.1,0.2-0.1,0.3-0.2c-0.2-0.2-0.4-0.4-0.4-0.7v-2.8c0-0.1,0-0.1,0-0.1L50,44
					c-0.3,0.2-0.7,0.2-1.1,0.1l-0.8-0.5v7.3h1.9C49.8,49.5,49.8,48.1,51.1,47"/>
				<path class="st0" d="M64,70.7c-0.5,0-1-0.4-1-1v-6.3c0-0.5-0.3-1.1-0.7-1.5c-0.4-0.4-1-0.8-2-0.7c-1.5,0-2.4,1.2-2.5,2.3v6.3
					c0,0.3-0.1,0.5-0.3,0.7c-0.2,0.2-0.4,0.3-0.7,0.3h-5.7c-0.5,0-1-0.4-1-1v-6.3c0-0.5-0.3-1.1-0.7-1.5c-0.4-0.4-1-0.8-2-0.7
					c-0.6,0-1.2,0.3-1.7,0.6l4.7,24.1c6.6-2.9,14.5-7.8,18.8-15.2L64,70.7L64,70.7z"/>
				<path class="st0" d="M48.6,86.5L42,52.7h-5.3L30,86.5c0,0.1,0,0.1-0.1,0.2c4.6,1.9,8.3,2.8,9.4,3.2c1.1-0.3,4.8-1.3,9.4-3.2
					C48.7,86.6,48.7,86.6,48.6,86.5"/>
				<path class="st0" d="M32.8,61.8c-0.4-0.4-1-0.6-1.7-0.6h-0.1c-1,0-1.6,0.4-1.9,0.8c-0.4,0.4-0.7,1-0.7,1.5v6.3c0,0.5-0.4,1-1,1
					h-5.7c-0.3,0-0.5-0.1-0.7-0.3c-0.2-0.2-0.3-0.4-0.3-0.7v-6.3c-0.1-1.1-1-2.3-2.5-2.3h-0.1c-1,0-1.6,0.4-1.9,0.8
					c-0.4,0.4-0.7,1-0.7,1.5v6.3c0,0.5-0.4,1-1,1H9.5C13.7,78.2,21.5,83,28.2,86L32.8,61.8z"/>
				<path class="st0" d="M72.3,52.7H44l1.4,7.1c0.6-0.3,1.3-0.5,2-0.5c1.3,0,2.5,0.4,3.4,1.3c0.8,0.8,1.3,1.9,1.3,2.8v5.3h3.8v-5.3
					c0-0.1,0-0.1,0-0.1c0.2-2.3,2.1-4.1,4.4-4.1c1.3,0,2.5,0.4,3.4,1.3c0.8,0.8,1.3,1.9,1.3,2.8v5.3h5.3c1.3-2.9,2.1-6.1,2.1-9.8
					L72.3,52.7L72.3,52.7"/>
				<path class="st0" d="M13.7,68.8v-5.3c0-1,0.5-2,1.3-2.8c0.9-0.9,2.1-1.3,3.4-1.3c2.3,0.1,4.2,1.8,4.4,4.1c0,0.1,0,0.1,0,0.1v5.3
					h3.8v-5.3c0-1,0.5-2,1.3-2.8c0.9-0.9,2.1-1.3,3.4-1.3c0.7,0,1.4,0.2,2,0.5l1.4-7.1H6.3V59c0,3.7,0.8,7,2.1,9.8h5.3V68.8z"/>
				<path class="st0" d="M16,48.7h1.6c0.1,0.2,0.2,0.4,0.2,0.6c0,0.1,0,0.3,0,0.4c0,0.3-0.1,0.7-0.1,1h-5.5
					c-0.8-0.5-1.2-2.7-1.2-4.4l2.4-0.7c0.4-0.1,0.7-0.5,0.7-0.9v-0.9c0-0.3-0.2-0.6-0.4-0.8L10.9,41v-1.6l0.9-0.5
					c0.3-0.2,0.5-0.5,0.5-0.9v-2.1c0-0.4-0.2-0.7-0.6-0.9l-0.9-0.3v-1.6h2.5l1.2,2v2.7l-0.8,2.6c-0.1,0.3-0.1,0.6,0.2,0.9
					c0.2,0.3,0.5,0.4,0.8,0.4h0.7c0.5,0,0.9-0.3,1-0.8c0.1-0.4,0.3-1.7,0.5-2.2c0.2-0.4,0.9-1.3,1.3-1.9c0.3-0.4,0.3-0.9,0-1.2
					L15,31.8c-0.1-0.6-0.2-1.9,0-2.9c0.2-1.1,1-2.4,1.2-2.8c0.1-0.2,0.2-0.4,0.1-0.6l-0.1-0.3h0.2l3.9,2.5c0.2,0.1,0.3,0.2,0.5,0.2
					H22L21.9,29l-1.3,0.5C20.3,29.7,20,30,20,30.4v1c0,0.5,0.4,1,1,1h3.3l0.9,0.9c0.3,0.4,0.9,0.4,1.3,0.1c0,0,1.5-1.2,1.6-1.3
					l0.5-1.1h2v2.2v1.2c0,0-3.5,1.2-3.8,1.3c-0.2,0.1-0.4,1.2-0.3,1.4c0.1,0.3,0,0.4,0.4,0.6c0,0,1,0.8,1.3,0.9l1-1l1.3,0.2v3.3
					L29.2,42l-4.1-2.8c-0.4-0.3-1-0.2-1.3,0.2l-0.6,0.8c-0.3,0.4-0.3,1,0.1,1.3l2.3,2.2v1.8l-2.4,1c-0.4,0.2-0.6,0.5-0.6,0.9v0.4
					c0,0.5,0.4,1,1,1h2.8c0.5,0.6,0.3,1.4,0.1,2h-6.4c-0.2-0.2-0.3-0.6-0.4-1.1c0-0.1,0-0.3,0-0.4c0-0.6,0.1-1.2,0.2-1.6l1.5-1.9
					c0.1-0.2,0.2-0.4,0.2-0.5l0.1-0.9c0-0.3-0.2-0.6-0.4-0.9s-0.6-0.2-0.9-0.1l-2.4,1c-0.3,0.1-0.5,0.4-0.6,0.7l-0.2,1l-1.4,0.4
					c-0.4,0.1-0.7,0.5-0.7,0.9v0.4C15,48.3,15.5,48.7,16,48.7"/>
				<path class="st0" d="M62.6,48.7h-1.6c-0.1,0.2-0.2,0.4-0.2,0.6c0,0.1,0,0.3,0,0.4c0,0.3,0.1,0.7,0.1,1h5.5
					c0.8-0.5,1.2-2.7,1.2-4.4l-2.4-0.7c-0.4-0.1-0.7-0.5-0.7-0.9v-0.9c0-0.3,0.2-0.6,0.4-0.8l2.7-1.9v-1.6l-0.9-0.5
					c-0.3-0.2-0.5-0.5-0.5-0.9v-2.1c0-0.4,0.2-0.7,0.6-0.9l0.9-0.3v-1.6h-2.5l-1.2,2v2.7l0.8,2.6c0.1,0.3,0.1,0.6-0.2,0.9
					c-0.2,0.3-0.5,0.4-0.8,0.4h-0.7c-0.5,0-0.9-0.3-1-0.8c-0.1-0.4-0.3-1.7-0.5-2.2c-0.2-0.4-0.9-1.3-1.3-1.9
					c-0.3-0.4-0.3-0.9,0-1.2l3.3-3.8c0.1-0.6,0.2-1.9,0-2.9c-0.2-1.1-1-2.4-1.2-2.8c-0.1-0.2-0.2-0.4-0.1-0.6l0.1-0.3h-0.2l-3.9,2.5
					c-0.2,0.1-0.3,0.2-0.5,0.2h-1.1l0.1,1.4l1.3,0.5c0.4,0.2,0.6,0.5,0.6,0.9v1c0,0.5-0.4,1-1,1h-3.3l-0.9,0.9
					c-0.3,0.4-0.9,0.4-1.3,0.1c0,0-1.5-1.2-1.6-1.3l-0.5-1.1h-2v2.2v1.2c0,0,3.5,1.2,3.8,1.3c0.2,0.1,0.4,1.2,0.3,1.4
					c-0.1,0.3,0,0.4-0.4,0.6c0,0-1,0.8-1.3,0.9l-1-1L48.1,38v3.3l1.3,0.8l4.1-2.8c0.4-0.3,1-0.2,1.3,0.2l0.6,0.8
					c0.3,0.4,0.3,1-0.1,1.3L53,43.7v1.8l2.4,1c0.4,0.2,0.6,0.5,0.6,0.9v0.4c0,0.5-0.4,1-1,1h-2.8c-0.5,0.6-0.3,1.4-0.1,2h6.5
					c0.2-0.2,0.3-0.6,0.4-1.1c0-0.1,0-0.3,0-0.4c0-0.6-0.1-1.2-0.2-1.6l-1.5-1.9c-0.1-0.2-0.2-0.4-0.2-0.5L57,44.3
					c0-0.3,0.2-0.6,0.4-0.9c0.3-0.2,0.6-0.2,0.9-0.1l2.4,1c0.3,0.1,0.5,0.4,0.6,0.7l0.2,1l1.4,0.4c0.4,0.1,0.7,0.5,0.7,0.9v0.4
					C63.6,48.3,63.2,48.7,62.6,48.7"/>
				<path class="st0" d="M214.5,40.2L214.5,40.2c0-3.7,2.7-7,6.7-7c2.2,0,3.6,0.6,5,1.8l-1,1.1c-1-0.9-2.2-1.6-4.1-1.6
					c-2.9,0-5.1,2.5-5.1,5.5v0.1c0,3.2,2,5.6,5.3,5.6c1.6,0,2.9-0.6,3.9-1.3V41h-4.1v-1.3h5.5V45c-1.2,1.1-3.1,2-5.4,2
					C217.2,47.1,214.5,44,214.5,40.2"/>
				<path class="st0" d="M243.8,40.2L243.8,40.2c0-3.1-2.2-5.6-5.3-5.6c-3,0-5.2,2.5-5.2,5.5v0.1c0,3,2.2,5.5,5.3,5.5
					C241.6,45.7,243.8,43.2,243.8,40.2 M231.7,40.2L231.7,40.2c0-3.7,2.8-7,6.8-7c4.1,0,6.8,3.2,6.8,6.9v0.1c0,3.7-2.8,6.9-6.8,6.9
					C234.4,47.1,231.7,43.8,231.7,40.2"/>
				<path class="st0" d="M256.5,40.7h-4.2v4.7h4.5c2,0,3.3-0.9,3.3-2.4V43C260,41.6,258.8,40.7,256.5,40.7 M259.3,37
					c0-1.3-1.1-2.2-2.9-2.2h-4.1v4.6h4C258,39.4,259.3,38.6,259.3,37L259.3,37z M250.7,33.4h5.7c1.6,0,2.7,0.4,3.5,1.2
					c0.5,0.6,0.9,1.3,0.9,2.1v0.1c0,1.8-1.1,2.6-2.1,3.1c1.6,0.5,2.9,1.4,2.9,3.2v0.1c0,2.3-1.9,3.6-4.9,3.6h-5.9V33.4z"/>
			</g>
			<rect x="266.9" y="33.4" class="st0" width="1.5" height="13.4"/>
			<polygon class="st0" points="274.6,33.4 284.3,33.4 284.3,34.8 276.1,34.8 276.1,39.4 283.4,39.4 283.4,40.7 276.1,40.7 
				276.1,45.5 284.4,45.5 284.4,46.8 274.6,46.8 			"/>
			<g>
				<path class="st0" d="M295,40.3c2,0,3.4-1,3.4-2.8v-0.1c0-1.7-1.3-2.6-3.4-2.6h-4.1v5.5C290.9,40.3,295,40.3,295,40.3z
					 M289.3,33.4h5.8c1.7,0,2.9,0.5,3.8,1.3c0.6,0.6,1,1.6,1,2.6v0.1c0,2.2-1.6,3.5-3.6,3.9l4.1,5.5h-1.9l-3.9-5.2h-3.7v5.2h-1.5
					L289.3,33.4L289.3,33.4z"/>
			</g>
			<polygon class="st0" points="305.4,33.4 306.8,33.4 315.2,44.2 315.2,33.4 316.7,33.4 316.7,46.8 315.5,46.8 306.9,35.8 
				306.9,46.8 305.4,46.8 			"/>
			<g>
				<path class="st0" d="M334.2,40.2L334.2,40.2c0-3.1-2.2-5.6-5.3-5.6s-5.2,2.5-5.2,5.5v0.1c0,3,2.2,5.5,5.3,5.5
					C332,45.7,334.2,43.2,334.2,40.2 M322.1,40.2L322.1,40.2c0-3.7,2.8-7,6.8-7c4.1,0,6.8,3.2,6.8,6.9v0.1c0,3.7-2.8,6.9-6.8,6.9
					C324.8,47.1,322.1,43.8,322.1,40.2"/>
				<path class="st0" d="M349.7,34.8v10.6h3.2c3.4,0,5.6-2.3,5.6-5.2v-0.1c0-2.9-2.1-5.3-5.6-5.3L349.7,34.8L349.7,34.8z
					 M348.2,33.4h4.7c4.2,0,7.1,2.9,7.1,6.6v0.1c0,3.7-2.9,6.7-7.1,6.7h-4.7V33.4z"/>
			</g>
			<polygon class="st0" points="364.7,33.4 374.4,33.4 374.4,34.8 366.2,34.8 366.2,39.4 373.5,39.4 373.5,40.7 366.2,40.7 
				366.2,45.5 374.5,45.5 374.5,46.8 364.7,46.8 			"/>
			<polygon class="st0" points="386.5,33.4 388,33.4 388,45.5 395.5,45.5 395.5,46.8 386.5,46.8 			"/>
			<path class="st0" d="M408.6,41.9l-3-6.8l-3,6.8H408.6z M404.8,33.4h1.4l6.1,13.5h-1.6l-1.6-3.5h-7.3l-1.6,3.5h-1.6L404.8,33.4z"
				/>
			<g>
				<path class="st0" d="M214.3,63.1L214.3,63.1c0-3.9,2.9-7,7-7c2.5,0,4,0.9,5.3,2.1l-1.9,2.1c-1-1-2.1-1.5-3.4-1.5
					c-2.2,0-3.9,1.9-3.9,4.2v0.1c0,2.3,1.6,4.2,3.9,4.2c1.6,0,2.5-0.6,3.5-1.6l1.9,1.9c-1.4,1.5-2.9,2.4-5.5,2.4
					C217.2,70,214.3,66.9,214.3,63.1"/>
			</g>
			<rect x="229" y="56.4" class="st0" width="2.9" height="13.4"/>
			<g>
				<path class="st0" d="M235.4,64.1v-7.6h2.9V64c0,2.2,1.1,3.3,2.9,3.3s2.9-1.1,2.9-3.2v-7.6h2.9V64c0,4.1-2.3,6-5.9,6
					C237.6,70,235.4,68,235.4,64.1"/>
				<path class="st0" d="M255.7,67.1c2.4,0,4-1.6,4-4l0,0c0-2.4-1.6-4-4-4h-2.3v8.1L255.7,67.1L255.7,67.1z M250.4,56.4h5.2
					c4.2,0,7.1,2.9,7.1,6.6v0.1c0,3.7-2.9,6.7-7.1,6.7h-5.2V56.4z"/>
			</g>
			<path class="st0" d="M272.3,64.2l-1.8-4.3l-1.8,4.3H272.3z M269.3,56.3h2.7l5.7,13.5h-3.1l-1.2-3h-5.7l-1.2,3h-3L269.3,56.3z"/>
			<g>
				<path class="st0" d="M285.1,67.1c2.4,0,4-1.6,4-4l0,0c0-2.4-1.6-4-4-4h-2.3v8.1L285.1,67.1L285.1,67.1z M279.8,56.4h5.2
					c4.2,0,7.1,2.9,7.1,6.6v0.1c0,3.7-2.9,6.7-7.1,6.7h-5.2V56.4z"/>
				<path class="st0" d="M306,67.1c2.4,0,4-1.6,4-4l0,0c0-2.4-1.6-4-4-4h-2.3v8.1L306,67.1L306,67.1z M300.7,56.4h5.2
					c4.2,0,7.1,2.9,7.1,6.6v0.1c0,3.7-2.9,6.7-7.1,6.7h-5.2V56.4z"/>
			</g>
			<polygon class="st0" points="315.9,56.4 326,56.4 326,59 318.8,59 318.8,61.7 325.1,61.7 325.1,64.3 318.8,64.3 318.8,67.2 
				326.1,67.2 326.1,69.8 315.9,69.8 			"/>
			<polygon class="st0" points="334.6,56.4 337.8,56.4 341.3,62 344.8,56.4 348,56.4 348,69.8 345.1,69.8 345.1,61 341.3,66.7 
				341.2,66.7 337.5,61.1 337.5,69.8 334.6,69.8 			"/>
			<path class="st0" d="M357.1,52l2.5,1.1l-2.5,2.3h-2.2L357.1,52z M351.5,56.4h10.1V59h-7.2v2.7h6.3v2.6h-6.3v2.8h7.3v2.6h-10.2
				V56.4z"/>
			<polygon class="st0" points="368.3,63 363.8,56.4 367.2,56.4 370,60.7 372.9,56.4 376.2,56.4 371.7,62.9 376.4,69.8 373,69.8 
				369.9,65.2 366.9,69.8 363.6,69.8 			"/>
			<rect x="378.6" y="56.4" class="st0" width="2.9" height="13.4"/>
			<path class="st0" d="M384.5,63.1L384.5,63.1c0-3.9,2.9-7,7-7c2.5,0,4,0.9,5.3,2.1l-1.9,2.1c-1-1-2.1-1.5-3.4-1.5
				c-2.2,0-3.9,1.9-3.9,4.2v0.1c0,2.3,1.6,4.2,3.9,4.2c1.6,0,2.5-0.6,3.5-1.6l1.9,1.9c-1.4,1.5-2.9,2.4-5.5,2.4
				C387.4,70,384.5,66.9,384.5,63.1"/>
			<path class="st0" d="M409.3,63.1L409.3,63.1c0-2.4-1.7-4.2-4.1-4.2c-2.4,0-4,1.9-4,4.2v0.1c0,2.3,1.7,4.2,4.1,4.2
				C407.7,67.3,409.3,65.4,409.3,63.1 M398.2,63.1L398.2,63.1c0-3.9,3-7,7.1-7c4.1,0,7.1,3.1,7.1,6.9v0.1c0,3.8-3,6.9-7.1,6.9
				C401.2,70,398.2,66.9,398.2,63.1"/>
		</g>
	</g>
	<g id="Capa_2_2_">
		<g id="Capa_2-2_1_">
			<path class="st2" d="M623.6,52.8V27.7c0,0,0-0.1,0-0.1L623.6,52.8L623.6,52.8z"/>
			<path class="st2" d="M668.7,35.1c-0.4-14-12.3-25.3-26.6-25.3h-22.6c-2.8,0-5.1,2.3-5.1,5.1v22.9c0,0.1,0.1,0.2,0.1,0.4
				c1.3,5.5,1.7,11.1,1.3,16.8c-0.1,1.6-0.3,3.1-0.5,4.6c-0.2,1.4-0.5,2.8-0.8,4.2V93c0,0,7.5,2.9,9.1-1.1V62c5.6,0,18.7,0,19,0
				c14.4,0,26.1-11.7,26.1-26.2C668.7,35.6,668.7,35.3,668.7,35.1L668.7,35.1z M654.8,47.7c-3.2,3.3-7.6,5.2-12.2,5.2
				c-0.3,0-13.4,0-19,0h0V18.9h18.5c9.4,0,17.2,7.4,17.4,16.5C659.8,39.9,658,44.4,654.8,47.7z"/>
			<path class="st3" d="M605.2,26.4c-0.7-0.9-1.5-1.9-2.3-2.7v0.1c0.8,0.9,1.6,1.8,2.3,2.7V26.4z"/>
			<path class="st2" d="M609.4,33.1c-0.4-0.9-0.9-1.7-1.4-2.5c-0.4-0.7-0.9-1.5-1.4-2.2c-0.5-0.7-0.9-1.3-1.4-1.9v0.1
				c-0.7-0.9-1.5-1.8-2.3-2.7c-0.7-0.8-1.4-1.5-2.2-2.3v13.6c2.7,4.8,4.1,10.3,4.1,15.8c0,17.3-13.7,31.5-31,32.8l0.2,0.4l2.6,5.3
				l1.2,2.4l0.2,0.4c4.2-0.7,8.4-2,12.2-3.9c0.4-0.2,0.7-0.4,1.1-0.5c0.9-0.5,1.8-1,2.6-1.5l0.2-0.1c4.9-3.1,9.1-7.2,12.4-11.9
				c0.5-0.7,1-1.4,1.4-2.2c0.5-0.8,1-1.7,1.4-2.6c2.4-4.6,3.8-9.7,4.2-14.9C614.2,47.3,612.8,39.8,609.4,33.1z"/>
			<path class="st2" d="M574.8,92.3l-4-8.1l-0.1-0.2l-0.6-1.2l-0.7-1.5l-13.4-27.8v17l4.4,8.8l0.9,1.8l0.4,0.9
				c0,0.1,0.1,0.2,0.1,0.3l0.3,0.6l0.5,1l4.2,8.6l0,0.1c0,0,0,0.1,0.1,0.1c0.3,0,0.6,0.1,0.8,0.1h6.9c0.1,0,0.2,0,0.2-0.1
				L574.8,92.3z"/>
			<path class="st2" d="M539.6,19.1L539.6,19.1L539.6,19.1l-2.4-4.9l-2.3-4.7c0-0.1-0.1-0.1-0.1-0.2c-0.1-0.1-0.1-0.1-0.2-0.1
				c0,0-0.1,0-0.1,0l0,0c0,0-0.1,0-0.1,0c-0.1,0-0.2,0.1-0.2,0.1c0,0-0.1,0.1-0.1,0.2l-40.6,82.7c-0.1,0.1-0.1,0.2,0,0.4
				c0.1,0.1,0.2,0.2,0.3,0.2h5.9c1.1,0,2.1-0.6,2.5-1.6l4.4-9.1c0,0,0-0.1,0.1-0.1l23.1-47.1c0.4-1.1,0.9-2.2,1.4-3.3
				c0.1-0.1,0.1-0.3,0.2-0.4c0.2-0.5,0.5-1,0.7-1.4c0.1-0.2,0.2-0.3,0.2-0.5c0-0.1,0.1-0.1,0.1-0.2c0.2-0.4,0.4-0.8,0.7-1.2
				c0.1-0.1,0.1-0.3,0.2-0.4c0.3-0.5,0.5-0.9,0.8-1.3l9.2,18.4V26.6L539.6,19.1z"/>
			<path class="st4" d="M600.9,61.8L600.9,61.8c-1.6,3.9-3.9,7.5-6.9,10.5c-0.6,0.6-1.2,1.1-1.8,1.7v0.1
				C596,70.8,599,66.6,600.9,61.8z"/>
			<path class="st5" d="M591.9,91v1.6c0,0.1,0.1,0.2,0.2,0.2h7.1c0.8,0,1.4-0.6,1.4-1.4v-6.1C598,87.6,595.1,89.5,591.9,91z"/>
			<path class="st5" d="M600.1,9.5h-7.7c-0.3,0-0.5,0.2-0.5,0.5v64c0.6-0.5,1.2-1.1,1.8-1.6c3-2.9,5.4-6.5,6.9-10.4V10
				C600.7,9.7,600.4,9.5,600.1,9.5z"/>
			<path class="st2" d="M570.2,9.5h-23.7c-0.5,0-1,0.4-1,0.9v80.1c0,1.1,0.9,1.9,1.9,1.9l3.9,0l12.4,0l-4.2-8.5h-5.3V18.1
				c0,0,16.1-0.1,16.9-0.1c7.5,0,14.9,2.5,20.8,7.1v-9.9C585.3,11.4,577.8,9.5,570.2,9.5z"/>
		</g>
	</g>
	<g>
		<path class="st2" d="M708.6,48.7l-2.2-5.5h-10.3l-2.2,5.5h-5.5l10.4-24.5h4.9l10.4,24.5H708.6z M701.2,30.7l-3.2,7.9h6.5
			L701.2,30.7z"/>
		<path class="st2" d="M728.8,48.7c-7.6,0-12.8-5.3-12.8-12.5v-0.1c0-6.9,5.4-12.6,12.7-12.6c4.4,0,7,1.2,9.6,3.3l-3.4,4.1
			c-1.9-1.6-3.5-2.5-6.4-2.5c-3.9,0-7,3.4-7,7.6v0.1c0,4.4,3.1,7.7,7.4,7.7c1.9,0,3.7-0.5,5-1.5v-3.5h-5.4v-4.6h10.6v10.6
			C736.3,47.4,732.6,48.7,728.8,48.7z"/>
		<path class="st2" d="M745,48.7V24.4h18.3v4.8h-13v4.9h11.5v4.8h-11.5V44h13.2v4.8L745,48.7z"/>
		<path class="st2" d="M786,48.7l-11.8-15.5v15.5H769V24.4h4.9l11.4,15v-15h5.3v24.3L786,48.7z"/>
		<path class="st2" d="M808.5,48.7c-7.2,0-12.5-5.5-12.5-12.5v-0.1c0-6.9,5.2-12.6,12.7-12.6c4.6,0,7.3,1.5,9.6,3.8l-3.4,3.9
			c-1.9-1.7-3.8-2.7-6.2-2.7c-4.1,0-7.1,3.4-7.1,7.6v0.1c0,4.2,2.9,7.6,7.1,7.6c2.8,0,4.5-1.1,6.4-2.8l3.4,3.4
			C816,47.1,813.2,48.7,808.5,48.7z"/>
		<path class="st2" d="M823.7,48.7V24.4h5.3v24.3L823.7,48.7z"/>
		<path class="st2" d="M853.9,48.7l-2.2-5.5h-10.3l-2.2,5.5h-5.5l10.4-24.5h4.9l10.4,24.5H853.9z M846.5,30.7l-3.2,7.9h6.5
			L846.5,30.7z"/>
		<path class="st2" d="M878.8,48.7h-9.5V24.4h9.5c7.6,0,12.9,5.2,12.9,12.1v0.1C891.7,43.4,886.5,48.7,878.8,48.7z M886.1,36.6
			c0-4.3-3-7.3-7.3-7.3h-4.1v14.7h4.1C883.2,43.9,886.1,41,886.1,36.6L886.1,36.6z"/>
		<path class="st2" d="M897.4,48.7V24.4h5.3v24.3H897.4z"/>
		<path class="st2" d="M921.3,48.7c-7.6,0-12.8-5.3-12.8-12.5v-0.1c0-6.9,5.4-12.6,12.7-12.6c4.4,0,7,1.2,9.6,3.3l-3.4,4.1
			c-1.9-1.6-3.5-2.5-6.4-2.5c-3.9,0-7,3.4-7,7.6v0.1c0,4.4,3.1,7.7,7.4,7.7c1.9,0,3.7-0.5,5-1.5v-3.5h-5.4v-4.6h10.6v10.6
			C928.8,47.4,925.1,48.7,921.3,48.7z"/>
		<path class="st2" d="M937.7,48.7V24.4h5.3v24.3H937.7z"/>
		<path class="st2" d="M960.8,29.3v19.4h-5.3V29.3h-7.4v-4.9h20.1v4.9L960.8,29.3z"/>
		<path class="st2" d="M988,48.7l-2.2-5.5h-10.3l-2.2,5.5h-5.5l10.4-24.5h4.9l10.4,24.5H988z M980.6,30.7l-3.2,7.9h6.5L980.6,30.7z"
			/>
		<path class="st2" d="M998,48.7V24.4h5.3v19.4h12.1v4.9H998z"/>
		<path class="st2" d="M1040.8,48.7h-9.5V24.4h9.5c7.6,0,12.9,5.2,12.9,12.1v0.1C1053.8,43.4,1048.5,48.7,1040.8,48.7z M1048.2,36.6
			c0-4.3-3-7.3-7.3-7.3h-4.1v14.7h4.1C1045.2,43.9,1048.2,41,1048.2,36.6L1048.2,36.6z"/>
		<path class="st2" d="M1059.2,48.7V24.4h18.3v4.8h-13v4.9h11.5v4.8h-11.5V44h13.2v4.8H1059.2z"/>
	</g>
	<g>
		<path class="st2" d="M689.4,87V62.6h5.4V87H689.4z"/>
		<path class="st2" d="M718.6,87l-11.8-15.5V87h-5.3V62.6h4.9l11.4,15v-15h5.3V87H718.6z"/>
		<path class="st2" d="M746.8,87L735,71.5V87h-5.3V62.6h5l11.4,15v-15h5.3V87H746.8z"/>
		<path class="st2" d="M769.7,87.4c-7.5,0-12.9-5.6-12.9-12.5v-0.1c0-6.9,5.5-12.6,13-12.6s12.9,5.6,12.9,12.5v0.1
			C782.7,81.7,777.2,87.4,769.7,87.4z M777.1,74.8c0-4.2-3.1-7.7-7.4-7.7c-4.3,0-7.3,3.4-7.3,7.6v0.1c0,4.2,3.1,7.7,7.4,7.7
			C774.1,82.5,777.1,79.1,777.1,74.8L777.1,74.8z"/>
		<path class="st2" d="M799.1,87.1h-4.7l-9.8-24.5h5.9l6.4,17.1l6.4-17.1h5.8L799.1,87.1z"/>
		<path class="st2" d="M828,87l-2.2-5.5h-10.3l-2.2,5.5h-5.5l10.4-24.5h4.9L833.6,87H828z M820.6,68.9l-3.2,7.9h6.5L820.6,68.9z"/>
		<path class="st2" d="M847.9,87.4c-7.2,0-12.5-5.5-12.5-12.5v-0.1c0-6.9,5.2-12.6,12.7-12.6c4.6,0,7.3,1.5,9.6,3.8l-3.4,3.9
			c-1.9-1.7-3.8-2.7-6.2-2.7c-4.1,0-7.1,3.4-7.1,7.6v0.1c0,4.2,2.9,7.7,7.1,7.7c2.8,0,4.5-1.1,6.4-2.9l3.4,3.4
			C855.4,85.7,852.6,87.4,847.9,87.4z"/>
		<path class="st2" d="M863.1,87V62.6h5.4V87H863.1z"/>
		<path class="st2" d="M887.1,87.4c-7.5,0-12.9-5.6-12.9-12.5v-0.1c0-6.9,5.5-12.6,13-12.6c7.5,0,12.9,5.6,12.9,12.5v0.1
			C900.1,81.7,894.6,87.4,887.1,87.4z M894.5,74.8c0-4.2-3.1-7.7-7.4-7.7s-7.3,3.4-7.3,7.6v0.1c0,4.2,3.1,7.7,7.4,7.7
			C891.5,82.5,894.5,79.1,894.5,74.8L894.5,74.8z M885.2,60.7l3.9-6.2l4.6,2l-4.5,4.2L885.2,60.7z"/>
		<path class="st2" d="M922.6,87l-11.8-15.5V87h-5.3V62.6h4.9l11.4,15v-15h5.3V87H922.6z"/>
		<path class="st2" d="M953,79.7h-4.1V87h-5.4V62.6h10c5.8,0,9.3,3.4,9.3,8.4v0.1C962.9,76.7,958.5,79.7,953,79.7z M957.4,71.1
			c0-2.4-1.7-3.7-4.3-3.7H949v7.4h4.2C955.9,74.9,957.4,73.3,957.4,71.1L957.4,71.1z"/>
		<path class="st2" d="M977.7,87.4c-6.5,0-10.5-3.7-10.5-10.8V62.6h5.4v13.8c0,4,2,6,5.3,6s5.3-2,5.3-5.8V62.6h5.4v13.7
			C988.3,83.7,984.2,87.4,977.7,87.4z M975.3,60.9l3.9-6.2l4.6,2l-4.5,4.2L975.3,60.9z"/>
		<path class="st2" d="M1006.1,87h-11.6V62.6h11.3c5,0,8,2.5,8,6.3V69c0,2.7-1.5,4.3-3.2,5.3c2.8,1.1,4.6,2.7,4.6,6v0.1
			C1015.2,84.7,1011.6,87,1006.1,87z M1008.5,69.8c0-1.6-1.3-2.5-3.5-2.5h-5.3v5.1h4.9C1007,72.5,1008.5,71.7,1008.5,69.8
			L1008.5,69.8z M1009.9,79.6c0-1.6-1.2-2.7-4-2.7h-6.2v5.4h6.4C1008.4,82.3,1009.9,81.4,1009.9,79.6L1009.9,79.6z"/>
		<path class="st2" d="M1020.3,87V62.6h5.4v19.5h12.1V87H1020.3z"/>
		<path class="st2" d="M1042.8,87V62.6h5.4V87H1042.8z"/>
		<path class="st2" d="M1066.3,87.4c-7.2,0-12.5-5.5-12.5-12.5v-0.1c0-6.9,5.2-12.6,12.7-12.6c4.6,0,7.3,1.5,9.6,3.8l-3.4,3.9
			c-1.9-1.7-3.8-2.7-6.2-2.7c-4.1,0-7.1,3.4-7.1,7.6v0.1c0,4.2,2.9,7.7,7.1,7.7c2.8,0,4.5-1.1,6.4-2.9l3.4,3.4
			C1073.8,85.7,1071,87.4,1066.3,87.4z"/>
		<path class="st2" d="M1099.4,87l-2.2-5.5h-10.3l-2.2,5.5h-5.5l10.4-24.5h4.9L1105,87H1099.4z M1092,68.9l-3.2,7.9h6.5L1092,68.9z"
			/>
	</g>
</g>
</svg>
