<?xml version="1.0" encoding="utf-8"?>
<!-- Generator: Adobe Illustrator 25.2.1, SVG Export Plug-In . SVG Version: 6.00 Build 0)  -->
<svg version="1.1" id="Capa_1" xmlns="http://www.w3.org/2000/svg" xmlns:xlink="http://www.w3.org/1999/xlink" x="0px" y="0px"
	 viewBox="0 0 198 50" style="enable-background:new 0 0 198 50;" xml:space="preserve">
<style type="text/css">
	.st0{fill-rule:evenodd;clip-rule:evenodd;fill:#FFFFFF;}
	.st1{filter:url(#Adobe_OpacityMaskFilter);}
	.st2{mask:url(#b_1_);fill-rule:evenodd;clip-rule:evenodd;fill:#FFFFFF;}
	.st3{filter:url(#Adobe_OpacityMaskFilter_1_);}
	.st4{mask:url(#d_1_);fill-rule:evenodd;clip-rule:evenodd;fill:#FFFFFF;}
</style>
<g>
	<path class="st0" d="M66,27.3c0.3,0.4,0.6,0.6,1.1,0.6c0.7,0,1.1-0.7,1.1-0.7l11.4-14.5c0.9-1,1.9-0.2,1.9-0.2
		c0.9,0.9,0.2,1.8,0.2,1.8l-2.6,3.2l0,0c-0.5,0.5-0.5,1.2-0.1,1.7v0l2.6,3.2l8.1-10.2l-3.2-4.1L86,7.4c-0.5-0.8-1.7-0.9-1.7-0.9
		h-4.8c-1.3,0-2,0.9-2,0.9L63.9,24.6L66,27.3L66,27.3z M65.4,18.4l-3.2-4.1c-0.7-1.1,0.3-1.8,0.3-1.8c1.2-0.7,1.9,0.4,1.9,0.4
		l2.7,3.4l3.2-4.1l-3.7-4.7c-0.9-1.2-2.2-1.1-2.2-1.1H60c-1.4,0-2,0.9-2,0.9l-3.9,4.9l8.1,10.3L65.4,18.4L65.4,18.4z"/>
	<path class="st0" d="M77.9,21.9c0,0-0.4-0.6-1.1-0.6c-0.8,0-1.1,0.5-1.1,0.5L64.2,36.6c-0.9,1-1.9,0.2-1.9,0.2
		c-0.9-0.9-0.2-1.8-0.2-1.8l2.6-3.3l0,0c0.5-0.5,0.5-1.2,0.1-1.7v0l-2.6-3.2l-8.1,10.3l4.5,5.7l7.1,0L80,24.6L77.9,21.9L77.9,21.9z
		 M78.5,30.8l3.3,4.2c0.8,1-0.2,1.8-0.2,1.8c-1.3,0.8-2-0.4-2-0.4l-2.7-3.5L73.6,37l4.6,5.8l7.1,0l4.5-5.8l-8.1-10.3
		C81.7,26.7,78.5,30.8,78.5,30.8z M89.7,21.4c-1.8,0-3.3,1.4-3.3,3.2c0,1.8,1.5,3.2,3.3,3.2c1.8,0,3.3-1.4,3.3-3.2
		C93,22.9,91.5,21.4,89.7,21.4 M89.7,26.4c-1,0-1.7-0.8-1.7-1.7c0-1,0.8-1.7,1.7-1.7c1,0,1.7,0.8,1.7,1.7
		C91.5,25.6,90.7,26.4,89.7,26.4 M71.9,6.4c1.8,0,3.3-1.4,3.3-3.2S73.7,0,71.9,0s-3.3,1.4-3.3,3.2S70.1,6.4,71.9,6.4 M71.9,1.5
		c1,0,1.7,0.8,1.7,1.7c0,1-0.8,1.7-1.7,1.7c-1,0-1.7-0.8-1.7-1.7S71,1.5,71.9,1.5L71.9,1.5 M71.9,49.4c1.8,0,3.3-1.4,3.3-3.2
		c0-1.8-1.5-3.2-3.3-3.2s-3.3,1.4-3.3,3.2C68.7,47.9,70.1,49.4,71.9,49.4 M71.9,44.4c1,0,1.7,0.8,1.7,1.7c0,1-0.8,1.7-1.7,1.7
		c-1,0-1.7-0.8-1.7-1.7C70.2,45.2,71,44.4,71.9,44.4 M57.4,24.6c0-1.8-1.5-3.2-3.3-3.2c-1.8,0-3.3,1.4-3.3,3.2
		c0,1.8,1.5,3.2,3.3,3.2C55.9,27.8,57.4,26.4,57.4,24.6 M52.4,24.6c0-1,0.8-1.7,1.7-1.7c1,0,1.7,0.8,1.7,1.7c0,1-0.8,1.7-1.7,1.7
		C53.1,26.4,52.4,25.6,52.4,24.6"/>
	<g transform="translate(0 2.556)">
		<defs>
			<filter id="Adobe_OpacityMaskFilter" filterUnits="userSpaceOnUse" x="0" y="0.6" width="37.7" height="42.8">
				<feColorMatrix  type="matrix" values="1 0 0 0 0  0 1 0 0 0  0 0 1 0 0  0 0 0 1 0"/>
			</filter>
		</defs>
		<mask maskUnits="userSpaceOnUse" x="0" y="0.6" width="37.7" height="42.8" id="b_1_">
			<g class="st1">
				<path id="a_1_" class="st0" d="M0,0.6h37.7v42.8H0V0.6z"/>
			</g>
		</mask>
		<path class="st2" d="M36.8,1.6v24.1c0,2.9-0.9,5.6-2.7,8c-1.5,2-3.6,3.7-6.2,5.3c-4,2.3-8.1,3.4-9,3.7c-0.9-0.2-5-1.3-9-3.6
			c-2.6-1.5-4.7-3.3-6.2-5.3c-1.8-2.4-2.8-5.1-2.8-8V1.6C0.9,1.6,36.8,1.6,36.8,1.6z M37.7,0.6H0v25c0,13.7,18.8,17.8,18.8,17.8h0
			c0,0,18.8-4.1,18.8-17.8C37.7,25.6,37.7,0.6,37.7,0.6z"/>
	</g>
	<path class="st0" d="M23.4,11.2V8.9H21V11h-0.9V8.9h-2.4V11h-0.9V8.9h-2.4v2.3l1.2,2c0,0.1,0.1,0.1,0.1,0.2l0,10.5h1.1l0-3.8
		c0-0.9,1-1.7,2.1-1.7c1.1,0,2.1,0.8,2.1,1.7l0,3.8h1.2l0-4l0-0.1v-2c0,0,0,0,0,0l0-1.4l0,0v-0.6l0-2.4c0-0.1,0-0.2,0.1-0.2
		L23.4,11.2L23.4,11.2z M14.6,24.2l0-3.5L14.2,21c-0.2,0.1-0.4,0.1-0.5,0l-0.5-0.3c0,0,0,0,0,0l0,1.3c0,0.1-0.1,0.3-0.2,0.4
		c0.1,0,0.1,0,0.1,0.1c0.6,0.5,0.7,1.2,0.5,1.8C13.7,24.2,14.6,24.2,14.6,24.2z"/>
	<path class="st0" d="M18.8,19.4c-0.7,0-1.2,0.5-1.2,0.8l0,3.8h2.4l0-3.8C20.1,19.9,19.6,19.4,18.8,19.4"/>
	<path class="st0" d="M4.7,24.2c-0.1-0.3-0.2-0.7-0.3-1.1c-0.1-0.7-0.1-1.4-0.1-1.4c0-0.2,0.1-0.4,0.3-0.4l1-0.3l-1.1-0.8
		c-0.1-0.1-0.2-0.2-0.2-0.4v-1.3c0-0.2,0.1-0.3,0.2-0.4L5,17.9v-0.4l-0.4-0.2c-0.2-0.1-0.3-0.2-0.3-0.4l0-1.5c0-0.3,0.2-0.5,0.5-0.5
		l1.4,0c0-0.4,0-0.9,0.1-1.3C6.4,13,6.7,12.3,6.9,12l-0.1-0.5c0-0.3,0.1-0.5,0.4-0.5c0,0,0,0,0.1,0H8c0.1,0,0.2,0,0.2,0.1l1.9,1.2
		H11c0.1,0,0.2,0.1,0.3,0.1c0.1,0.1,0.1,0.2,0.1,0.3l-0.1,1.5c0,0.1-0.1,0.2-0.2,0.3l0.6,0c0.1,0,0.2,0.1,0.3,0.1l0.3,0.3l0.2-0.2
		l0.3-0.7c0.1-0.2,0.2-0.3,0.4-0.3h1.2v-0.3l-1.2-2c0-0.1-0.1-0.2-0.1-0.2V8.4c0-0.3,0.2-0.5,0.5-0.5h10c0.3,0,0.5,0.2,0.5,0.5v2.9
		c0,0.1,0,0.2-0.1,0.2l-1.2,2v0.3h1.2c0.2,0,0.3,0.1,0.4,0.3l0.3,0.7l0.2,0.2l0.3-0.3c0.1-0.1,0.2-0.1,0.3-0.1l0.6,0
		c-0.1-0.1-0.1-0.2-0.1-0.3l-0.1-1.5c0-0.3,0.2-0.5,0.4-0.5c0,0,0,0,0,0h0.9l1.9-1.2c0.1,0,0.2-0.1,0.2-0.1h0.8
		c0.3,0,0.5,0.2,0.5,0.5c0,0,0,0,0,0.1L30.8,12c0.2,0.3,0.5,0.9,0.6,1.5c0.1,0.4,0.1,0.9,0.1,1.3l1.4,0c0.3,0,0.5,0.2,0.5,0.5l0,1.5
		c0,0.2-0.1,0.4-0.3,0.4l-0.4,0.2v0.4l0.4,0.2c0.2,0.1,0.2,0.2,0.2,0.4v1.3c0,0.1-0.1,0.3-0.2,0.4L32,21l1,0.3
		c0.2,0.1,0.3,0.2,0.3,0.4c0,0,0,0.7-0.1,1.4c-0.1,0.4-0.2,0.7-0.3,1.1h1.7l0,0V6.4H3v17.8H4.7z"/>
	<path class="st0" d="M24.5,22.4c0,0,0.1-0.1,0.1-0.1c-0.1-0.1-0.2-0.2-0.2-0.4l0-1.3c0,0,0,0,0,0L24,21c-0.2,0.1-0.3,0.1-0.5,0
		l-0.4-0.2l0,3.5H24C23.9,23.6,23.9,22.9,24.5,22.4 M30.7,33.7c-0.3,0-0.5-0.2-0.5-0.5v-3c0-0.2-0.1-0.5-0.3-0.7
		c-0.3-0.2-0.6-0.4-1-0.4c-0.7,0-1.1,0.6-1.2,1.1v3c0,0.3-0.2,0.5-0.5,0.5c0,0,0,0,0,0h-2.8c-0.3,0-0.5-0.2-0.5-0.5c0,0,0,0,0,0v-3
		c0-0.2-0.1-0.5-0.3-0.7c-0.3-0.2-0.6-0.4-1-0.4c-0.3,0-0.6,0.1-0.8,0.3L24.2,41c3.2-1.4,7-3.7,9-7.3C33.2,33.7,30.7,33.7,30.7,33.7
		z M23.3,41.3l-3.2-16.1h-2.6l-3.2,16.1c0,0,0,0,0,0.1c2.2,0.9,4,1.4,4.5,1.5C19.4,42.7,21.2,42.2,23.3,41.3
		C23.3,41.3,23.3,41.3,23.3,41.3 M15.8,29.5c-0.2-0.2-0.5-0.3-0.8-0.3c0,0,0,0,0,0c-0.5,0-0.8,0.2-0.9,0.4c-0.2,0.2-0.3,0.5-0.3,0.7
		v3c0,0.3-0.2,0.5-0.5,0.5l-2.8,0c-0.3,0-0.5-0.2-0.5-0.5v-3c-0.1-0.5-0.5-1.1-1.2-1.1h0c-0.5,0-0.8,0.2-0.9,0.4
		c-0.2,0.2-0.3,0.5-0.3,0.7v3c0,0.3-0.2,0.5-0.5,0.5c0,0,0,0,0,0l-2.5,0c2,3.5,5.8,5.8,9,7.2C13.5,41,15.8,29.5,15.8,29.5z"/>
	<path class="st0" d="M34.7,25.1H21.1l0.7,3.4c0.9-0.4,1.9-0.3,2.6,0.4c0.4,0.4,0.6,0.9,0.6,1.4v2.6h1.8v-2.5l0,0
		c0.1-1.1,1-1.9,2.1-2c0.6,0,1.2,0.2,1.6,0.6c0.4,0.4,0.6,0.9,0.6,1.4v2.5h2.5c0.7-1.5,1-3.1,1-4.7L34.7,25.1L34.7,25.1 M6.6,32.8
		v-2.6c0-0.5,0.2-1,0.6-1.4c0.4-0.4,1-0.6,1.6-0.6c1.1,0,2,0.9,2.1,2v2.5h1.8v-2.5c0-0.5,0.2-1,0.6-1.4c0.4-0.4,1-0.6,1.6-0.6
		c0.3,0,0.7,0.1,1,0.2l0.7-3.4H3v3c0,1.8,0.4,3.3,1,4.7C4,32.8,6.6,32.8,6.6,32.8z M7.7,23.2h0.8c0.1,0.1,0.1,0.2,0.1,0.3l0,0.2
		c0,0.2,0,0.3-0.1,0.5H5.8c-0.4-0.3-0.6-1.3-0.6-2.1l1.2-0.4c0.2-0.1,0.3-0.2,0.3-0.4v-0.4c0-0.1-0.1-0.3-0.2-0.4l-1.3-0.9v-0.8
		l0.4-0.2c0.2-0.1,0.2-0.2,0.2-0.4v-1c0-0.2-0.1-0.4-0.3-0.4l-0.4-0.2v-0.8l1.2,0L7,16.7L7,18l-0.4,1.2c-0.1,0.2,0.1,0.5,0.3,0.6
		c0,0,0.1,0,0.1,0h0.4c0.2,0,0.4-0.2,0.5-0.4c0-0.2,0.1-0.8,0.2-1.1c0.1-0.2,0.4-0.6,0.6-0.9c0.1-0.2,0.1-0.4,0-0.6l-1.6-1.8
		c0-0.3-0.1-0.9,0-1.4c0.1-0.5,0.5-1.1,0.6-1.3c0.1-0.1,0.1-0.2,0.1-0.3l0-0.2h0.1l1.9,1.2c0.1,0,0.2,0.1,0.2,0.1h0.5l0,0.7
		l-0.6,0.2c-0.2,0.1-0.3,0.2-0.3,0.4l0,0.5c0,0.3,0.2,0.5,0.5,0.5l1.6,0l0.4,0.4c0.2,0.2,0.4,0.2,0.6,0c0,0,0.7-0.6,0.8-0.6l0.3-0.5
		h0.9v1.7c0,0-1.7,0.6-1.8,0.6c-0.1,0.1-0.2,0.6-0.2,0.7s0,0.2,0.2,0.3c0,0,0.5,0.4,0.6,0.4l0.5-0.5l0.7,0v1.6L14,20l-1.9-1.3
		c-0.2-0.1-0.5-0.1-0.6,0.1l-0.3,0.4c-0.1,0.2-0.1,0.5,0,0.6l1.1,1l0,0.8l-1.1,0.5c-0.2,0.1-0.3,0.2-0.3,0.4v0.2
		c0,0.3,0.2,0.5,0.5,0.5h1.3c0.2,0.3,0.1,0.7,0,1H9.6c-0.1-0.1-0.2-0.3-0.2-0.5c0-0.1,0-0.1,0-0.2c0-0.3,0-0.5,0.1-0.8l0.7-0.9
		c0.1-0.1,0.1-0.2,0.1-0.3l0-0.4c0-0.3-0.2-0.5-0.4-0.5c-0.1,0-0.1,0-0.2,0l-1.2,0.5c-0.2,0.1-0.3,0.2-0.3,0.4L8.2,22l-0.7,0.2
		c-0.2,0.1-0.3,0.2-0.3,0.4v0.2C7.2,23,7.4,23.2,7.7,23.2 M30,23.2h-0.8c-0.1,0.1-0.1,0.2-0.1,0.3c0,0.1,0,0.1,0,0.2
		c0,0.2,0,0.3,0.1,0.5h2.6c0.4-0.3,0.6-1.3,0.6-2.1l-1.2-0.4c-0.2-0.1-0.3-0.2-0.3-0.4v-0.4c0-0.1,0.1-0.3,0.2-0.4l1.3-0.9v-0.8
		L32,18.6c-0.2-0.1-0.2-0.2-0.2-0.4v-1c0-0.2,0.1-0.4,0.3-0.4l0.4-0.2v-0.8l-1.2,0l-0.6,0.9l0,1.3l0.4,1.2c0,0.1,0,0.3-0.1,0.4
		c-0.1,0.1-0.2,0.2-0.4,0.2h-0.4c-0.2,0-0.4-0.2-0.5-0.4c0-0.2-0.1-0.8-0.2-1.1c-0.1-0.2-0.4-0.6-0.6-0.9c-0.1-0.2-0.1-0.4,0-0.6
		l1.6-1.8c0-0.3,0.1-0.9,0-1.4c-0.1-0.5-0.5-1.1-0.6-1.3c-0.1-0.1-0.1-0.2-0.1-0.3l0-0.2h-0.1l-1.9,1.2c-0.1,0-0.2,0.1-0.2,0.1h-0.5
		l0,0.7l0.6,0.2c0.2,0.1,0.3,0.2,0.3,0.4l0,0.5c0,0.3-0.2,0.5-0.5,0.5l-1.6,0l-0.4,0.4c-0.2,0.2-0.4,0.2-0.6,0c0,0-0.7-0.6-0.8-0.6
		L24,14.7h-0.9v1.7c0,0,1.7,0.6,1.8,0.6c0.1,0.1,0.2,0.6,0.2,0.7c0,0.1,0,0.2-0.2,0.3c0,0-0.5,0.4-0.6,0.4l-0.5-0.5l-0.7,0v1.6
		l0.6,0.4l1.9-1.3c0.2-0.1,0.5-0.1,0.6,0.1l0.3,0.4c0.1,0.2,0.1,0.5,0,0.6l-1.1,1l0,0.8l1.1,0.5c0.2,0.1,0.3,0.2,0.3,0.4v0.2
		c0,0.3-0.2,0.5-0.5,0.5c0,0,0,0,0,0H25c-0.2,0.3-0.1,0.7,0,1h3.1c0.1-0.1,0.2-0.3,0.2-0.5c0-0.1,0-0.1,0-0.2c0-0.3,0-0.5-0.1-0.8
		l-0.7-0.9c-0.1-0.1-0.1-0.2-0.1-0.3l0-0.4c0-0.2,0.1-0.3,0.2-0.4c0.1-0.1,0.3-0.1,0.4,0l1.2,0.5c0.2,0.1,0.3,0.2,0.3,0.4l0.1,0.5
		l0.7,0.2c0.2,0.1,0.3,0.2,0.3,0.4v0.2C30.5,23,30.3,23.2,30,23.2C30,23.2,30,23.2,30,23.2 M102.9,19.2L102.9,19.2
		c0-1.8,1.3-3.3,3.2-3.3c1.1,0,1.8,0.3,2.4,0.9l-0.5,0.5c-0.5-0.4-1-0.7-2-0.7c-1.4,0-2.4,1.2-2.4,2.6v0c0,1.5,1,2.7,2.5,2.7
		c0.7,0,1.3-0.2,1.9-0.6v-1.6h-2v-0.6h2.7v2.5c-0.7,0.6-1.6,1-2.6,1C104.2,22.4,102.9,21,102.9,19.2 M111.2,19.2L111.2,19.2
		c0-1.8,1.3-3.3,3.3-3.3c2,0,3.3,1.5,3.3,3.3v0c0,1.8-1.3,3.3-3.3,3.3C112.5,22.4,111.2,20.9,111.2,19.2 M117,19.2L117,19.2
		c0-1.5-1.1-2.7-2.5-2.7c-1.5,0-2.5,1.2-2.5,2.6v0c0,1.5,1.1,2.6,2.5,2.6C115.9,21.8,117,20.6,117,19.2 M120.3,15.9h2.7
		c0.7,0,1.3,0.2,1.7,0.6c0.3,0.3,0.4,0.6,0.4,1v0c0,0.8-0.5,1.3-1,1.5c0.8,0.2,1.4,0.7,1.4,1.5v0c0,1.1-0.9,1.7-2.3,1.7h-2.9
		C120.3,22.3,120.3,15.9,120.3,15.9z M124.4,17.6c0-0.6-0.5-1-1.4-1h-2v2.2h1.9C123.8,18.8,124.4,18.4,124.4,17.6L124.4,17.6
		L124.4,17.6z M123.1,19.4h-2v2.3h2.2c1,0,1.6-0.4,1.6-1.1v0C124.8,19.8,124.2,19.4,123.1,19.4z"/>
	<defs>
		<filter id="Adobe_OpacityMaskFilter_1_" filterUnits="userSpaceOnUse" x="102.8" y="15.8" width="95.1" height="17.5">
			<feColorMatrix  type="matrix" values="1 0 0 0 0  0 1 0 0 0  0 0 1 0 0  0 0 0 1 0"/>
		</filter>
	</defs>
	<mask maskUnits="userSpaceOnUse" x="102.8" y="15.8" width="95.1" height="17.5" id="d_1_">
		<g class="st3">
			<path id="c_1_" class="st0" d="M0,49.4h197.9V0H0V49.4z"/>
		</g>
	</mask>
	<path class="st4" d="M128.1,22.3h0.7v-6.4h-0.7V22.3z M131.7,15.9h4.6v0.7h-3.9v2.2h3.5v0.7h-3.5v2.2h4v0.7h-4.7V15.9z M138.8,15.9
		h2.8c0.8,0,1.4,0.2,1.8,0.6c0.3,0.3,0.5,0.8,0.5,1.3v0c0,1.1-0.7,1.7-1.7,1.9l2,2.6h-0.9l-1.9-2.5h-1.8v2.5h-0.7L138.8,15.9
		L138.8,15.9z M141.5,19.2c1,0,1.6-0.5,1.6-1.3v0c0-0.8-0.6-1.3-1.6-1.3h-2v2.6H141.5z M146.5,15.9h0.7l4,5.1v-5.1h0.7v6.4h-0.6
		l-4.1-5.2v5.2h-0.7L146.5,15.9z M154.6,19.2L154.6,19.2c0-1.8,1.3-3.3,3.3-3.3c2,0,3.3,1.5,3.3,3.3v0c0,1.8-1.3,3.3-3.3,3.3
		C155.9,22.4,154.6,20.9,154.6,19.2 M160.4,19.2L160.4,19.2c0-1.5-1.1-2.7-2.5-2.7s-2.5,1.2-2.5,2.6v0c0,1.5,1.1,2.6,2.5,2.6
		C159.3,21.8,160.4,20.6,160.4,19.2 M167,15.9h2.2c2,0,3.4,1.4,3.4,3.2v0c0,1.8-1.4,3.2-3.4,3.2H167V15.9z M167.8,16.6v5.1h1.5
		c1.6,0,2.7-1.1,2.7-2.5v0c0-1.4-1-2.5-2.7-2.5H167.8z M175,15.9h4.6v0.7h-3.9v2.2h3.5v0.7h-3.5v2.2h4v0.7H175V15.9z M185.4,15.9
		h0.7v5.7h3.6v0.7h-4.3L185.4,15.9z M194.2,15.9h0.7l2.9,6.4h-0.8l-0.8-1.7h-3.5l-0.8,1.7h-0.7C191.3,22.3,194.2,15.9,194.2,15.9z
		 M196,20l-1.5-3.2l-1.5,3.2H196z M102.8,30.1L102.8,30.1c0-1.8,1.4-3.3,3.3-3.3c1.2,0,1.9,0.4,2.5,1l-0.9,1c-0.5-0.4-1-0.7-1.6-0.7
		c-1.1,0-1.9,0.9-1.9,2v0c0,1.1,0.8,2,1.9,2c0.7,0,1.2-0.3,1.7-0.7l0.9,0.9c-0.7,0.7-1.4,1.1-2.6,1.1
		C104.2,33.4,102.8,31.9,102.8,30.1 M109.9,33.3h1.4v-6.4h-1.4V33.3z M112.9,30.5v-3.6h1.4v3.6c0,1,0.5,1.6,1.4,1.6s1.4-0.5,1.4-1.5
		v-3.7h1.4v3.6c0,1.9-1.1,2.9-2.8,2.9C114,33.4,112.9,32.4,112.9,30.5 M120.1,26.9h2.5c2,0,3.4,1.4,3.4,3.2v0c0,1.8-1.4,3.2-3.4,3.2
		h-2.5V26.9z M122.6,32c1.2,0,1.9-0.8,1.9-1.9v0c0-1.1-0.8-1.9-1.9-1.9h-1.1V32H122.6z M129.2,26.9h1.3l2.8,6.4h-1.5l-0.6-1.4h-2.7
		l-0.6,1.4h-1.4L129.2,26.9L129.2,26.9z M130.7,30.6l-0.9-2.1l-0.9,2.1H130.7z M134.3,26.9h2.5c2,0,3.4,1.4,3.4,3.2v0
		c0,1.8-1.4,3.2-3.4,3.2h-2.5V26.9z M136.8,32c1.2,0,1.9-0.8,1.9-1.9v0c0-1.1-0.8-1.9-1.9-1.9h-1.1V32H136.8z M144.3,26.9h2.5
		c2,0,3.4,1.4,3.4,3.2v0c0,1.8-1.4,3.2-3.4,3.2h-2.5L144.3,26.9L144.3,26.9z M146.8,32c1.2,0,1.9-0.8,1.9-1.9v0
		c0-1.1-0.8-1.9-1.9-1.9h-1.1V32H146.8z M151.5,26.9h4.8v1.2H153v1.3h3v1.2h-3V32h3.5v1.2h-4.9L151.5,26.9z M160.5,26.9h1.5l1.7,2.7
		l1.7-2.7h1.5v6.4h-1.4v-4.2l-1.8,2.7h0l-1.8-2.7v4.1h-1.4L160.5,26.9z M168.6,26.9h4.8v1.2H170v1.3h3v1.2h-3V32h3.5v1.2h-4.9
		L168.6,26.9L168.6,26.9z M171.3,24.8l1.2,0.5l-1.2,1.1h-1.1L171.3,24.8L171.3,24.8z M176.7,30l-2.1-3.1h1.7l1.3,2.1l1.4-2.1h1.6
		l-2.1,3.1l2.2,3.3h-1.7l-1.4-2.2l-1.4,2.2h-1.6L176.7,30z M181.7,33.3h1.4v-6.4h-1.4V33.3z M184.5,30.1L184.5,30.1
		c0-1.8,1.4-3.3,3.3-3.3c1.2,0,1.9,0.4,2.5,1l-0.9,1c-0.5-0.4-1-0.7-1.6-0.7c-1.1,0-1.9,0.9-1.9,2v0c0,1.1,0.8,2,1.9,2
		c0.7,0,1.2-0.3,1.7-0.7l0.9,0.9c-0.7,0.7-1.4,1.1-2.6,1.1C185.9,33.4,184.5,31.9,184.5,30.1 M191,30.1L191,30.1
		c0-1.8,1.4-3.3,3.4-3.3s3.4,1.5,3.4,3.3v0c0,1.8-1.4,3.3-3.4,3.3C192.5,33.4,191,31.9,191,30.1 M196.4,30.1L196.4,30.1
		c0-1.1-0.8-2-1.9-2c-1.1,0-1.9,0.9-1.9,2v0c0,1.1,0.8,2,1.9,2C195.6,32.1,196.4,31.2,196.4,30.1"/>
</g>
</svg>
