<?xml version="1.0" encoding="utf-8"?>
<!-- Generator: Adobe Illustrator 23.0.6, SVG Export Plug-In . SVG Version: 6.00 Build 0)  -->
<svg version="1.1" id="Layer_1" xmlns="http://www.w3.org/2000/svg" xmlns:xlink="http://www.w3.org/1999/xlink" x="0px" y="0px"
	 viewBox="0 0 4704.8 935.3" style="enable-background:new 0 0 4704.8 935.3;" xml:space="preserve">
<style type="text/css">
	.st0{fill:#888C8C;}
	.st1{fill:#666666;}
	.st2{fill:#96B737;}
	.st3{fill:#00AD4C;}
</style>
<title>Logo_ADIP_CIUDAD</title>
<g id="Capa_2">
	<g id="Capa_2-2">
		<path class="st0" d="M3711.2,286.5l-10.1-24.7h-46.5l-10.1,24.7h-24.7l47.2-110.8h22.3l47.2,110.8H3711.2z M3677.9,204.7
			l-14.6,35.7h29.2L3677.9,204.7z"/>
		<path class="st0" d="M3802.5,288.3c-34.3,0-57.9-24-57.9-56.6v-0.3c0-31.3,24.4-56.9,57.7-56.9c19.8,0,31.8,5.4,43.2,15.1
			l-15.2,18.4c-8.5-7.1-16-11.2-28.8-11.2c-17.6,0-31.6,15.6-31.6,34.3v0.3c0,20.1,13.8,34.9,33.3,34.9c8.8,0,16.7-2.2,22.8-6.6V244
			h-24.4v-20.9h47.8v47.8C3836.5,282.2,3819.8,288.4,3802.5,288.3z"/>
		<path class="st0" d="M3875.9,286.5v-110h83V198H3900v22.3h51.9v21.5H3900v23.1h59.7v21.5H3875.9z"/>
		<path class="st0" d="M4061.6,286.5l-53.3-70v70h-23.9v-110h22.3l51.6,67.8v-67.8h23.9v110L4061.6,286.5z"/>
		<path class="st0" d="M4163.2,288.3c-32.4,0-56.4-25-56.4-56.6v-0.3c0-31.3,23.6-56.9,57.4-56.9c20.8,0,33.2,6.9,43.4,17
			l-15.4,17.8c-8.5-7.7-17.1-12.4-28.1-12.4c-18.5,0-31.9,15.4-31.9,34.3v0.3c0,18.9,13,34.6,31.9,34.6c12.6,0,20.3-5,28.9-12.9
			l15.4,15.6C4197,280.8,4184.5,288.3,4163.2,288.3z"/>
		<path class="st0" d="M4231.9,286.5v-110h24.2v110H4231.9z"/>
		<path class="st0" d="M4368.7,286.5l-10.1-24.7h-46.5l-10.1,24.7h-24.7l47.2-110.8h22.3l47.1,110.8H4368.7z M4335.4,204.7
			l-14.6,35.7h29.2L4335.4,204.7z"/>
		<path class="st0" d="M3672.2,442.2h-42.9v-110h42.9c34.6,0,58.5,23.7,58.5,54.7v0.3C3730.7,418.2,3706.8,442.2,3672.2,442.2z
			 M3705.4,387.2c0-19.5-13.4-33.2-33.2-33.2h-18.7v66.3h18.7c19.8,0,33.2-13.4,33.2-32.9V387.2z"/>
		<path class="st0" d="M3756.4,442.2v-110h24.2v110H3756.4z"/>
		<path class="st0" d="M3864.3,444.1c-34.3,0-57.9-24-57.9-56.6v-0.3c0-31.3,24.4-56.9,57.7-56.9c19.8,0,31.8,5.3,43.2,15.1
			l-15.2,18.4c-8.5-7.1-16-11.2-28.8-11.2c-17.6,0-31.6,15.6-31.6,34.3v0.3c0,20.1,13.8,34.9,33.3,34.9c8.8,0,16.7-2.2,22.8-6.6
			v-15.7h-24.4v-20.9h47.8v47.8C3898.2,438,3881.5,444.2,3864.3,444.1z"/>
		<path class="st0" d="M3938.8,442.2v-110h24.2v110H3938.8z"/>
		<path class="st0" d="M4043.5,354.5v87.7h-24.2v-87.7h-33.5v-22.3h91.2v22.3H4043.5z"/>
		<path class="st0" d="M4166.4,442.2l-10.1-24.7h-46.5l-10.1,24.7h-24.7l47.2-110.8h22.3l47.2,110.8H4166.4z M4133.1,360.5
			l-14.6,35.7h29.2L4133.1,360.5z"/>
		<path class="st0" d="M4211.8,442.2v-110h24.2v88h54.9v22H4211.8z"/>
		<path class="st0" d="M4405.5,442.2h-42.9v-110h42.9c34.6,0,58.5,23.7,58.5,54.7v0.3C4464,418.2,4440.1,442.2,4405.5,442.2z
			 M4438.6,387.2c0-19.5-13.4-33.2-33.2-33.2h-18.7v66.3h18.7c19.8,0,33.2-13.4,33.2-32.9V387.2z"/>
		<path class="st0" d="M4488.6,442.2v-110h83v21.5h-59V376h51.9v21.5h-51.9v23.1h59.7v21.5L4488.6,442.2z"/>
		<path class="st0" d="M3630.4,598V488h24.2v110H3630.4z"/>
		<path class="st0" d="M3762.4,598l-53.3-70v70h-23.9V488h22.3l51.6,67.8v-67.8h23.9V598H3762.4z"/>
		<path class="st0" d="M3889.8,598l-53.3-70v70h-23.9V488h22.3l51.6,67.8v-67.8h23.9V598H3889.8z"/>
		<path class="st0" d="M3993.3,599.9c-33.9,0-58.3-25.3-58.3-56.6V543c0-31.3,24.7-56.9,58.6-56.9s58.4,25.3,58.4,56.6v0.3
			C4052,574.2,4027.3,599.9,3993.3,599.9z M4026.7,543c0-18.9-13.8-34.6-33.3-34.6s-33,15.4-33,34.3v0.3c0,18.9,13.8,34.6,33.3,34.6
			s33-15.4,33-34.3V543z"/>
		<path class="st0" d="M4126,598.8h-21.4l-44.5-110.8h26.7l28.8,77.5l28.8-77.5h26.1L4126,598.8z"/>
		<path class="st0" d="M4256.8,598l-10.1-24.7h-46.5l-10.1,24.7h-24.7l47.2-110.8h22.3l47.2,110.8H4256.8z M4223.5,516.3l-14.6,35.7
			h29.2L4223.5,516.3z"/>
		<path class="st0" d="M4346.7,599.9c-32.4,0-56.4-25-56.4-56.6V543c0-31.3,23.6-56.9,57.4-56.9c20.8,0,33.2,6.9,43.4,17l-15.4,17.8
			c-8.5-7.7-17.1-12.4-28.1-12.4c-18.5,0-31.9,15.4-31.9,34.3v0.3c0,18.9,13,34.6,31.9,34.6c12.6,0,20.3-5,28.9-12.9l15.4,15.6
			C4380.5,592.3,4367.9,599.9,4346.7,599.9z"/>
		<path class="st0" d="M4415.4,598V488h24.2v110H4415.4z"/>
		<path class="st0" d="M4523.7,599.9c-34,0-58.3-25.3-58.3-56.6V543c0-31.3,24.7-56.9,58.6-56.9s58.3,25.3,58.3,56.6v0.3
			C4582.3,574.2,4557.6,599.9,4523.7,599.9z M4557,543c0-18.9-13.8-34.6-33.3-34.6s-33,15.4-33,34.3v0.3c0,18.9,13.8,34.6,33.3,34.6
			s33-15.4,33-34.3V543z M4515.3,479.3l17.8-27.8l20.6,9l-20.1,18.9L4515.3,479.3z"/>
		<path class="st0" d="M4684.2,598l-53.3-70v70H4607V488h22.3l51.6,67.8v-67.8h23.9V598H4684.2z"/>
		<path class="st0" d="M3671.9,720.7h-18.4v33h-24.2v-110h45c26.2,0,42.1,15.6,42.1,38v0.3C3716.4,707.5,3696.6,720.7,3671.9,720.7z
			 M3691.9,682.2c0-10.8-7.6-16.7-19.6-16.7h-18.7v33.6h19.2c12.1,0,19.2-7.2,19.2-16.7V682.2z"/>
		<path class="st0" d="M3783.3,755.5c-29.6,0-47.6-16.5-47.6-48.9v-62.9h24.2V706c0,17.9,9,27.2,23.7,27.2s23.7-9,23.7-26.4v-63
			h24.2v62C3831.6,739.1,3812.9,755.5,3783.3,755.5z M3772.8,635.8l17.8-27.8l20.6,9l-20.2,18.8H3772.8z"/>
		<path class="st0" d="M3911.8,753.8h-52.3v-110h51.1c22.5,0,36.3,11.2,36.3,28.5v0.3c0,12.4-6.6,19.3-14.5,23.7
			c12.7,4.9,20.6,12.3,20.6,27v0.3C3952.9,743.7,3936.6,753.8,3911.8,753.8z M3922.8,676.2c0-7.2-5.7-11.3-15.9-11.3H3883v23.3h22.3
			c10.7,0,17.4-3.5,17.4-11.6L3922.8,676.2z M3928.9,720.2c0-7.4-5.5-11.9-17.9-11.9h-28v24.2h28.8c10.7,0,17.1-3.8,17.1-12
			L3928.9,720.2z"/>
		<path class="st0" d="M3976,753.8v-110h24.2v88h54.9v22H3976z"/>
		<path class="st0" d="M4077.6,753.8v-110h24.2v110H4077.6z"/>
		<path class="st0" d="M4184,755.6c-32.4,0-56.4-25-56.4-56.6v-0.3c0-31.3,23.6-56.9,57.4-56.9c20.8,0,33.2,6.9,43.4,17l-15.4,17.8
			c-8.5-7.7-17.1-12.4-28.1-12.4c-18.5,0-31.9,15.4-31.9,34.3v0.3c0,18.9,13,34.6,31.9,34.6c12.6,0,20.3-5,28.9-12.9l15.4,15.6
			C4217.8,748.1,4205.2,755.6,4184,755.6z"/>
		<path class="st0" d="M4333.5,753.8l-10.1-24.7h-46.5l-10.1,24.7h-24.7l47.2-110.8h22.3l47.2,110.8H4333.5z M4300.2,672l-14.6,35.7
			h29.2L4300.2,672z"/>
		<path class="st0" d="M3143.4,475.1V281.8c0-0.3,0-0.7-0.1-1v194.3H3143.4z"/>
		<path class="st0" d="M3490.7,338.4c-3.2-107.5-95-195-204.7-195h-174.1c-21.5,0-39,17.5-39,39l0,0v176.2c0.2,1,0.5,1.9,0.7,2.8
			c9.9,42.3,13.4,85.8,10.4,129.1c-0.8,12-2.2,23.8-4,35.5c-1.7,11-3.9,21.8-6.4,32.4v225.7c0,0,57.6,22,69.8-8.2V545.4
			c43.1,0.1,143.8,0.1,146.2,0.1c111.2-0.1,201.2-90.3,201.1-201.5C3490.8,342.2,3490.7,340.3,3490.7,338.4L3490.7,338.4z
			 M3383.4,435.5c-24.5,25.5-58.4,39.8-93.8,39.7c-2.5,0-103.2-0.1-146.2-0.1h-0.1V213.7H3286c72,0,132.2,56.9,134.3,126.7
			C3421.5,375.9,3408.1,410.2,3383.4,435.5z"/>
		<path class="st1" d="M3001.3,272c-5.5-7.2-11.4-14.2-17.6-21v1.2c6.1,6.8,12,13.8,17.6,21V272z"/>
		<path class="st0" d="M3033.9,323.4c-3.3-6.6-7-13.2-10.8-19.6c-3.4-5.7-7-11.4-10.8-16.9c-3.5-5.1-7.1-10.1-10.9-15v1.1
			c-5.6-7.2-11.4-14.2-17.6-21c-5.4-6-11.1-11.8-17-17.4v104.3c20.9,37.1,31.9,79,31.8,121.6c0,132.9-105.1,242.2-238.3,252.7
			l1.7,3.4l20,40.9l9,18.4l1.6,3.3c32.6-5.1,64.3-15.2,93.9-29.8c2.8-1.4,5.5-2.8,8.3-4.2c6.9-3.6,13.6-7.5,20.2-11.5l1.6-1
			c37.8-23.8,70.3-55.1,95.6-91.9c3.8-5.5,7.4-11,10.8-16.7c3.8-6.4,7.4-13,10.8-19.7c18.2-35.6,29.3-74.5,32.6-114.3
			C3071.1,432.7,3059.8,375,3033.9,323.4z"/>
		<path class="st0" d="M2767.9,778.9l-30.7-62.7l-0.9-1.9l-4.4-9l-5.5-11.2l-102.8-214v131l33.8,67.7l6.7,13.6l3.4,7
			c0.4,0.7,0.6,1.5,0.8,2.3l2.1,4.3l3.9,8l32.3,66.1l0.4,0.8c0.2,0.3,0.4,0.5,0.6,0.7c2.1,0.2,4.3,0.5,6.4,0.7h53.2
			c0.7,0,1.4-0.3,1.9-0.9L2767.9,778.9z"/>
		<path class="st0" d="M2496.5,215.5l0.1-0.1l0,0l-18.5-37.8l-17.8-36.3c-0.2-0.5-0.5-0.9-0.9-1.2c-0.5-0.5-1.1-0.8-1.8-0.9
			c-0.4-0.1-0.7-0.2-1.1-0.2l0,0c-0.4,0-0.7,0.1-1.1,0.2c-0.7,0.1-1.3,0.5-1.8,0.9c-0.4,0.4-0.7,0.8-0.9,1.2l-312.5,636.9
			c-0.7,1.4-0.1,3,1.3,3.7c0.4,0.2,0.8,0.3,1.2,0.3h45.3c8.3,0,15.8-4.7,19.5-12.1l34.2-69.8c0.1-0.3,0.2-0.6,0.4-0.9l177.7-362.1
			c3.2-8.7,6.9-17.2,10.8-25.6c0.4-1,0.9-1.9,1.3-2.9c1.8-3.7,3.6-7.3,5.5-10.9c0.6-1.2,1.2-2.4,1.9-3.5c0.2-0.4,0.5-0.9,0.7-1.3
			c1.7-3.1,3.4-6.3,5.2-9.4c0.6-1,1.1-1.9,1.7-2.9c2.1-3.5,4.2-6.9,6.4-10.3l70.8,141.6V272.9L2496.5,215.5z"/>
		<path class="st2" d="M2968.3,544.2v-0.7c-11.9,30.6-30.1,58.4-53.3,81.6c-4.5,4.5-9.2,8.7-13.9,12.8v1
			C2931,613.3,2954.1,580.8,2968.3,544.2z"/>
		<path class="st3" d="M2899.5,769.2v12.5c0,0.8,0.7,1.5,1.5,1.5c0,0,0,0,0,0h54.7c6.1,0,11.1-5,11.1-11.1v-46.6
			C2946.1,742.7,2923.6,757.3,2899.5,769.2z"/>
		<path class="st3" d="M2962.7,141.3h-59.1c-2.2,0-4.1,1.8-4.1,4v492.5c4.8-4,9.5-8.1,13.9-12.5c23.2-22.7,41.3-49.9,53.3-80V145.4
			C2966.8,143.1,2964.9,141.3,2962.7,141.3z"/>
		<path class="st0" d="M2732,141.3h-182.5c-4.1,0-7.4,3.2-7.5,7.3v616.4c0.1,8.2,6.8,14.8,15,14.7l29.6,0.1l95.5,0.2l-32.1-65.7
			h-40.7V208c0,0,123.6-0.8,129.9-0.8c58-0.1,114.4,19,160.3,54.5v-76.4C2848.4,156.4,2790.7,141.3,2732,141.3z"/>
	</g>
</g>
<path class="st3" d="M1230.8,515.9c4.9,7.4,11.6,10.8,21.1,11c12.9,0.3,21.2-12.4,21.2-12.4l214.1-274.3
	c17.7-18.4,35.1-3.5,35.1-3.5c16.9,17.7,4.3,33.8,4.3,33.8l-47.9,61.3v0.3c-4.1,4.2-6.6,10-6.6,16.4c0,5.8,2.1,11.2,5.6,15.3v0.1
	l48.2,61l151.8-193l-60.6-77.3l-11.2-14.6c-9.9-14.2-31.8-17.4-31.8-17.4h-90.9c-24.1,0-37.2,16.7-37.2,16.7l-254.5,326.6
	L1230.8,515.9z"/>
<path class="st3" d="M1220,348.5l-60.9-78.1c-12.4-20,5.7-34.2,5.7-34.2c22.7-13.3,35.9,7.2,35.9,7.2l50.4,64.7l59.6-76.8
	l-68.7-88.4c-16.4-23.5-41.4-20.2-41.4-20.2h-82.1c-26.3,0-37.6,16.3-37.6,16.3l-72.6,92.1L1160,425L1220,348.5z"/>
<path class="st3" d="M1454.6,415.1c0,0-7-10.9-20.5-10.6c-14,0.2-19.7,9.6-19.7,9.6l-216.3,277.8c-17.5,19.3-36.4,3.8-36.4,3.8
	c-16.9-17.7-3-34.1-3-34.1l48.5-62.3v-0.3c4.1-4.2,6.6-10,6.6-16.4c0-5.8-2.1-11.2-5.6-15.3V567l-48.2-61l-152.3,195.2l84.9,107.5
	L1226,809l268.3-343.1L1454.6,415.1z"/>
<path class="st3" d="M1465.8,582.5l61.4,79c14.1,19.6-3.7,34.1-3.7,34.1c-23.6,15.8-38-7.8-38-7.8l-51.4-65.3l-59.6,76.8l86,110.1
	l132.4-0.3l84.9-108.8l-152.1-194.3L1465.8,582.5z"/>
<path class="st3" d="M1676.7,498.9c-17.8,0-32.4-14.7-32.4-32.7c0-18,14.5-32.7,32.4-32.7c17.8,0,32.4,14.7,32.4,32.7
	C1709,484.2,1694.5,498.9,1676.7,498.9 M1676.7,405.5c-33.9,0-61.6,27.3-61.6,60.8c0,33.5,27.6,60.8,61.6,60.8
	c33.9,0,61.6-27.3,61.6-60.8C1738.2,432.7,1710.6,405.5,1676.7,405.5"/>
<path class="st3" d="M1342.6,29.3c17.8,0,32.4,14.7,32.4,32.7c0,18-14.5,32.7-32.4,32.7c-17.8,0-32.4-14.6-32.4-32.7
	C1310.2,44,1324.7,29.3,1342.6,29.3 M1342.6,122.7c33.9,0,61.6-27.3,61.6-60.8c0-33.5-27.6-60.8-61.6-60.8
	c-33.9,0-61.6,27.3-61.6,60.8C1281,95.5,1308.6,122.7,1342.6,122.7"/>
<path class="st3" d="M975.2,466c0-18,14.5-32.7,32.4-32.7c17.8,0,32.4,14.7,32.4,32.7c0,18-14.5,32.7-32.4,32.7
	C989.7,498.7,975.2,484,975.2,466 M1069.2,466c0-33.5-27.6-60.8-61.6-60.8c-33.9,0-61.6,27.3-61.6,60.8c0,33.5,27.6,60.8,61.6,60.8
	C1041.6,526.8,1069.2,499.5,1069.2,466"/>
<path class="st3" d="M1342.7,902.8c-17.8,0-32.4-14.7-32.4-32.7c0-18,14.5-32.7,32.4-32.7c17.8,0,32.4,14.7,32.4,32.7
	C1375,888.1,1360.5,902.8,1342.7,902.8 M1342.7,809.4c-33.9,0-61.6,27.3-61.6,60.8c0,33.5,27.6,60.8,61.6,60.8
	c33.9,0,61.6-27.3,61.6-60.8C1404.2,836.6,1376.6,809.4,1342.7,809.4"/>
<path class="st0" d="M700,61.6H-7.2v471.6c0,258.9,353.5,336.9,353.5,336.9h0.3c0,0,353.5-78,353.5-336.9V61.6z M682.8,78.8v454.4
	c0,55.1-17.3,105.9-51.5,151.1c-27.8,36.8-66.9,70.2-116,99.1c-75.3,44.3-151.8,64.7-168.9,69c-17.1-4.2-92.9-24.4-168.2-68.6
	c-49.4-29-88.6-62.3-116.5-99.2C27.4,639.4,10,588.4,10,533.2V78.8H682.8z"/>
<path class="st0" d="M432.1,212.6v-43.3h-44.5v40.4h-17.4v-40.4h-45.9v40.4h-17.4v-40.4h-45.3v43.3l22.1,38c0.8,1.3,1.2,2.8,1.2,4.4
	l0.2,198.3h21.4l-0.2-71.2c0-16.8,19.1-32.1,40.1-32.1c21,0,40.1,15.3,40.1,32l0.2,71.3h22l-0.1-75.2c0-0.3-0.1-0.7-0.1-1v-37.3
	c0-0.2,0-0.4,0-0.6l0-27.1c0,0,0-0.1,0-0.1V300l0-45.1c0-1.6,0.4-3.1,1.2-4.4L432.1,212.6z"/>
<path class="st0" d="M267.6,457.9l-0.1-65.7l-7.9,4.7c-2.9,1.8-6.6,1.6-9.4-0.3l-9.5-6.5c0,0.3,0,0.6,0,0.8l-0.3,25.3
	c0,2.7-1.3,5.1-3.3,6.7c1,0.3,1.9,0.8,2.8,1.5c11.6,9.3,12.4,22.6,10,33.4H267.6z"/>
<path class="st0" d="M346.3,367.4c-13.3,0-22.7,9.5-22.7,14.7l0.2,71.3h45.4L369,382C369,376.9,359.7,367.4,346.3,367.4"/>
<path class="st0" d="M81.2,457.9c-2.5-5.5-4.3-12.1-5.6-20c-2.2-13.7-1.7-26.4-1.7-26.9c0.1-3.7,2.6-6.9,6.1-8l19-5.9L77.6,382
	c-2.3-1.6-3.7-4.3-3.7-7.1v-24.1c0-3.2,1.8-6.2,4.7-7.7l8.4-4.4v-8.2l-7.6-3.1c-3.3-1.3-5.4-4.5-5.4-8.1l0-29c0-4.8,3.8-8.7,8.6-8.7
	l26.8-0.2c-0.5-7.1-0.6-16.8,1.1-24.9c2.3-10.9,8.5-22.7,11.5-27.9l-1.4-10c-0.3-2.5,0.4-5,2.1-6.9c1.6-1.9,4-3,6.6-3h14.5
	c1.6,0,3.3,0.5,4.7,1.3l35.4,22.4h16.3c2.4,0,4.6,1,6.3,2.7c1.6,1.7,2.5,4,2.4,6.4l-1.2,27.9c-0.1,2.4-1.2,4.5-2.8,6l10.8,0
	c2.4,0,4.6,1,6.2,2.7l4.9,5.1l3.7-2.9l6.3-13.2c1.4-3,4.5-5,7.9-5h23.1v-4.9l-22.1-38c-0.8-1.3-1.2-2.8-1.2-4.4v-54.4
	c0-4.8,3.9-8.7,8.7-8.7h54h17.4h45.9h17.4h53.2c4.8,0,8.7,3.9,8.7,8.7v54.4c0,1.6-0.4,3.1-1.2,4.4l-22.4,38v4.9h22.9
	c3.4,0,6.4,1.9,7.9,5l6.3,13.2l3.7,2.9l4.9-5.1c1.6-1.7,3.9-2.7,6.2-2.7l10.8,0c-1.7-1.5-2.7-3.7-2.8-6l-1.2-27.9
	c-0.1-2.4,0.8-4.7,2.4-6.4c1.6-1.7,3.9-2.7,6.3-2.7h16.3l35.4-22.4c1.4-0.9,3-1.3,4.7-1.3H564c2.5,0,4.9,1.1,6.6,3
	c1.7,1.9,2.4,4.4,2.1,6.9l-1.4,10c2.9,5.3,9.1,17.1,11.5,27.9c1.7,8,1.6,17.7,1.1,24.9l26.8,0.2c4.8,0,8.6,3.9,8.6,8.7l0,29
	c0,3.5-2.2,6.7-5.4,8.1l-7.6,3.1v8.2l8.4,4.4c2.9,1.5,4.7,4.5,4.7,7.7v24.1c0,2.8-1.4,5.5-3.7,7.1L594,397.2l19,5.9
	c3.5,1.1,6,4.3,6.1,8c0,0.5,0.5,13.2-1.7,26.9c-1.2,7.8-3.1,14.5-5.6,20h31.7c0.1,0,0.3,0,0.4,0V121.8H49.7v336.1H81.2z"/>
<path class="st0" d="M453.3,424.5c0.8-0.7,1.8-1.2,2.8-1.5c-2.1-1.6-3.3-4.1-3.3-6.7l-0.3-25.3c0-0.3,0-0.6,0-0.8l-9.5,6.5
	c-2.8,1.9-6.5,2-9.4,0.3l-7.5-4.5l0,65.5h17.3C440.8,447.1,441.7,433.8,453.3,424.5"/>
<path class="st0" d="M568.8,637.7c-4.8,0-8.7-3.9-8.7-8.7v-56.8c0-4.2-2.5-9.5-6.5-13.3c-3.3-3.2-9-7.2-17.9-7
	c-13.3,0.2-21.3,10.5-22.4,20.7V629c0,2.3-0.9,4.5-2.5,6.2c-1.6,1.6-3.8,2.5-6.2,2.5h-51.7c-4.8,0-8.7-3.9-8.7-8.7v-56.8
	c0-4.2-2.5-9.5-6.5-13.3c-3.3-3.2-9.1-7.2-17.9-7c-5.8,0.1-11,2.2-15.1,6l42.5,216.8c59.8-26.5,130.6-69.8,168.9-136.9H568.8z"/>
<path class="st0" d="M430.5,780l-59.7-304.7h-48.5l-59.7,304.8c-0.1,0.4-0.2,0.8-0.4,1.2c41.5,17,75.1,25.7,84.5,28.6
	c9.5-3,43-11.6,84.2-28.5C430.8,781,430.7,780.5,430.5,780"/>
<path class="st0" d="M288.5,557.5c-4-3.6-9.1-5.6-14.8-5.7c-0.2,0-0.3,0-0.5,0c-8.5,0-14.1,3.8-17.4,7c-3.9,3.9-6.5,9.1-6.5,13.3
	V629c0,4.8-3.9,8.7-8.7,8.7H189c-2.3,0-4.5-0.9-6.2-2.5c-1.6-1.6-2.5-3.8-2.5-6.2v-56.4c-1.1-10.2-9.1-20.5-22.4-20.7
	c-0.2,0-0.3,0-0.5,0c-8.5,0-14.1,3.8-17.4,7c-4,3.9-6.5,9.1-6.5,13.3V629c0,4.8-3.9,8.7-8.7,8.7H77.6
	c38.2,66.9,108.8,110.1,168.4,136.7L288.5,557.5z"/>
<path class="st0" d="M643.5,475.3h-255l12.5,63.9c5.6-3,11.9-4.7,18.5-4.8c11.5-0.2,22.3,4.1,30.3,12c7.3,7.2,11.7,16.8,11.7,25.7
	v48.1l34.3,0v-48.2c0-0.3,0-0.5,0-0.8c1.9-20.7,18.9-36.6,39.5-36.9c11.6-0.2,22.3,4.1,30.4,12c7.3,7.2,11.7,16.8,11.7,25.7v48.1
	l47.5,0c11.9-26.1,19-55.5,19-88.5v-56.5C643.8,475.3,643.7,475.3,643.5,475.3"/>
<path class="st0" d="M116.1,620.3v-48.1c0-8.9,4.4-18.6,11.7-25.8c8-7.9,18.8-12.1,30.3-11.9c20.6,0.3,37.6,16.2,39.5,36.9
	c0,0.3,0,0.5,0,0.8v48.1H232v-48.1c0-8.9,4.4-18.6,11.7-25.8c8-7.9,18.8-12.1,30.4-11.9c6.4,0.1,12.6,1.7,18.1,4.6l12.5-63.7H49.7
	v56.5c0,33,7.1,62.4,19,88.5H116.1z"/>
<path class="st0" d="M136.5,440h14.1c1.1,1.8,1.7,3.8,2,5.9c0,1.2,0.1,2.3,0.2,3.5c0,3.1-0.6,6.1-1.2,8.5h-49.4
	c-7.1-4.9-10.7-24.2-11-40.1l21.6-6.7c3.7-1.1,6.1-4.5,6.1-8.3v-8.3c0-2.8-1.4-5.5-3.7-7.1l-24-17v-14.3l8.4-4.4
	c2.9-1.5,4.7-4.5,4.7-7.7v-19.3c0-3.5-2.1-6.7-5.4-8.1l-7.7-3.1l0-14.5l22.8-0.2l10.8,17.8l0.1,24.8l-7.4,23.5
	c-0.8,2.6-0.4,5.5,1.3,7.8c1.6,2.2,4.2,3.5,7,3.5h6.6c4.3,0,7.9-3.1,8.6-7.3c0.6-3.9,2.7-15,4.6-20c1.5-3.9,7.7-12.2,11.6-16.9
	c2.7-3.3,2.7-8.1-0.1-11.3l-29.9-34.3c-0.6-5.2-1.6-17.4,0.2-26.1c2-9.4,8.6-21.4,10.9-25.3c1.1-1.7,1.5-3.8,1.2-5.8l-0.4-3.1h1.9
	l35.4,22.4c1.4,0.9,3,1.3,4.7,1.3h9.7l-0.6,13l-11.4,4.1c-3.5,1.3-5.7,4.6-5.7,8.2l0,8.9c0,4.8,3.9,8.6,8.7,8.6l29.8,0.1l7.8,8.1
	c3.1,3.2,8,3.6,11.5,0.9c0,0,13.6-10.8,14.1-12l4.8-10.2h17.4v20.4v11.2c0,0-31.7,10.9-34.4,12.2c-2.1,1-3.2,10.9-2.9,13.2
	c0.4,2.4,0.2,3.3,3.7,5.8c0,0,9.3,7.3,12.1,8.3l9.2-8.8l12.2,0.8l0,29.3l-11.7,7l-36.5-25c-3.8-2.6-8.9-1.8-11.8,1.8l-5.7,7.3
	c-2.8,3.5-2.4,8.6,0.9,11.7l20.9,19.6l-0.2,15.9l-20.9,9.3c-3.2,1.4-5.2,4.5-5.2,8v3.5c0,4.8,3.9,8.7,8.7,8.7h25.2
	c4.3,5.4,2.6,13.1,0.8,17.9h-58.1c-2-2.1-3-5.7-3.4-9.8c0-1.1-0.1-2.2-0.2-3.4c-0.1-5.5,0.6-11.2,1.3-14.5l13.5-17.3
	c1.1-1.4,1.8-3.1,1.8-4.9l0.4-8.3c0.1-3-1.2-5.8-3.7-7.5c-2.4-1.7-5.6-2.1-8.3-1l-21.8,8.9c-2.8,1.2-4.9,3.7-5.3,6.8l-1.3,8.7
	l-12.7,3.8c-3.7,1.1-6.2,4.5-6.2,8.3v3.5C127.8,436.1,131.7,440,136.5,440"/>
<path class="st0" d="M556.6,440h-14.1c-1.1,1.8-1.7,3.8-2,5.9c0,1.2-0.1,2.3-0.2,3.5c0,3.1,0.6,6.1,1.2,8.5h49.4
	c7.1-4.9,10.7-24.2,11-40.1l-21.6-6.7c-3.7-1.1-6.1-4.5-6.1-8.3v-8.3c0-2.8,1.4-5.5,3.7-7.1l24-17v-14.3l-8.4-4.4
	c-2.9-1.5-4.7-4.5-4.7-7.7v-19.3c0-3.5,2.1-6.7,5.4-8.1l7.7-3.1l0-14.5l-22.8-0.2l-10.8,17.8l-0.1,24.8l7.4,23.5
	c0.8,2.6,0.4,5.5-1.3,7.8c-1.6,2.2-4.2,3.5-7,3.5h-6.6c-4.3,0-7.9-3.1-8.6-7.3c-0.6-3.9-2.7-15-4.6-20c-1.5-3.9-7.7-12.2-11.6-16.9
	c-2.7-3.3-2.7-8.1,0.1-11.3l29.9-34.3c0.6-5.2,1.7-17.4-0.2-26.1c-2-9.4-8.6-21.4-10.9-25.3c-1.1-1.7-1.5-3.8-1.2-5.8l0.4-3.1h-1.9
	l-35.4,22.4c-1.4,0.9-3,1.3-4.7,1.3h-9.7l0.6,13l11.4,4.1c3.5,1.3,5.7,4.6,5.7,8.2l0,8.9c0,4.8-3.9,8.6-8.7,8.6l-29.8,0.1l-7.8,8.1
	c-3.1,3.2-8,3.6-11.5,0.9c0,0-13.6-10.8-14.1-12l-4.8-10.2h-17.4v20.4v11.2c0,0,31.7,10.9,34.4,12.2c2.1,1,3.2,10.9,2.8,13.2
	c-0.4,2.4-0.2,3.3-3.7,5.8c0,0-9.3,7.3-12.1,8.3l-9.2-8.8l-12.2,0.8l0,29.3l11.7,7l36.5-25c3.8-2.6,8.9-1.8,11.8,1.8l5.7,7.3
	c2.8,3.5,2.4,8.6-0.9,11.7l-20.9,19.6l0.2,15.9l20.9,9.3c3.1,1.4,5.2,4.5,5.2,8v3.5c0,4.8-3.9,8.7-8.7,8.7h-25.2
	c-4.3,5.4-2.6,13.1-0.8,17.9h58.1c2-2.1,3-5.7,3.4-9.8c0-1.1,0.1-2.2,0.2-3.4c0.1-5.5-0.6-11.2-1.3-14.5l-13.5-17.3
	c-1.1-1.4-1.7-3.1-1.8-4.9l-0.4-8.3c-0.1-3,1.2-5.8,3.7-7.5c2.4-1.7,5.6-2.1,8.3-1l21.8,8.9c2.8,1.2,4.9,3.7,5.3,6.8l1.3,8.7
	l12.7,3.8c3.7,1.1,6.2,4.5,6.2,8.3v3.5C565.3,436.1,561.4,440,556.6,440"/>
<rect x="1924.8" y="122.6" class="st0" width="13" height="686.7"/>
</svg>
